<?xml version="1.0" encoding="UTF-8"?>
<svg id="Layer_1" data-name="Layer 1" xmlns="http://www.w3.org/2000/svg" viewBox="0 0 1080 1080">
  <defs>
    <style>
      .cls-1 {
        fill: #7b7b7b;
        stroke-width: 0px;
      }
    </style>
  </defs>
  <path class="cls-1" d="m1040,0H40C17.91,0,0,17.91,0,40v1000c0,22.09,17.91,40,40,40h1000c22.09,0,40-17.91,40-40V40c0-22.09-17.91-40-40-40Zm-499.65,531.84c59.6-54.24,168.38-87.51,177.83-90.32.44-.13.88-.16,1.33-.1,8.58,1.25,97.48,14.27,176.81,28.46,3.58.64,3.4,5.82-.21,6.24-150.48,17.62-243.28,65.49-355.76,139.25h0c58.31-32.44,119.54-63.89,183.19-84.35,68-21.87,136.54-35.06,207.67-40.44,1.47-.11,2.82.81,3.26,2.21l18.67,59.7c.67,2.13-1.02,4.25-3.25,4.08-139.39-10.5-331.3,29.3-409.54,58.79,10.92-3.93,50.36-11.75,63.95-14.23,38.43-6.99,77.12-12.66,115.91-17.29,78.24-9.34,157.46-13.99,236.19-9.14,1.9.12,3.27,1.89,2.91,3.76l-14.27,73.73c-.32,1.66-1.91,2.77-3.58,2.52-132.66-19.7-203.52-32.38-344.88-17.55-9.9-9.49-24.13-19.81-56.23-21.81,0,0,0,0,0,0h0s0,0,0,0v-83.54Zm46.33,106.56s-11.68,0-11.68,0c-16.18-7.15-34.59-9.95-52.07-6.49-7.67,1.17-20.05,6.5-20.05,6.5,0,0-4.83.05-8.86-.02,23.23-21.66,69.06-18.08,92.67,0Zm-462.88-49.25c154.2-12.34,260.83-19.3,409.63,26.23-115.09-48.41-250.42-56.98-381.33-54.01-3.57.08-4.5-4.89-1.15-6.11l66.78-24.32c.4-.14.82-.21,1.24-.19,123.77,6.02,192.07,16.56,314.46,84.64-86.16-54.97-133.88-97.06-370.48-101.32-3.57-.06-4.32-5.07-.92-6.16l166.37-53.55c.62-.2,1.29-.21,1.92-.01,61.52,19.06,129.13,72.59,203.12,161.04-86.52-118.89-194.94-198.99-327.55-197.57-3.7.04-4.4-5.25-.82-6.2l116.55-31.05c.5-.13,1.03-.14,1.54-.03,110.25,25.16,170.19,82.37,210.89,151.85l-.6,83c-12.15.85-41.03,6.45-50.71,22.02-141.44-14.84-209.18-2.34-341.91,17.37-1.58.23-3.1-.75-3.52-2.29l-16.29-59.35c-.52-1.91.83-3.82,2.8-3.98Zm829.01,109.92c-.69.44-1.54.54-2.34.35-104.81-25.37-242.87-36.48-362.88-31.16-1.35.06-2.53.92-2.96,2.2-6.64,19.73-83.15,19.67-91.63-.2-.5-1.18-1.56-2.01-2.84-2.06-114.94-4.33-233.88,8.55-360.05,31.31-.73.13-1.5.02-2.14-.36-6.65-4.02-8.15-10.88-7.97-18.65.03-1.48,1.09-2.75,2.54-3.04,126.48-26.18,252.24-38.04,375.8-27.58,1.88.16,3.63,1.13,4.66,2.71,12.36,18.83,60.11,18.8,72.68-.46,1.01-1.55,2.73-2.51,4.57-2.69,123.44-12.07,249.2-.58,376.8,29.69,1.2.28,2.13,1.24,2.38,2.45,1.53,7.29-.06,13.36-6.64,17.5Z"/>
</svg>