<?xml version="1.0" encoding="UTF-8"?>
<svg id="Layer_1" data-name="Layer 1" xmlns="http://www.w3.org/2000/svg" viewBox="0 0 1080 1080">
  <defs>
    <style>
      .cls-1 {
        fill: #7b7b7b;
        stroke-width: 0px;
      }
    </style>
  </defs>
  <path class="cls-1" d="m1040,0H40C17.91,0,0,17.91,0,40v1000c0,22.09,17.91,40,40,40h1000c22.09,0,40-17.91,40-40V40c0-22.09-17.91-40-40-40Zm-127.51,621.34c0,17.91-14.52,32.42-32.42,32.42h-226.6s0,226.3,0,226.3c0,17.91-14.52,32.42-32.42,32.42h-162.1c-17.91,0-32.42-14.52-32.42-32.42v-226.3h-226.6c-17.91,0-32.42-14.52-32.42-32.42v-162.1c0-17.91,14.52-32.42,32.42-32.42h226.6s0-226.89,0-226.89c0-17.91,14.52-32.42,32.42-32.42h162.1c17.91,0,32.42,14.52,32.42,32.42v226.89h226.6c17.91,0,32.42,14.52,32.42,32.42v162.1Z"/>
</svg>