<?xml version="1.0" encoding="UTF-8"?>
<svg id="Layer_1" data-name="Layer 1" xmlns="http://www.w3.org/2000/svg" viewBox="0 0 1080 1080">
  <defs>
    <style>
      .cls-1 {
        fill: #7b7b7b;
        stroke-width: 0px;
      }
    </style>
  </defs>
  <path class="cls-1" d="m1040,0H40C17.91,0,0,17.91,0,40v1000c0,22.09,17.91,40,40,40h1000c22.09,0,40-17.91,40-40V40c0-22.09-17.91-40-40-40Zm-179.34,505.32c-.12-.06-.25-.16-.37-.22-14.31-8.06-31.33-12.01-49.31-10.17-42.09,4.29-74.45,40.72-74.1,83.03.06,7.93,1.24,15.59,3.42,22.83,1.56,5.41,3.7,10.58,6.32,15.46l2.27,3.95.09.12c14.5,23.83,40.75,39.76,70.71,39.76,14.75,0,28.59-3.86,40.6-10.67.12-.06.25-.12.37-.19v203.24h-203.43c6.81-12.01,10.67-25.85,10.67-40.6,0-29.96-15.93-56.22-39.76-70.71l-.12-.09-3.95-2.27c-4.88-2.61-10.05-4.76-15.46-6.32-7.28-2.18-14.93-3.33-22.87-3.39-42.31-.34-78.71,32.01-83.03,74.1-1.84,17.98,2.12,35,10.2,49.28h-202.71v-189.21c0-19.16-20.75-31.14-37.33-21.56l-10.89,6.28-.12.09-3.95,2.27c-4.88,2.61-10.05,4.76-15.46,6.32-7.47,2.24-15.34,3.42-23.52,3.42-13.13,0-25.54-3.05-36.59-8.49-.75-.37-1.46-.75-2.21-1.15-.44-.22-.9-.47-1.34-.72-1.43-.81-2.86-1.68-4.23-2.55-25.11-15.93-41.03-45.02-38.11-77.56,3.8-42.5,40.44-75.47,83.13-75.16,7.93.06,15.59,1.24,22.87,3.42,5.41,1.56,10.58,3.7,15.46,6.32l3.95,2.27.12.09,10.89,6.28c2.02,1.15,4.08,1.99,6.16,2.55.93.25,1.84.44,2.77.56,14.28,2.05,28.4-8.87,28.4-24.67v-189.24h188.84c15.06,0,25.73-12.88,24.86-26.47-.03-.53-.09-1.03-.16-1.56-.12-.93-.31-1.87-.56-2.77-.53-2.21-1.4-4.39-2.61-6.5l-5.85-10.2-.09-.12-2.27-3.95c-2.61-4.88-4.76-10.05-6.32-15.46-2.24-7.47-3.42-15.34-3.42-23.52,0-48.25,41.28-86.86,90.47-82.47,26.01,2.33,48.47,16.99,61.91,37.8.9,1.37,1.74,2.8,2.55,4.23.25.44.5.9.72,1.34.37.75.78,1.46,1.15,2.21,5.76,11.39,8.93,24.17,8.84,37.58-.06,7.93-1.24,15.59-3.42,22.83-1.56,5.41-3.7,10.58-6.32,15.46l-2.27,3.95-.09.12-5.88,10.2c-9.58,16.58,2.4,37.3,21.56,37.3h188.84v203.27Z"/>
</svg>