<?xml version="1.0" encoding="UTF-8"?>
<svg xmlns="http://www.w3.org/2000/svg" viewBox="0 0 345 487.93">
  <defs>
    <style>
      .cls-1 {
        fill: #ca4b2c;
      }

      .cls-1, .cls-2, .cls-3, .cls-4, .cls-5, .cls-6, .cls-7, .cls-8, .cls-9, .cls-10, .cls-11, .cls-12, .cls-13, .cls-14, .cls-15, .cls-16, .cls-17, .cls-18, .cls-19, .cls-20, .cls-21, .cls-22, .cls-23 {
        stroke-width: 0px;
      }

      .cls-2 {
        fill: #c20e1a;
      }

      .cls-3 {
        fill: #6aa842;
      }

      .cls-24 {
        font-family: PlaypenSans-Regular, 'Playpen Sans';
        font-size: 10.5px;
        font-variation-settings: 'wght' 400;
      }

      .cls-24, .cls-5, .cls-8, .cls-13, .cls-15, .cls-20 {
        fill: #fff;
      }

      .cls-4 {
        fill: #80c2ef;
      }

      .cls-5, .cls-11 {
        opacity: .09;
      }

      .cls-6 {
        fill: #222221;
      }

      .cls-7 {
        fill: #009de0;
      }

      .cls-9 {
        fill: #e6e2df;
      }

      .cls-10 {
        fill: #d9d7cb;
      }

      .cls-11 {
        fill: #f6f6f6;
      }

      .cls-12 {
        fill: #c8c5b7;
      }

      .cls-13 {
        opacity: .11;
      }

      .cls-14 {
        fill: #0d0c0e;
      }

      .cls-15 {
        opacity: .04;
      }

      .cls-16 {
        fill: #c23f53;
      }

      .cls-17 {
        fill: #a5a298;
      }

      .cls-18 {
        fill: #c5c5c5;
      }

      .cls-19 {
        fill: #1a1841;
      }

      .cls-20 {
        opacity: .03;
      }

      .cls-21 {
        fill: #dc911b;
      }

      .cls-22 {
        fill: #98bd58;
        opacity: .33;
      }

      .cls-23 {
        fill: #911712;
      }
    </style>
  </defs>
  <g id="Camada_1" data-name="Camada 1">
    <rect class="cls-19" x="-3.11" width="349.8" height="488.56"/>
  </g>
  <g id="Camada_11" data-name="Camada 11">
    <path class="cls-20" d="m-26.2,388.86c20.04-7.91,36.75,20.8,49.77,24.3,20.44,5.5,28.76-2.01,58.38-3.36,29.62-1.35,46.22,25.06,69.55,39.01,23.33,13.95,64.17,29.92,112.18,13.95,32.36-10.76,70.88,10.78,83,25.81,12.13,15.03-115.76,46.44-221.66,32.53-105.9-13.91-145.84,9.42-141.35-25.58,4.49-35-13.66-105.15-9.87-106.65Z"/>
  </g>
  <g id="Camada_5" data-name="Camada 5">
    <g>
      <path class="cls-8" d="m12.85,168.02c.36,0,.37-.57,0-.57s-.37.57,0,.57h0Z"/>
      <path class="cls-8" d="m9.03,246.17c.36,0,.37-.57,0-.57s-.37.57,0,.57h0Z"/>
      <path class="cls-8" d="m63.03,474.2c.33,0,.33-.52,0-.52s-.33.52,0,.52h0Z"/>
      <path class="cls-8" d="m203.06,480.25c.33,0,.33-.52,0-.52s-.33.52,0,.52h0Z"/>
      <path class="cls-8" d="m154.91,36.74c.36,0,.37-.57,0-.57s-.37.57,0,.57h0Z"/>
      <path class="cls-8" d="m320.93,35c.36,0,.37-.57,0-.57s-.37.57,0,.57h0Z"/>
      <path class="cls-8" d="m325.59,471.34c.33,0,.33-.52,0-.52s-.33.52,0,.52h0Z"/>
      <path class="cls-8" d="m131.98,193.72c.36,0,.37-.57,0-.57s-.37.57,0,.57h0Z"/>
      <path class="cls-8" d="m258.76,82.58c.36,0,.37-.57,0-.57s-.37.57,0,.57h0Z"/>
      <path class="cls-8" d="m185.12,110.02c.36,0,.37-.57,0-.57s-.37.57,0,.57h0Z"/>
      <path class="cls-8" d="m225.76,39.51c.36,0,.37-.57,0-.57s-.37.57,0,.57h0Z"/>
      <path class="cls-8" d="m304.95,129.12c.36,0,.37-.57,0-.57s-.37.57,0,.57h0Z"/>
      <path class="cls-8" d="m56.27,178.44c.36,0,.37-.57,0-.57s-.37.57,0,.57h0Z"/>
      <path class="cls-8" d="m132.41,449.06c.33,0,.33-.52,0-.52s-.33.52,0,.52h0Z"/>
      <path class="cls-8" d="m117.47,122.11c.36,0,.37-.57,0-.57s-.37.57,0,.57h0Z"/>
      <path class="cls-8" d="m169.84,161.42c.36,0,.37-.57,0-.57s-.37.57,0,.57h0Z"/>
      <path class="cls-8" d="m104.2,35.35c.36,0,.37-.57,0-.57s-.37.57,0,.57h0Z"/>
      <path class="cls-8" d="m61.13,224.29c.36,0,.37-.57,0-.57s-.37.57,0,.57h0Z"/>
      <path class="cls-8" d="m131.45,485.34c.33,0,.33-.52,0-.52s-.33.52,0,.52h0Z"/>
      <path class="cls-8" d="m269.58,483.11c.33,0,.33-.52,0-.52s-.33.52,0,.52h0Z"/>
      <path class="cls-8" d="m191.38,234.01c.36,0,.37-.57,0-.57s-.37.57,0,.57h0Z"/>
      <path class="cls-8" d="m337.25,216.99c.36,0,.37-.57,0-.57s-.37.57,0,.57h0Z"/>
      <path class="cls-8" d="m336.21,168.02c.36,0,.37-.57,0-.57s-.37.57,0,.57h0Z"/>
      <path class="cls-8" d="m303.21,77.37c.36,0,.37-.57,0-.57s-.37.57,0,.57h0Z"/>
      <path class="cls-8" d="m112.88,161.77c.36,0,.37-.57,0-.57s-.37.57,0,.57h0Z"/>
      <path class="cls-8" d="m100.58,470.07c.33,0,.33-.52,0-.52s-.33.52,0,.52h0Z"/>
      <path class="cls-8" d="m169.96,471.66c.33,0,.33-.52,0-.52s-.33.52,0,.52h0Z"/>
      <path class="cls-8" d="m299.49,480.57c.33,0,.33-.52,0-.52s-.33.52,0,.52h0Z"/>
      <path class="cls-8" d="m270.56,32.22c.36,0,.37-.57,0-.57s-.37.57,0,.57h0Z"/>
      <path class="cls-8" d="m14.94,32.92c.36,0,.37-.57,0-.57s-.37.57,0,.57h0Z"/>
      <path class="cls-8" d="m187.21,195.46c.36,0,.37-.57,0-.57s-.37.57,0,.57h0Z"/>
      <path class="cls-8" d="m145.18,85.01c.36,0,.37-.57,0-.57s-.37.57,0,.57h0Z"/>
      <path class="cls-8" d="m12.74,474.84c.33,0,.33-.52,0-.52s-.33.52,0,.52h0Z"/>
      <path class="cls-8" d="m90.31,213.17c.36,0,.37-.57,0-.57s-.37.57,0,.57h0Z"/>
      <path class="cls-8" d="m220.9,154.48c.36,0,.37-.57,0-.57s-.37.57,0,.57h0Z"/>
      <path class="cls-8" d="m201.45,43.33c.36,0,.37-.57,0-.57s-.37.57,0,.57h0Z"/>
      <path class="cls-8" d="m63.21,152.74c.36,0,.37-.57,0-.57s-.37.57,0,.57h0Z"/>
      <path class="cls-8" d="m229.48,478.98c.33,0,.33-.52,0-.52s-.33.52,0,.52h0Z"/>
      <path class="cls-8" d="m155.02,129.29c.36,0,.37-.57,0-.57s-.37.57,0,.57h0Z"/>
      <path class="cls-8" d="m283,182.83c.36,0,.37-.57,0-.57s-.37.57,0,.57h0Z"/>
      <path class="cls-8" d="m267.65,216.99c.36,0,.37-.57,0-.57s-.37.57,0,.57h0Z"/>
      <path class="cls-8" d="m23.56,106c.36,0,.37-.57,0-.57s-.37.57,0,.57h0Z"/>
      <path class="cls-8" d="m78.62,85.01c.36,0,.37-.57,0-.57s-.37.57,0,.57h0Z"/>
      <path class="cls-8" d="m45.32,62.69c.36,0,.37-.57,0-.57s-.37.57,0,.57h0Z"/>
      <path class="cls-8" d="m306.07,237.9c.36,0,.37-.57,0-.57s-.37.57,0,.57h0Z"/>
      <path class="cls-8" d="m259.17,126.02c.36,0,.37-.57,0-.57s-.37.57,0,.57h0Z"/>
      <path class="cls-8" d="m226.44,453.28c.33,0,.33-.52,0-.52s-.33.52,0,.52h0Z"/>
      <path class="cls-8" d="m232.5,197.2c.36,0,.37-.57,0-.57s-.37.57,0,.57h0Z"/>
      <path class="cls-8" d="m49.73,126.02c.36,0,.37-.57,0-.57s-.37.57,0,.57h0Z"/>
    </g>
    <g>
      <path class="cls-8" d="m14.66,369.56c.36,0,.37-.57,0-.57s-.37.57,0,.57h0Z"/>
      <path class="cls-8" d="m10.84,447.7c.36,0,.37-.57,0-.57s-.37.57,0,.57h0Z"/>
      <path class="cls-8" d="m156.71,238.27c.36,0,.37-.57,0-.57s-.37.57,0,.57h0Z"/>
      <path class="cls-8" d="m322.73,236.53c.36,0,.37-.57,0-.57s-.37.57,0,.57h0Z"/>
      <path class="cls-8" d="m133.79,395.26c.36,0,.37-.57,0-.57s-.37.57,0,.57h0Z"/>
      <path class="cls-8" d="m260.56,284.12c.36,0,.37-.57,0-.57s-.37.57,0,.57h0Z"/>
      <path class="cls-8" d="m186.93,311.55c.36,0,.37-.57,0-.57s-.37.57,0,.57h0Z"/>
      <path class="cls-8" d="m227.57,241.05c.36,0,.37-.57,0-.57s-.37.57,0,.57h0Z"/>
      <path class="cls-8" d="m306.75,330.66c.36,0,.37-.57,0-.57s-.37.57,0,.57h0Z"/>
      <path class="cls-8" d="m58.07,379.98c.36,0,.37-.57,0-.57s-.37.57,0,.57h0Z"/>
      <path class="cls-8" d="m119.28,323.64c.36,0,.37-.57,0-.57s-.37.57,0,.57h0Z"/>
      <path class="cls-8" d="m171.65,362.96c.36,0,.37-.57,0-.57s-.37.57,0,.57h0Z"/>
      <path class="cls-8" d="m106,236.88c.36,0,.37-.57,0-.57s-.37.57,0,.57h0Z"/>
      <path class="cls-8" d="m62.94,425.82c.36,0,.37-.57,0-.57s-.37.57,0,.57h0Z"/>
      <path class="cls-8" d="m193.18,435.55c.36,0,.37-.57,0-.57s-.37.57,0,.57h0Z"/>
      <path class="cls-8" d="m339.06,418.53c.36,0,.37-.57,0-.57s-.37.57,0,.57h0Z"/>
      <path class="cls-8" d="m338.01,369.56c.36,0,.37-.57,0-.57s-.37.57,0,.57h0Z"/>
      <path class="cls-8" d="m305.02,278.91c.36,0,.37-.57,0-.57s-.37.57,0,.57h0Z"/>
      <path class="cls-8" d="m114.69,363.3c.36,0,.37-.57,0-.57s-.37.57,0,.57h0Z"/>
      <path class="cls-8" d="m272.37,233.75c.36,0,.37-.57,0-.57s-.37.57,0,.57h0Z"/>
      <path class="cls-8" d="m16.74,234.45c.36,0,.37-.57,0-.57s-.37.57,0,.57h0Z"/>
      <path class="cls-8" d="m189.01,396.99c.36,0,.37-.57,0-.57s-.37.57,0,.57h0Z"/>
      <path class="cls-8" d="m146.99,286.55c.36,0,.37-.57,0-.57s-.37.57,0,.57h0Z"/>
      <path class="cls-8" d="m92.11,414.71c.36,0,.37-.57,0-.57s-.37.57,0,.57h0Z"/>
      <path class="cls-8" d="m222.7,356.01c.36,0,.37-.57,0-.57s-.37.57,0,.57h0Z"/>
      <path class="cls-8" d="m203.25,244.87c.36,0,.37-.57,0-.57s-.37.57,0,.57h0Z"/>
      <path class="cls-8" d="m65.02,354.27c.36,0,.37-.57,0-.57s-.37.57,0,.57h0Z"/>
      <path class="cls-8" d="m156.82,330.82c.36,0,.37-.57,0-.57s-.37.57,0,.57h0Z"/>
      <path class="cls-8" d="m284.8,384.37c.36,0,.37-.57,0-.57s-.37.57,0,.57h0Z"/>
      <path class="cls-8" d="m269.46,418.53c.36,0,.37-.57,0-.57s-.37.57,0,.57h0Z"/>
      <path class="cls-8" d="m25.36,307.53c.36,0,.37-.57,0-.57s-.37.57,0,.57h0Z"/>
      <path class="cls-8" d="m80.43,286.55c.36,0,.37-.57,0-.57s-.37.57,0,.57h0Z"/>
      <path class="cls-8" d="m47.13,264.22c.36,0,.37-.57,0-.57s-.37.57,0,.57h0Z"/>
      <path class="cls-8" d="m307.88,439.43c.36,0,.37-.57,0-.57s-.37.57,0,.57h0Z"/>
      <path class="cls-8" d="m260.97,327.56c.36,0,.37-.57,0-.57s-.37.57,0,.57h0Z"/>
      <path class="cls-8" d="m234.31,398.73c.36,0,.37-.57,0-.57s-.37.57,0,.57h0Z"/>
      <path class="cls-8" d="m51.53,327.56c.36,0,.37-.57,0-.57s-.37.57,0,.57h0Z"/>
    </g>
    <g>
      <path class="cls-8" d="m33.07,54.49c.36,0,.37-.57,0-.57s-.37.57,0,.57h0Z"/>
      <path class="cls-8" d="m87.06,282.53c.33,0,.33-.52,0-.52s-.33.52,0,.52h0Z"/>
      <path class="cls-8" d="m227.09,288.57c.33,0,.33-.52,0-.52s-.33.52,0,.52h0Z"/>
      <path class="cls-8" d="m156.02,2.05c.36,0,.37-.57,0-.57s-.37.57,0,.57h0Z"/>
      <path class="cls-8" d="m156.44,257.38c.33,0,.33-.52,0-.52s-.33.52,0,.52h0Z"/>
      <path class="cls-8" d="m85.17,32.61c.36,0,.37-.57,0-.57s-.37.57,0,.57h0Z"/>
      <path class="cls-8" d="m155.49,293.67c.33,0,.33-.52,0-.52s-.33.52,0,.52h0Z"/>
      <path class="cls-8" d="m293.61,291.44c.33,0,.33-.52,0-.52s-.33.52,0,.52h0Z"/>
      <path class="cls-8" d="m215.41,42.34c.36,0,.37-.57,0-.57s-.37.57,0,.57h0Z"/>
      <path class="cls-8" d="m124.62,278.39c.33,0,.33-.52,0-.52s-.33.52,0,.52h0Z"/>
      <path class="cls-8" d="m21.61,17.68c.36,0,.37-.57,0-.57s-.37.57,0,.57h0Z"/>
      <path class="cls-8" d="m194,279.98c.33,0,.33-.52,0-.52s-.33.52,0,.52h0Z"/>
      <path class="cls-8" d="m323.53,288.89c.33,0,.33-.52,0-.52s-.33.52,0,.52h0Z"/>
      <path class="cls-8" d="m211.24,3.78c.36,0,.37-.57,0-.57s-.37.57,0,.57h0Z"/>
      <path class="cls-8" d="m36.78,283.16c.33,0,.33-.52,0-.52s-.33.52,0,.52h0Z"/>
      <path class="cls-8" d="m114.34,21.5c.36,0,.37-.57,0-.57s-.37.57,0,.57h0Z"/>
      <path class="cls-8" d="m253.51,287.3c.33,0,.33-.52,0-.52s-.33.52,0,.52h0Z"/>
      <path class="cls-8" d="m291.69,25.32c.36,0,.37-.57,0-.57s-.37.57,0,.57h0Z"/>
      <path class="cls-8" d="m330.1,46.22c.36,0,.37-.57,0-.57s-.37.57,0,.57h0Z"/>
      <path class="cls-8" d="m250.47,261.61c.33,0,.33-.52,0-.52s-.33.52,0,.52h0Z"/>
      <path class="cls-8" d="m256.54,5.52c.36,0,.37-.57,0-.57s-.37.57,0,.57h0Z"/>
    </g>
  </g>
  <g id="Camada_3" data-name="Camada 3">
    <ellipse class="cls-15" cx="32.94" cy="91.26" rx="14.64" ry="13.08" transform="translate(-1.72 .64) rotate(-1.08)"/>
    <ellipse class="cls-15" cx="33.05" cy="91.32" rx="16.05" ry="14.23" transform="translate(-2.16 .81) rotate(-1.36)"/>
  </g>
  <g id="Camada_16" data-name="Camada 16">
    <path class="cls-11" d="m-3.11,437.62s72.5-20.96,176.03-20.96,173.77,20.06,173.77,20.06v51.83H-3.11v-50.94Z"/>
  </g>
  <g id="Camada_14" data-name="Camada 14">
    <path class="cls-10" d="m-3.11,444.66s80.23-20.2,176.03-20.2c108.27,0,173.77,20.2,173.77,20.2v43.9H-3.11v-43.9Z"/>
  </g>
  <g id="Camada_19" data-name="Camada 19">
    <path class="cls-9" d="m123.38,450.08c0,10.26-9.87,19.27-22.05,19.27s-22.05-8.31-22.05-18.57,11.91-18.54,24.09-18.54,20.01,7.58,20.01,17.84Z"/>
    <path class="cls-9" d="m249.29,459.08c-1.71,6.65-10.71,10.21-20.82,7.62-10.11-2.59-16.93-10.09-15.23-16.74s11.15-9.56,21.17-6.63c9.3,2.71,16.85,8.05,14.87,15.75Z"/>
    <path class="cls-9" d="m160.38,464.95c0,3.3-3,5.97-6.71,5.97s-7.11-2.31-6.93-5.85,3.23-6.09,6.93-6.09,6.71,2.67,6.71,5.97Z"/>
    <ellipse class="cls-9" cx="22.27" cy="481.77" rx="12.12" ry="9.15" transform="translate(-32.13 2.56) rotate(-3.83)"/>
  </g>
  <g id="Camada_15" data-name="Camada 15">
    <ellipse class="cls-12" cx="20.88" cy="481.99" rx="12.78" ry="9.09" transform="translate(-52.16 5.11) rotate(-6.23)"/>
    <ellipse class="cls-12" cx="100.58" cy="450.08" rx="21.48" ry="17.83" transform="translate(-48.23 13.57) rotate(-6.23)"/>
    <ellipse class="cls-12" cx="153.88" cy="465.22" rx="6.51" ry="5.68" transform="translate(-49.56 19.44) rotate(-6.23)"/>
    <ellipse class="cls-12" cx="231.92" cy="453.89" rx="11.78" ry="17.85" transform="translate(-265.33 565.9) rotate(-75.63)"/>
  </g>
  <g id="Camada_17" data-name="Camada 17">
    <path class="cls-17" d="m219.54,443.66s4.57-3.22,12.98-1.67c4.65.86,7.52,2.16,10.67,4.3,2.09,1.42,5.4,4.64,6.09,8.37.1.55-2.32-7-12.67-10.66-7.62-2.69-14.19-1.56-17.07-.35Z"/>
    <path class="cls-17" d="m81.55,458.72s-3.08-4.5-2.06-10.26c.82-4.65,3.18-9.03,8.37-12.37,2.57-1.66,7.03-4.18,15.52-3.84.56.02-10.83.36-17.88,7.59-5.07,5.2-6.53,12.78-3.94,18.89Z"/>
    <path class="cls-17" d="m153.1,470.89c1.3.14,2.96-.19,4.28-.97s2.23-1.95,2.64-2.98c.36-.91.44-1.81.31-2.63-.03-.21.3,2.5-2.04,4.55-2.56,2.24-5.37,2.01-5.18,2.03Z"/>
    <path class="cls-17" d="m10.11,487.45s-2.25-2.06-1.93-5.61c.24-2.69,1.87-4.51,4.15-6.16,1.76-1.27,4.67-2.43,6.56-2.59.55-.05-4.4,1.05-8.03,4.57-3.05,2.95-2.44,7.12-.76,9.8Z"/>
  </g>
  <g id="Camada_2" data-name="Camada 2">
    <ellipse class="cls-7" cx="32.95" cy="91.29" rx="12.88" ry="11.57" transform="translate(-1.33 .49) rotate(-.84)"/>
  </g>
  <g id="Camada_10" data-name="Camada 10">
    <g>
      <ellipse class="cls-15" cx="324.43" cy="133.25" rx="10.75" ry="9.84"/>
      <ellipse class="cls-15" cx="324.51" cy="133.3" rx="11.78" ry="10.71"/>
      <ellipse class="cls-16" cx="324.51" cy="133.3" rx="9.45" ry="8.71"/>
      <path class="cls-5" d="m317.97,132.88c3.75.61,5.5.6,6.9-.52,1.71-1.36,3.09-2.48,5.26-2.96,1.27-.28,2.75-.12,2.83,0,.34.48.73,1.84.75,1.89s-1.69.13-2.89.37c-.74.15-1.63.63-2.31,1.26-.63.59-1.56,1.77-3.61,2.47-2.46.85-5.03.42-7.67-.47-1.43-.48-2.14-.82-2.15-.91-.06-.36-.03-1.68.03-1.67s2.73.52,2.86.54Z"/>
      <path class="cls-5" d="m329.78,135.43c-2.3,1.86-3.65,2.98-5.27,2.84s-2.51-1.25-5.18-.74c-1.07.21-2.53.81-2.46.9.33.44,1.07,1.13,1.09,1.15.04.04,1.04-.37,1.95-.53.64-.11,1.65-.14,2.68.37.73.36,1.93,1.23,3.75,1.04,2.26-.23,2.82-1.46,4.45-2.82,1.39-1.16,2.46-1.04,2.5-1.11.32-.57.68-2.22.67-2.98-.16,0-2.25.31-4.17,1.88Z"/>
      <path class="cls-5" d="m316.1,129.32c-.16.31,2.27,1.16,3.96,1.01,2.03-.18,3.5-1.13,5.12-2.5,2.71-2.28,3.69-2.25,3.61-2.29-.28-.16-1.65-.69-2.58-.81-.16,0-.73-.21-2.04.89-2.26,1.91-4.91,2.73-6.96,2.15,0,0-.78.9-1.11,1.55Z"/>
    </g>
  </g>
  <g id="Camada_9" data-name="Camada 9">
    <path class="cls-3" d="m30.61,91.41c.21.56-.1,1.11-.35,1.19s-.33,1.34.21,1.57.12.97.93,1.11c.7.12.2.42,1.55.81s2,.31,2.32,1.06,1.44,1.43,1.38,1.96c-.08.78.52,1.21.46,1.69s.84-.34.75-.56-.12-1.65,0-2.44.64-1.35.64-1.96.68-1.29.46-2.38-.11-.94-.1-1.65-.39-.54-.99-.65c-.47-.09-.98-.21-1.16-.09s-.51.26-.82.24-.88-.22-1.34-.22-.78.39-1.44.46-.91-.2-1.43-.36-.54-.62-.48-1.15-.32-.82.77-1.23c.23-.09.75-.66.88-.36.09.2.41.64.54.56.15-.09.17-.14.1-.41-.03-.13.05-.6.07-.71.02-.14.38-.35.42-.42.12-.23.99-.77,1.24-1.95.12-.58.19-1.22-.09-1.5-.13-.13.01-.85.03-1.43.02-.7-.99-.78-1.57-.81-.28-.02-1.16.49-1.18.34-.02-.21.49-.8.39-1.05s-.16-.51-.08-.77c.15-.5,0-.62-1.13-.22s-1.6.03-2.78,1.07c-.56.49-1.49.78-2.17,1.27-.37.26-.72.53-.91.85-.15.26-.63.51-.73.69-.12.22-.08.53-.27.79-.14.19-.38.67-.51.95-.25.53-.9,1.68,0,1.49s1.34-.79,2-.45.47.42.47,1.04-.46,1.18.44,1.32,1.69.39,2.32.81-.06,1.04.29,1.02.66-.01.85.49Z"/>
    <path class="cls-3" d="m21.28,118.22c.1.03.14.18.19.2s.48-.1.58,0,.1-.05.15-.05.19,0,.18.09.25.23.34.2.34.08.43,0,.18-.17.25-.16.18,0,.13-.04-.17-.09-.28-.03-.42.15-.38.07-.02-.17-.1-.17-.13-.03-.26-.06-.23-.18-.38-.12-.13.12-.37.04-.25-.19-.38-.13-.2.11-.32.11-.26.1-.11.1.24-.08.35-.05Z"/>
  </g>
  <g id="Camada_13" data-name="Camada 13">
    <g>
      <ellipse class="cls-15" cx="319.27" cy="379.65" rx="8.49" ry="8.14"/>
      <ellipse class="cls-15" cx="319.32" cy="379.69" rx="9.31" ry="8.86"/>
      <ellipse class="cls-1" cx="319.32" cy="379.69" rx="7.47" ry="7.21"/>
      <path class="cls-13" d="m312.8,376.19c.26-.41,1.3.07,2.25.39s2.53.32,3.21.22.42.36-.29.68c-.87.39-2.61.52-3.61.08-.54-.23-1.74-.24-2.09-.22,0,0,.25-.71.53-1.15Z"/>
      <path class="cls-13" d="m326.66,378.3c-.1-.25-2.5-.17-3.74.14-2.22.55-3.14.92-5.2.66-1.21-.15-1.79.21-.55.77,1.32.59,2.87.7,5.86.26,3.28-.48,3.76-.15,3.77-.35.01-.39-.07-1.31-.14-1.48Z"/>
      <path class="cls-13" d="m312.22,381.91c.48-.12,1.89-.4,2.83-.06,1.43.52,3.76.15,4.44.05s-.48.86-1.43,1.1c-.83.21-2.37.19-3.37-.24-.54-.23-1.67.18-2.02.19-.03,0-.51-1.02-.44-1.04Z"/>
      <path class="cls-13" d="m322.85,382.22c-1.01-.02-1.43,1.2-.84,1.36s2.32,1.12,2.8.37.47-1.58-.07-1.84-1.41.11-1.89.11Z"/>
      <path class="cls-13" d="m322.57,374.79c.64.01.91-.89.53-1.01s-1.12-.49-1.56-.03c-.35.37-.51.92-.17,1.12s.89-.08,1.2-.08Z"/>
      <path class="cls-13" d="m322.37,375.87c.3-.28-.23-.73-.45-.62s-.84.14-.72.54.39.59.64.54.39-.33.53-.46Z"/>
      <path class="cls-13" d="m322.29,384.88c.3-.28-.23-.73-.45-.62s-.84.14-.72.54.39.59.64.54.39-.33.53-.46Z"/>
      <path class="cls-13" d="m317.19,385.11c-.23-.22-.67.09-.67.25s-.01.47.27.5.54-.15.58-.31-.09-.35-.18-.44Z"/>
    </g>
    <g>
      <path class="cls-21" d="m30.73,329.6c-1.28.83-3.56,2.29-3.78,4.17-.19,1.64-1.25,3.17-1.89,3.29-.1.02.87.73,3.02-.75.37-.26-1.82,1.21-2.09,3.47-.1.82.2,2.51,1.13,3.82.05.06-.26-2.02.64-3.57.4-.7,1-1.57,1.79-2.18.03-.02.43,1.14-.78,2.2-.16.14,3.07-.52,2.87-3.22-.1-1.25,2.1-2.67,1.24-5.34-.58-1.79-.76-2.54-1.03-2.52s-1.11.63-1.11.63Z"/>
      <g>
        <ellipse class="cls-18" cx="32.99" cy="328.98" rx="3.2" ry="5.84" transform="translate(-275.88 211.03) rotate(-63.37)"/>
        <path class="cls-2" d="m42.95,334.44c-.11-.18-4.4-3.97-4.55-4.11s-3.19-.97-5.12-1.91c-2.21-1.08-4.28-2.42-4.68-2.87-.05-.06-5.22-.73-5.38-.75-.07,0-.1.04-.11.09-.02.09,0,.19.08.26.76.75,2.96,4.59,8.3,7.19,5.08,2.48,11.33,2.48,11.42,2.47s.13-.23.05-.37Z"/>
        <path class="cls-23" d="m34.09,333.38s.02,0,.03-.01l1.88-1.39s.04-.07.02-.1c-.02-.03-.07-.04-.1-.02l-1.88,1.39s-.04.07-.02.1c.02.02.05.03.08.03Z"/>
        <path class="cls-23" d="m29.04,328.14s.02,0,.03-.01l1.48-1.1s.04-.07.01-.1c-.02-.03-.07-.04-.1-.02l-1.48,1.1s-.04.07-.01.1c.02.02.05.03.08.03Z"/>
        <path class="cls-23" d="m36.14,331.67s.06-.04.05-.08l-.26-2.09s-.04-.07-.08-.06c-.04,0-.07.04-.06.08l.26,2.09s.04.07.08.06c0,0,0,0,0,0Z"/>
        <path class="cls-23" d="m28.8,330.74s.05-.03.05-.07l.07-2.26s-.03-.07-.07-.07c-.04,0-.07.03-.07.07l-.07,2.26s.03.07.07.07c0,0,.01,0,.02,0Z"/>
        <path class="cls-18" d="m42.95,334.44c-1.48-.52-8.18-3.41-10.27-4.41-1.93-.92-9.05-5-9.37-5.2-.14-.09-.24-.03-.26.02-.04.08.02.17.1.22.25.16,6.4,3.85,9.35,5.29,2.89,1.41,10.23,4.41,10.4,4.45.08.02.18-.03.2-.11.04-.14-.09-.24-.15-.26Z"/>
      </g>
    </g>
  </g>
  <g id="LOGO">
    <g>
      <path class="cls-8" d="m344.04,414.71h2.65v73.85h-76.49c0-40.76,33.09-73.85,73.85-73.85Z"/>
      <g>
        <path class="cls-14" d="m299.55,452.67s-.05-.04-.03-.07c7.85-13.81,28.22-13.89,36.07.04.02.03,0,.05-.03.06-.4.1-.78.26-1.13.48-.03.02-.06.01-.08-.02-7.32-12.77-26.08-12.88-33.55-.11-.02.03-.04.04-.08.02-.38-.18-.77-.32-1.18-.4h0Z"/>
        <path class="cls-14" d="m323.12,452.79c0,3.04-2.55,5.51-5.7,5.51s-5.7-2.47-5.7-5.51,2.55-5.51,5.7-5.51,5.7,2.47,5.7,5.51m-1.35,0c0-2.32-1.95-4.2-4.35-4.2s-4.35,1.88-4.35,4.2,1.95,4.2,4.35,4.2,4.35-1.88,4.35-4.2h0Z"/>
        <path class="cls-4" d="m321.77,452.8c0,2.32-1.95,4.2-4.35,4.2s-4.35-1.88-4.35-4.2,1.95-4.2,4.35-4.2,4.35,1.88,4.35,4.2h0Z"/>
        <path class="cls-14" d="m318.49,463.09l8.45,12.23s.06.05.11.04c1.02-.32,1.96-.16,2.82.48,1.16.87,1.39,2.58.59,3.74-1.29,1.87-4.14,1.66-5.12-.38-.5-1.05-.35-2.08.47-3.08.02-.03.02-.05,0-.08l-8.45-12.21s-.05-.02-.07,0l-8.31,12.21s-.01.05,0,.07c.69.76.92,1.61.7,2.56-.38,1.66-2.29,2.64-3.92,2.01-1.94-.76-2.51-3.04-1.11-4.56.77-.84,1.81-1.1,3.13-.78.03,0,.06,0,.08-.03l8.28-12.18s.01-.04-.02-.04c-5.5-.31-10.83-1.83-15.83-4.12-.03-.01-.06-.01-.09,0-.32.19-.65.33-1,.41-1.84.46-3.68-.96-3.62-2.8.05-1.69,1.46-2.89,3.19-2.76,2.09.15,3.22,2.22,2.4,4.03-.01.03,0,.05.03.06,4.37,1.97,9.12,3.4,13.94,3.79,6.32.5,13.09-1.43,18.77-3.98.03-.01.04-.03.03-.06-.9-2.32,1.35-4.62,3.8-3.7,1.97.74,2.45,3.16,1.04,4.61-1.02,1.05-2.74,1.13-3.94.24-.02-.02-.06-.02-.09,0-5.14,2.36-10.64,3.95-16.25,4.26-.03,0-.04.02-.02.04m19.77-6.51c0-.85-.71-1.53-1.59-1.53s-1.59.69-1.59,1.53.71,1.53,1.59,1.53,1.59-.69,1.59-1.53m-38.15.04c0-.85-.71-1.53-1.59-1.53s-1.59.69-1.59,1.53.71,1.53,1.59,1.53,1.59-.69,1.59-1.53m8.3,21.4c0-.84-.71-1.53-1.58-1.53s-1.58.68-1.58,1.53.71,1.53,1.58,1.53,1.58-.68,1.58-1.53m21.17,0c0-.84-.71-1.53-1.58-1.53s-1.58.68-1.58,1.53.71,1.53,1.58,1.53,1.58-.68,1.58-1.53h0Z"/>
        <path class="cls-4" d="m338.27,456.58c0,.85-.71,1.53-1.59,1.53s-1.59-.69-1.59-1.53.71-1.53,1.59-1.53,1.59.69,1.59,1.53h0Z"/>
        <path class="cls-4" d="m300.12,456.62c0,.85-.71,1.53-1.59,1.53s-1.59-.69-1.59-1.53.71-1.53,1.59-1.53,1.59.69,1.59,1.53h0Z"/>
        <path class="cls-14" d="m303.12,476c-4.19-4.17-6.52-9.75-5.98-15.57,0-.02.01-.03.04-.03l1.27.29s.03.02.03.04c-.43,5.38,1.71,10.43,5.53,14.26.02.02.02.05,0,.07-.3.27-.56.58-.78.93-.03.05-.07.05-.11.01h0Z"/>
        <path class="cls-14" d="m330.98,475.17s-.03-.06,0-.08c3.75-3.62,5.92-8.65,5.68-13.81-.01-.29-.02-.5-.02-.62,0-.04.02-.06.07-.06.4.01.8-.04,1.18-.15.04-.01.08.02.08.05.44,5.88-1.79,11.46-6.13,15.62-.04.04-.1.03-.12-.02-.19-.35-.43-.66-.73-.93h0Z"/>
        <path class="cls-4" d="m308.42,478.03c0,.84-.71,1.53-1.58,1.53s-1.58-.68-1.58-1.53.71-1.53,1.58-1.53,1.58.68,1.58,1.53h0Z"/>
        <path class="cls-4" d="m329.59,478.02c0,.84-.71,1.53-1.58,1.53s-1.58-.68-1.58-1.53.71-1.53,1.58-1.53,1.58.68,1.58,1.53h0Z"/>
        <path class="cls-14" d="m324.64,480.5c-4.61,1.64-9.76,1.63-14.36-.07-.02,0-.03-.02-.02-.05l.57-1.08s.04-.04.07-.03c4.36,1.5,8.73,1.52,13.12.06.04-.01.06,0,.08.04.15.37.34.72.57,1.05.02.03.02.06-.02.07h0Z"/>
      </g>
      <g>
        <path class="cls-6" d="m303.2,444.17c.09.08.13.19.12.32,0,.13-.06.23-.15.32-.06.06-.13.1-.22.12-.09.02-.18.01-.28-.03l-1.1-.41-2.01,1.93.42,1.07c.04.1.05.18.03.27-.02.08-.06.15-.13.22-.09.08-.2.13-.33.14-.13.01-.24-.03-.33-.11-.05-.05-.09-.11-.11-.18l-1.8-4.78c-.04-.11-.05-.21-.02-.32.03-.11.09-.2.17-.27s.17-.13.28-.16c.11-.03.22-.02.33.02l4.95,1.74c.07.03.13.06.18.11Zm-2.45.01l-2.44-.91.94,2.36,1.5-1.45Z"/>
        <path class="cls-6" d="m304.57,443.53c-.47.02-.92-.1-1.34-.35-.42-.25-.78-.61-1.1-1.1-.31-.48-.49-.96-.53-1.43-.04-.47.05-.91.27-1.31.22-.4.57-.74,1.03-1.02.3-.18.61-.31.93-.38.32-.07.63-.09.94-.05.09,0,.16.03.21.06.05.03.1.09.15.16.06.1.09.19.08.29-.01.1-.06.17-.13.22-.09.05-.2.08-.34.08-.29-.02-.53-.01-.74.03-.2.05-.41.13-.61.25-.47.28-.74.64-.8,1.08-.06.43.09.93.45,1.48.36.56.75.91,1.18,1.05.43.14.88.07,1.35-.22.2-.12.36-.25.49-.41.13-.16.26-.37.38-.63.03-.05.06-.1.09-.15.03-.04.08-.08.13-.11.08-.05.16-.05.26-.02.1.03.18.1.24.19.04.07.07.13.08.2,0,.06,0,.14-.03.22-.1.29-.26.55-.46.8-.21.24-.46.46-.76.64-.46.28-.93.43-1.41.44Z"/>
        <path class="cls-6" d="m308.33,441.64c-.11-.05-.19-.14-.25-.29l-1.58-4.26c-.05-.14-.05-.27,0-.37.05-.11.15-.19.3-.24l2.74-.95c.15-.05.27-.06.38-.02.1.04.18.11.22.23.05.12.04.23-.02.32-.06.09-.16.17-.3.22l-2.25.78.53,1.42,2.1-.73c.15-.05.27-.06.38-.02.1.04.18.11.22.24.04.12.04.22-.02.31s-.16.16-.31.21l-2.1.73.56,1.51,2.25-.78c.15-.05.27-.06.38-.02.11.04.18.12.23.24.04.12.04.22-.02.31-.06.09-.16.16-.31.21l-2.74.95c-.15.05-.28.05-.39,0Z"/>
        <path class="cls-6" d="m313.18,440.23c-.38-.05-.7-.16-.95-.3-.14-.07-.21-.18-.24-.34-.02-.11,0-.21.06-.29.05-.09.13-.14.22-.15.1-.01.21,0,.34.06.25.13.51.21.77.25.26.04.54.04.84,0,.39-.05.68-.16.86-.32.19-.16.26-.36.23-.62-.03-.19-.15-.33-.36-.41-.21-.08-.55-.13-1.01-.17-.48-.03-.88-.09-1.19-.18-.31-.09-.56-.22-.73-.4-.18-.18-.29-.42-.34-.73-.05-.32,0-.62.15-.89.15-.28.38-.51.69-.7.31-.19.67-.31,1.09-.37.76-.1,1.41,0,1.94.33.08.05.13.1.17.14.04.05.06.12.07.2.02.11,0,.21-.06.29-.05.09-.13.14-.22.15-.05,0-.1,0-.15,0-.05,0-.11-.03-.19-.06-.24-.12-.47-.21-.68-.25-.22-.05-.47-.05-.77,0-.36.05-.64.16-.83.33-.19.17-.26.38-.23.63.03.21.15.36.35.45.2.09.53.15,1,.18.49.04.89.1,1.2.18.31.09.56.21.75.39.19.17.3.41.34.7.05.32,0,.61-.15.88-.15.27-.38.49-.69.68-.31.18-.68.3-1.11.36-.41.06-.8.06-1.18,0Z"/>
        <path class="cls-6" d="m318.03,439.83c-.36-.13-.65-.29-.87-.49-.12-.1-.17-.22-.16-.38,0-.11.05-.2.12-.28.07-.08.15-.11.25-.1.1,0,.2.05.32.13.22.18.45.31.7.4.25.09.52.14.83.16.39.03.7-.02.91-.14.22-.12.34-.3.35-.56.01-.2-.07-.35-.26-.47-.19-.12-.51-.24-.95-.37-.46-.13-.84-.27-1.12-.42-.29-.15-.5-.33-.63-.54-.14-.21-.19-.47-.17-.78.02-.32.14-.6.34-.84.21-.24.48-.42.82-.54.34-.12.73-.17,1.14-.14.77.05,1.38.29,1.83.71.07.06.11.12.14.18.03.06.04.13.03.21,0,.11-.05.2-.12.28s-.15.11-.25.1c-.05,0-.1-.01-.15-.03-.04-.02-.1-.05-.17-.1-.21-.17-.41-.3-.61-.39-.2-.09-.45-.14-.75-.16-.36-.02-.66.03-.88.16-.22.13-.34.32-.36.57-.01.21.07.38.25.51.18.13.49.25.93.38.47.13.85.28,1.14.42.29.15.5.32.65.53s.21.46.18.75c-.02.32-.13.6-.34.83-.2.23-.48.41-.82.52-.34.11-.73.16-1.17.13-.41-.03-.8-.11-1.16-.24Z"/>
        <path class="cls-6" d="m322.28,440.31c-.07-.11-.09-.24-.05-.39l1.04-4.45c.03-.15.11-.25.22-.32.11-.07.24-.09.4-.05.16.03.27.11.34.21.07.11.09.24.06.38l-1.04,4.45c-.03.15-.11.26-.22.33-.11.07-.25.09-.4.06-.15-.03-.26-.1-.33-.22Zm1.69-5.59c-.07-.01-.12-.05-.16-.1-.04-.05-.05-.11-.04-.16.01-.06.05-.1.13-.15l.88-.56c.12-.08.25-.11.37-.08.1.02.19.08.25.17.06.09.08.18.05.28-.02.07-.05.12-.11.18-.06.05-.14.09-.24.12l-1,.31s-.09.01-.13,0Z"/>
        <path class="cls-6" d="m330.52,437.29c.12.05.22.13.29.25.07.12.08.23.03.35-.02.05-.06.11-.12.16l-3.88,3.47c-.08.07-.18.12-.29.13-.11.01-.22,0-.33-.04-.1-.04-.19-.11-.26-.19-.07-.09-.11-.18-.12-.29l-.24-5.1c0-.08,0-.14.03-.19.05-.12.14-.2.28-.23.13-.04.27-.03.4.02.08.03.15.08.21.15.05.07.08.15.09.25l.16,4.35,3.27-3c.15-.13.31-.16.5-.09Z"/>
        <path class="cls-6" d="m329.31,442.85c-.02-.12,0-.24.1-.36l2.67-3.73c.09-.12.19-.2.32-.21.12-.02.25.01.37.1l2.39,1.6c.13.09.21.18.24.28.03.1,0,.21-.06.31-.08.11-.17.16-.28.18-.11.01-.23-.03-.36-.11l-1.97-1.31-.89,1.24,1.83,1.23c.13.09.21.18.24.28.03.1,0,.21-.07.31-.07.1-.17.16-.28.17-.11,0-.23-.03-.36-.12l-1.83-1.23-.94,1.32,1.97,1.31c.13.09.21.18.24.29.03.1,0,.21-.07.32-.07.1-.17.16-.28.17-.11,0-.23-.03-.36-.12l-2.39-1.6c-.13-.09-.2-.19-.23-.3Z"/>
        <path class="cls-6" d="m332.93,445.43c0-.12.06-.23.16-.33l3.37-3.19c.11-.11.23-.16.37-.16.13,0,.25.06.36.16.11.11.17.23.17.36,0,.13-.06.24-.17.35l-3.1,2.94,1.58,1.56c.23.22.24.43.03.62s-.42.18-.64-.04l-1.97-1.94c-.11-.11-.16-.22-.16-.34Z"/>
      </g>
    </g>
  </g>
  <g id="TITULO">
    <g>
      <path class="cls-22" d="m89.74,154.88c-12.4,1.76-24.64,7.44-36.66,10.08-6.97,1.53-14.68,2.86-19.82,8.25-5.51,5.79-7.37,14.6-7.85,22.31-.4,6.44.19,13.34,4.07,18.49,4.48,5.95,7.39,9.21,6.33,17.08-1.07,7.9-5.39,15.46-4.01,23.62,1.95,11.51,11.71,16.82,21.96,18.88,14.54,2.92,21.48,15.83,34.78,19.94,19.91,6.15,39.09-12.48,59.49-7.37,14.42,3.61,27.73,11.05,42.54,13.2,16.26,2.35,33.91.26,47.84-9.47,15.33-10.71,29.82-14.67,48.59-10.68,10.19,2.16,20.66-5.29,26.31-13.27,4.08-5.77,6.57-13.15,6.38-20.26-.22-8.12-7.92-13.14-9.3-21.22-1.79-10.53,3.84-21.19,4.66-31.71,2.32-29.52-37-24.1-54.15-29.06-6.46-1.87-11.67-5.42-17.72-8-10.98-4.68-32.06-6.4-42.99-.83-8.48,4.33-17.01,8.5-26.21,11.08-11.48,3.22-23.98,3.94-35.21-.08-6.95-2.49-13.15-6.69-19.94-9.59-9.46-4.05-19.22-2.79-29.08-1.39Z"/>
      <g>
        <g>
          <path class="cls-8" d="m73.51,189.1l.44,8.75c.02.35-.24.65-.59.69l-9.19.99c-.36.04-.62.35-.59.71h0c.03.39.4.67.79.59l4.4-.89c.4-.08.77.21.79.62l.22,5.29c.02.42-.35.74-.76.68l-4.29-.7c-.41-.07-.78.26-.76.67l.03.9c.01.37.33.66.71.63l8.8-.66c.33-.02.63.2.7.53l1.48,7.5c.08.4-.22.77-.62.79l-19.84.67c-.39.01-.71-.32-.68-.71l2.03-24.09c.02-.29.24-.54.53-.59l15.63-2.97c.39-.07.76.21.78.61Z"/>
          <path class="cls-8" d="m77.91,193.33c1.3-2.03,4.08-3.04,8.35-3.04,1.86,0,4.01.19,6.43.58.85.13,1.37,1,1.11,1.82l-1.43,4.37c-.23.7-.97,1.11-1.69.92-1.84-.49-3.27-.73-4.31-.73-1.2,0-1.87.32-2.02.97-.02.08-.03.16-.03.24,0,1.23,2.36,2.26,7.09,3.07,4.9.86,7.36,3.09,7.36,6.67v.4c0,2.51-.91,4.85-2.72,7.01-1.81,2.17-5.36,3.3-10.65,3.4-1.73,0-3.66-.14-5.77-.41-1.36-.18-2.18-1.61-1.65-2.88l1.83-4.39c.26-.63.94-.97,1.6-.82,1.32.29,2.49.43,3.51.43.48,0,1.21-.08,2.2-.23.99-.15,1.62-.61,1.9-1.39.07-.19.1-.38.1-.55,0-1.22-1.65-2.12-4.96-2.71-3.3-.59-5.67-2.07-7.11-4.46-.6-1.01-.91-2.07-.91-3.19,0-1.57.58-3.26,1.75-5.07Z"/>
          <path class="cls-8" d="m120.15,215.48c-.09-.15-.28-.22-.45-.16-1.63.57-3.41.85-5.32.85-3.93,0-7.29-1.2-10.09-3.6-2.79-2.4-4.19-5.32-4.19-8.74s1.4-6.34,4.19-8.74c2.79-2.4,6.16-3.6,10.09-3.6s7.28,1.2,10.07,3.6c2.79,2.4,4.19,5.32,4.19,8.74,0,3.03-1.09,5.67-3.27,7.89-.17.17-.15.44.05.58l3.12,2.17c.88.61.89,1.92.01,2.54l-3.86,2.74c-.74.52-1.76.31-2.23-.46l-2.32-3.82Zm-2.97-9.14c1.02-.88,1.54-1.92,1.54-3.13s-.51-2.25-1.54-3.13c-1.02-.88-2.27-1.32-3.74-1.32s-2.73.44-3.75,1.32c-1.02.88-1.54,1.92-1.54,3.13s.51,2.25,1.54,3.13c1.02.88,2.28,1.32,3.75,1.32s2.71-.44,3.74-1.32Z"/>
          <path class="cls-8" d="m134.92,193.01l5.15,1.01c1.42.28,2.29,1.71,1.9,3.09-.87,3.05-1.31,5.48-1.31,7.27,0,2.55.87,3.85,2.62,3.9,2.78-.02,4.17-2.21,4.17-6.55,0-1.52-.17-3.31-.51-5.36-.2-1.22.51-2.4,1.68-2.77l4.48-1.42c1.47-.46,3.01.52,3.19,2.05.24,2.04.36,3.95.36,5.71,0,10.72-4.46,16.13-13.39,16.24-8.21-.08-12.31-4.31-12.31-12.7,0-2.49.36-5.35,1.09-8.58.29-1.3,1.57-2.14,2.88-1.89Z"/>
          <path class="cls-8" d="m164.51,212.43l-.9,3.13c-.19.67-.93,1.03-1.58.77l-5.24-2.11c-.62-.25-.91-.96-.64-1.56l9.01-20.83c.17-.4.55-.67.98-.71l5.05-.43c.48-.04.94.22,1.16.65,5.54,11.02,8.9,17.76,10.06,20.21.27.58.04,1.26-.53,1.56l-5.99,3.08c-.65.33-1.45,0-1.67-.7l-1.25-3.97c-.06-.19-.25-.32-.45-.29l-7.66.92c-.17.02-.31.14-.36.3Zm6.4-7.51l-1.96-6.22c-.08-.25-.43-.24-.5,0l-2.22,7.7c-.05.17.11.32.28.26l4.26-1.49c.11-.04.17-.16.14-.27Z"/>
          <path class="cls-8" d="m184.33,214.5l-.96-21.17c-.05-1,.77-1.84,1.77-1.82,14.84.31,22.27,4.42,22.27,12.33,0,7.92-7.1,12.03-21.29,12.33-.95.02-1.74-.72-1.78-1.66Zm7.3-15.6l.96,8.23h.12c4.04,0,6.06-1.37,6.06-4.12s-2.38-4.12-7.14-4.12Z"/>
          <path class="cls-8" d="m219.03,215.21l-7.19,1.65c-.95.22-1.86-.5-1.87-1.47l-.19-23.05c0-.84.67-1.54,1.52-1.54,0,0,.01,0,.02,0,14.18,0,21.65,2.42,22.42,7.26.08.5.12.99.12,1.46,0,4.05-3.08,6.6-9.25,7.66-.11.02-.13.17-.02.21l8.09,3.1c1.02.39,1.31,1.69.56,2.48l-4.67,4.9c-.6.63-1.6.63-2.2,0l-6.37-6.64c-.07-.08-.2-.01-.18.09l.39,2.12c.15.8-.36,1.58-1.16,1.76Zm-1.06-18.2c-.09,0-.16.07-.15.16l.54,4.67h.5c4.6,0,6.9-.76,6.9-2.27,0-.02-.01-.43-.03-1.23-.02-.79-2.61-1.24-7.76-1.33Z"/>
          <path class="cls-8" d="m244.03,212.44l-.94,3.27c-.17.59-.82.91-1.39.68l-5.51-2.22c-.54-.22-.8-.84-.57-1.38l9.1-21.04c.15-.35.49-.59.87-.63l5.23-.44c.42-.04.83.19,1.02.57,5.67,11.26,9.05,18.07,10.16,20.42.24.51.03,1.11-.47,1.37l-6.26,3.22c-.58.3-1.28,0-1.47-.61l-1.3-4.13c-.06-.2-.25-.32-.46-.3l-7.65.92c-.17.02-.31.14-.36.31Zm1.39-22.5l-1.48-4.3c1.79-1.41,3.28-2.12,4.47-2.12.57,0,1.06.1,1.46.29.34.13.69.2,1.08.2,1.1,0,2.44-.58,4.01-1.75l1.09,5.29c-1.85,1.05-3.37,1.58-4.55,1.58-.56,0-1.05-.12-1.46-.35-.57-.32-1.21-.49-1.91-.49-.86,0-1.76.55-2.7,1.65Zm5.02,15.01l-2.06-6.54c-.05-.16-.27-.15-.32,0l-2.32,8.05c-.04.15.1.28.25.23l4.33-1.51c.1-.03.15-.14.12-.24Z"/>
          <path class="cls-8" d="m276.2,216.18c-3.93,0-7.29-1.2-10.09-3.6-2.79-2.4-4.19-5.32-4.19-8.74s1.4-6.34,4.19-8.74c2.79-2.4,6.16-3.6,10.09-3.6s7.28,1.2,10.07,3.6c2.79,2.4,4.19,5.32,4.19,8.74s-1.4,6.34-4.19,8.74c-2.79,2.4-6.15,3.6-10.07,3.6Zm2.8-9.84c1.02-.88,1.54-1.92,1.54-3.13s-.51-2.25-1.54-3.13c-1.02-.88-2.27-1.32-3.74-1.32s-2.73.44-3.75,1.32c-1.02.88-1.54,1.92-1.54,3.13s.51,2.25,1.54,3.13c1.02.88,2.28,1.32,3.75,1.32s2.71-.44,3.74-1.32Z"/>
        </g>
        <g>
          <path class="cls-8" d="m102.67,224.27l.44,8.75c.02.35-.24.65-.59.69l-9.19.99c-.36.04-.62.35-.59.71h0c.03.39.4.67.79.59l4.4-.89c.4-.08.77.21.79.62l.22,5.29c.02.42-.35.74-.76.68l-4.29-.7c-.41-.07-.78.26-.76.67l.03.9c.01.37.33.66.71.63l8.8-.66c.33-.02.63.2.7.53l1.48,7.5c.08.4-.22.77-.62.79l-19.84.67c-.39.01-.71-.32-.68-.71l2.03-24.09c.02-.29.24-.54.53-.59l15.63-2.97c.39-.07.76.21.78.61Z"/>
          <path class="cls-8" d="m107.07,228.5c1.3-2.03,4.08-3.04,8.35-3.04,1.76,0,3.77.17,6.04.52,1.05.16,1.71,1.22,1.38,2.23l-1.22,3.73c-.28.86-1.19,1.35-2.07,1.13-1.7-.44-3.04-.66-4.02-.66-1.2,0-1.87.32-2.02.97-.02.08-.03.16-.03.24,0,1.23,2.36,2.26,7.09,3.07,4.9.86,7.36,3.09,7.36,6.67v.4c0,2.51-.91,4.85-2.72,7.01-1.81,2.17-5.36,3.3-10.65,3.4-1.86,0-3.95-.16-6.25-.48-1.12-.16-1.79-1.32-1.35-2.36l1.92-4.6c.31-.75,1.12-1.19,1.92-1.02,1.23.26,2.33.38,3.3.38.48,0,1.21-.08,2.2-.23.99-.15,1.62-.61,1.9-1.39.07-.19.1-.38.1-.55,0-1.22-1.65-2.12-4.96-2.71-3.3-.59-5.67-2.07-7.11-4.46-.6-1.01-.91-2.07-.91-3.19,0-1.57.58-3.26,1.75-5.07Z"/>
          <path class="cls-8" d="m139.82,244.58l.89,3.28c.24.87-.31,1.76-1.2,1.93l-6.69,1.33c-.92.18-1.78-.48-1.85-1.41l-1.51-20.5c-.06-.81.52-1.54,1.33-1.65,3.28-.48,6.21-.72,8.79-.72,8.99,0,13.81,2.88,14.47,8.65,0,.08.01.16.01.24-.06,5.9-4.76,8.85-14.09,8.85h-.15Zm-2.71-11.22l1.27,4.32c.04.14.17.23.31.23,4.65-.03,6.98-.93,6.98-2.7,0-.07,0-.14-.02-.22-.16-1.48-1.87-2.22-5.14-2.22-.92,0-1.96.06-3.12.18-.2.02-.34.22-.28.41Z"/>
          <path class="cls-8" d="m160.22,247.61l-.8,2.78c-.25.86-1.18,1.31-2.01.98l-4.6-1.85c-.79-.32-1.16-1.22-.82-2l8.81-20.35c.22-.51.7-.86,1.26-.9l4.64-.39c.61-.05,1.2.28,1.47.83,5.28,10.5,8.56,17.08,9.83,19.73.35.74.05,1.61-.67,1.99l-5.37,2.76c-.83.43-1.84,0-2.13-.89l-1.14-3.6c-.06-.2-.25-.32-.46-.3l-7.65.92c-.17.02-.31.14-.36.31Zm6.41-7.48l-2.13-6.74c-.03-.1-.17-.1-.2,0l-2.38,8.27c-.04.14.09.27.23.22l4.37-1.53c.09-.03.14-.13.11-.22Z"/>
          <path class="cls-8" d="m202.54,246.72c.21.34.11.79-.23.99-4.08,2.42-7.84,3.64-11.29,3.64-3.63,0-6.72-1.3-9.28-3.91-2.56-2.61-3.84-5.76-3.84-9.44s1.28-6.83,3.84-9.43c2.56-2.6,5.65-3.91,9.28-3.91s6.71,1.3,9.27,3.91c1.12,1.13,2.06,2.53,2.82,4.18.18.4-.02.86-.44.98l-7.19,2.14c-.35.1-.72-.08-.86-.42-.3-.76-.68-1.37-1.13-1.83-.94-.95-2.07-1.43-3.38-1.43-1.21,0-2.26.41-3.16,1.23-1.09,1-1.69,2.46-1.62,3.94.06,1.23.53,2.28,1.4,3.18.94.96,2.07,1.44,3.38,1.44.15.01.29.02.44.02,1.93,0,4.12-.81,6.58-2.44.33-.22.77-.12.98.22l4.43,6.95Z"/>
          <path class="cls-8" d="m212.47,233.48c-.96.38-1.91.57-2.84.57-.64,0-1.49-.16-2.55-.47-1.06-.31-1.84-1.11-2.33-2.39-.19-.49-.29-1-.29-1.51,0-.8.32-1.74.97-2.83.64-1.09,1.78-1.96,3.42-2.6.96-.38,1.91-.57,2.84-.57.64,0,1.49.16,2.54.47,1.06.31,1.84,1.11,2.34,2.39.19.49.29.99.29,1.49,0,.81-.32,1.76-.97,2.85-.64,1.09-1.78,1.96-3.42,2.6Zm1.5,2.47l1.59,14.1c.03.27-.15.52-.42.57l-9.62,1.81c-.33.06-.63-.2-.62-.53l.52-15.3c0-.26.21-.48.48-.5l7.52-.61c.28-.02.53.18.56.46Z"/>
          <path class="cls-8" d="m225.59,247.33l-.96,3.31c-.21.72-.99,1.1-1.69.82l-5.08-2.05c-.66-.27-.97-1.02-.69-1.67l8.96-20.71c.18-.43.59-.72,1.05-.76l4.95-.42c.51-.04,1.01.23,1.24.69,5.48,10.89,8.81,17.58,10,20.09.29.62.04,1.35-.57,1.66l-5.84,3c-.7.36-1.55,0-1.78-.74l-1.33-4.21-8.28.99Zm6.38-7.04l-2.28-7.24-2.57,8.94,4.85-1.7Z"/>
          <path class="cls-8" d="m247.38,226.34l7.26.38c.63.03,1.1.58,1.04,1.21l-1.34,13.93c-.02.24.17.44.41.43l5.41-.21c.72-.03,1.27.63,1.13,1.33l-1.65,7.95c-.11.54-.61.92-1.16.88l-12.34-.85c-.6-.04-1.06-.56-1.03-1.16l1.1-22.84c.03-.61.55-1.08,1.16-1.05Z"/>
        </g>
        <g>
          <g>
            <path class="cls-8" d="m95.68,269.17c-.11-.11-.17-.26-.17-.45v-5.57c0-.18.05-.33.16-.43.1-.1.25-.15.43-.15h2.34c.72,0,1.27.18,1.67.54.4.36.6.86.6,1.51s-.2,1.15-.6,1.51c-.4.36-.96.54-1.67.54h-1.7v2.05c0,.19-.06.34-.17.45-.11.11-.26.17-.45.17s-.33-.06-.44-.17Zm2.61-3.44c.84,0,1.27-.37,1.27-1.1s-.42-1.1-1.27-1.1h-1.55v2.21h1.55Z"/>
            <path class="cls-8" d="m107.27,268.84c0,.15-.06.27-.18.36-.12.1-.26.14-.41.14-.1,0-.2-.02-.29-.07-.09-.05-.17-.12-.23-.21l-1.27-1.92c-.13-.2-.26-.35-.4-.43-.14-.08-.33-.12-.56-.12h-.93v2.13c0,.19-.05.34-.16.45-.11.11-.25.17-.44.17s-.33-.06-.44-.17c-.11-.11-.17-.26-.17-.45v-5.57c0-.18.05-.33.16-.43.1-.1.25-.15.43-.15h2.38c.76,0,1.34.17,1.74.51.4.34.59.83.59,1.47,0,.52-.15.95-.44,1.28s-.71.55-1.25.64c.18.04.35.12.49.24.14.11.28.27.41.48l.87,1.32c.08.11.11.23.11.33Zm-1.67-3.46c.22-.17.32-.44.32-.8s-.11-.64-.32-.8c-.22-.17-.56-.25-1.02-.25h-1.6v2.12h1.6c.46,0,.8-.09,1.02-.26Z"/>
            <path class="cls-8" d="m108.57,269.16c-.11-.11-.17-.26-.17-.45v-5.59c0-.18.06-.33.17-.44.11-.11.26-.17.44-.17s.34.06.45.17c.11.11.17.26.17.44v5.59c0,.18-.06.33-.17.45-.11.11-.26.17-.45.17s-.33-.06-.44-.17Z"/>
            <path class="cls-8" d="m116.58,262.69c.1.11.16.26.16.44v5.59c0,.18-.05.33-.16.45-.11.11-.25.17-.42.17-.2,0-.36-.07-.47-.22l-3.47-4.52v4.12c0,.18-.05.33-.15.45-.1.11-.24.17-.42.17s-.32-.06-.42-.17c-.1-.11-.15-.26-.15-.45v-5.59c0-.18.05-.33.16-.44.11-.11.25-.17.43-.17.2,0,.35.07.46.22l3.46,4.5v-4.11c0-.18.05-.33.16-.44.1-.11.24-.17.41-.17s.32.06.42.17Z"/>
            <path class="cls-8" d="m119.48,268.94c-.49-.28-.86-.68-1.12-1.2-.26-.52-.39-1.13-.39-1.83s.13-1.3.39-1.82c.26-.52.63-.91,1.12-1.19.49-.28,1.05-.42,1.7-.42.42,0,.81.06,1.18.19.37.12.69.3.98.54.08.06.14.13.17.2.03.07.05.16.05.26,0,.14-.04.26-.11.35-.08.1-.17.14-.28.14-.13,0-.26-.04-.39-.13-.27-.2-.53-.34-.76-.42-.23-.08-.49-.12-.78-.12-.66,0-1.16.21-1.5.62-.34.41-.51,1.02-.51,1.82s.17,1.41.51,1.83c.34.41.84.62,1.5.62.27,0,.52-.04.76-.12.23-.08.49-.22.78-.42.06-.04.13-.07.19-.1.06-.03.13-.04.2-.04.11,0,.2.05.28.14.08.1.11.21.11.35,0,.1-.02.18-.05.25-.03.07-.09.14-.17.2-.29.23-.61.41-.98.54-.37.12-.76.19-1.18.19-.65,0-1.21-.14-1.7-.42Z"/>
            <path class="cls-8" d="m124.8,269.16c-.11-.11-.17-.26-.17-.45v-5.59c0-.18.06-.33.17-.44.11-.11.26-.17.44-.17s.34.06.45.17c.11.11.17.26.17.44v5.59c0,.18-.06.33-.17.45-.11.11-.26.17-.45.17s-.33-.06-.44-.17Z"/>
            <path class="cls-8" d="m127.48,269.17c-.11-.11-.17-.26-.17-.45v-5.57c0-.18.05-.33.16-.43.1-.1.25-.15.43-.15h2.34c.72,0,1.27.18,1.67.54.4.36.6.86.6,1.51s-.2,1.15-.6,1.51c-.4.36-.96.54-1.67.54h-1.7v2.05c0,.19-.06.34-.17.45-.11.11-.26.17-.45.17s-.33-.06-.44-.17Zm2.61-3.44c.84,0,1.27-.37,1.27-1.1s-.42-1.1-1.27-1.1h-1.55v2.21h1.55Z"/>
            <path class="cls-8" d="m139.01,268.79c0,.15-.06.27-.18.37-.12.1-.25.15-.4.15-.1,0-.2-.03-.29-.08-.09-.05-.16-.14-.21-.25l-.57-1.28h-3.35l-.57,1.28c-.05.11-.12.2-.21.25-.09.05-.19.08-.29.08-.15,0-.28-.05-.4-.15-.12-.1-.18-.23-.18-.37,0-.08.02-.16.06-.25l2.63-5.64c.06-.13.14-.22.26-.29.12-.07.24-.1.38-.1s.26.03.38.1c.12.07.2.16.26.29l2.64,5.64c.04.08.06.17.06.25Zm-2.06-2.04l-1.26-2.83-1.26,2.83h2.51Z"/>
            <path class="cls-8" d="m140.1,269.16c-.11-.11-.17-.26-.17-.45v-5.59c0-.18.06-.33.17-.44.11-.11.26-.17.44-.17s.34.06.45.17c.11.11.17.26.17.44v5.59c0,.18-.06.33-.17.45-.11.11-.26.17-.45.17s-.33-.06-.44-.17Z"/>
            <path class="cls-8" d="m143.55,269.17c-.43-.13-.79-.31-1.06-.53-.15-.11-.22-.26-.22-.46,0-.13.04-.25.12-.35.08-.1.17-.15.28-.15.11,0,.24.04.39.13.27.2.56.34.86.43.3.09.63.13.99.13.46,0,.82-.08,1.07-.24.25-.16.37-.4.37-.71,0-.24-.12-.43-.35-.56-.23-.13-.62-.26-1.16-.38-.56-.12-1.01-.26-1.36-.42-.35-.16-.61-.36-.79-.61-.18-.25-.27-.56-.27-.94s.11-.75.33-1.06c.22-.31.53-.55.93-.73.4-.17.84-.26,1.34-.26.91,0,1.65.24,2.22.72.08.07.14.14.18.2.03.07.05.15.05.25,0,.13-.04.25-.12.35-.08.1-.17.15-.28.15-.06,0-.12,0-.18-.03-.05-.02-.13-.05-.21-.1-.26-.19-.51-.33-.76-.42-.24-.09-.54-.14-.9-.14-.43,0-.77.09-1.02.26-.25.17-.38.42-.38.73,0,.26.11.46.33.6.22.14.6.27,1.13.39.56.13,1.02.27,1.37.42.35.16.62.35.81.59.19.24.28.54.28.9,0,.39-.11.74-.33,1.04-.22.3-.53.54-.92.7-.4.17-.85.25-1.37.25s-.95-.07-1.38-.2Z"/>
            <path class="cls-8" d="m151.43,269.16c-.11-.11-.17-.26-.17-.45v-5.57c0-.18.05-.33.16-.43.1-.1.25-.15.43-.15h3.34c.39,0,.58.16.58.49s-.19.49-.58.49h-2.72v1.83h2.53c.39,0,.58.16.58.49s-.19.49-.58.49h-2.53v2.36c0,.18-.05.33-.16.45-.11.11-.25.17-.44.17s-.33-.06-.44-.17Z"/>
            <path class="cls-8" d="m156.81,269.16c-.11-.11-.17-.26-.17-.45v-5.59c0-.18.06-.33.17-.44.11-.11.26-.17.44-.17s.34.06.45.17c.11.11.17.26.17.44v5.59c0,.18-.06.33-.17.45-.11.11-.26.17-.45.17s-.33-.06-.44-.17Z"/>
            <path class="cls-8" d="m164.78,265.78c.09.09.13.2.13.34v2.05c0,.29-.04.5-.11.62-.08.12-.23.22-.47.29-.25.09-.55.16-.88.21-.34.05-.66.08-.97.08-.69,0-1.29-.14-1.8-.41-.51-.27-.9-.67-1.17-1.18-.27-.52-.4-1.13-.4-1.85s.13-1.31.4-1.83c.27-.52.65-.91,1.15-1.19.49-.28,1.08-.41,1.75-.41.89,0,1.63.24,2.2.72.08.07.13.14.17.21.03.07.05.15.05.25,0,.14-.04.26-.11.35-.08.1-.17.14-.28.14-.07,0-.13-.01-.19-.03-.06-.02-.12-.06-.2-.11-.28-.2-.54-.33-.78-.41-.24-.08-.51-.12-.82-.12-.69,0-1.21.2-1.57.61s-.53,1.02-.53,1.82c0,1.65.72,2.47,2.17,2.47.43,0,.86-.06,1.29-.18v-1.68h-1.08c-.15,0-.27-.04-.36-.11-.09-.08-.13-.18-.13-.32s.04-.25.13-.32c.09-.08.2-.11.36-.11h1.68c.15,0,.26.04.35.13Z"/>
            <path class="cls-8" d="m166.97,268.65c-.48-.48-.71-1.17-.71-2.08v-3.43c0-.18.05-.33.16-.44.11-.11.25-.17.44-.17s.33.06.44.17c.11.11.16.26.16.44v3.5c0,.58.14,1.01.41,1.31.27.3.67.44,1.2.44s.92-.15,1.19-.45c.27-.3.41-.73.41-1.3v-3.5c0-.18.05-.33.16-.44.11-.11.25-.17.44-.17s.33.06.44.17c.11.11.16.26.16.44v3.43c0,.91-.24,1.6-.71,2.08-.48.48-1.17.72-2.08.72s-1.62-.24-2.09-.71Z"/>
            <path class="cls-8" d="m178.75,268.84c0,.15-.06.27-.18.36-.12.1-.26.14-.41.14-.1,0-.2-.02-.29-.07-.09-.05-.17-.12-.23-.21l-1.27-1.92c-.13-.2-.26-.35-.4-.43-.14-.08-.33-.12-.56-.12h-.93v2.13c0,.19-.05.34-.16.45-.11.11-.25.17-.44.17s-.33-.06-.44-.17c-.11-.11-.17-.26-.17-.45v-5.57c0-.18.05-.33.16-.43.1-.1.25-.15.43-.15h2.38c.76,0,1.34.17,1.74.51.4.34.59.83.59,1.47,0,.52-.15.95-.44,1.28s-.71.55-1.25.64c.18.04.35.12.49.24.14.11.28.27.41.48l.87,1.32c.08.11.11.23.11.33Zm-1.67-3.46c.22-.17.32-.44.32-.8s-.11-.64-.32-.8c-.22-.17-.56-.25-1.02-.25h-1.6v2.12h1.6c.46,0,.8-.09,1.02-.26Z"/>
            <path class="cls-8" d="m185.94,268.79c0,.15-.06.27-.18.37-.12.1-.25.15-.4.15-.1,0-.2-.03-.29-.08-.09-.05-.16-.14-.21-.25l-.57-1.28h-3.35l-.57,1.28c-.05.11-.12.2-.21.25-.09.05-.19.08-.29.08-.15,0-.28-.05-.4-.15-.12-.1-.18-.23-.18-.37,0-.08.02-.16.06-.25l2.63-5.64c.06-.13.14-.22.26-.29.12-.07.24-.1.38-.1s.26.03.38.1c.12.07.2.16.26.29l2.64,5.64c.04.08.06.17.06.25Zm-2.06-2.04l-1.26-2.83-1.26,2.83h2.51Z"/>
            <path class="cls-8" d="m187.72,269.17c-.43-.13-.79-.31-1.06-.53-.15-.11-.22-.26-.22-.46,0-.13.04-.25.12-.35.08-.1.17-.15.28-.15.11,0,.24.04.39.13.27.2.56.34.86.43.3.09.63.13.99.13.46,0,.82-.08,1.07-.24.25-.16.37-.4.37-.71,0-.24-.12-.43-.35-.56-.23-.13-.62-.26-1.16-.38-.56-.12-1.01-.26-1.36-.42-.35-.16-.61-.36-.79-.61-.18-.25-.27-.56-.27-.94s.11-.75.33-1.06c.22-.31.53-.55.93-.73.4-.17.84-.26,1.34-.26.91,0,1.65.24,2.22.72.08.07.14.14.18.2.03.07.05.15.05.25,0,.13-.04.25-.12.35-.08.1-.17.15-.28.15-.06,0-.12,0-.18-.03-.05-.02-.13-.05-.21-.1-.26-.19-.51-.33-.76-.42-.24-.09-.54-.14-.9-.14-.43,0-.77.09-1.02.26-.25.17-.38.42-.38.73,0,.26.11.46.33.6.22.14.6.27,1.13.39.56.13,1.02.27,1.37.42.35.16.62.35.81.59.19.24.28.54.28.9,0,.39-.11.74-.33,1.04-.22.3-.53.54-.92.7-.4.17-.85.25-1.37.25s-.95-.07-1.38-.2Z"/>
            <path class="cls-8" d="m200.9,265.78c.09.09.13.2.13.34v2.05c0,.29-.04.5-.11.62-.08.12-.23.22-.47.29-.25.09-.55.16-.88.21-.34.05-.66.08-.97.08-.69,0-1.29-.14-1.8-.41-.51-.27-.9-.67-1.17-1.18-.27-.52-.4-1.13-.4-1.85s.13-1.31.4-1.83c.27-.52.65-.91,1.15-1.19.49-.28,1.08-.41,1.75-.41.89,0,1.63.24,2.2.72.08.07.13.14.17.21.03.07.05.15.05.25,0,.14-.04.26-.11.35-.08.1-.17.14-.28.14-.07,0-.13-.01-.19-.03-.06-.02-.12-.06-.2-.11-.28-.2-.54-.33-.78-.41-.24-.08-.51-.12-.82-.12-.69,0-1.21.2-1.57.61s-.53,1.02-.53,1.82c0,1.65.72,2.47,2.17,2.47.43,0,.86-.06,1.29-.18v-1.68h-1.08c-.15,0-.27-.04-.36-.11-.09-.08-.13-.18-.13-.32s.04-.25.13-.32c.09-.08.2-.11.36-.11h1.68c.15,0,.26.04.35.13Z"/>
            <path class="cls-8" d="m202.57,269.12c-.1-.1-.16-.24-.16-.43v-5.55c0-.18.05-.33.16-.43.1-.1.25-.15.43-.15h3.43c.18,0,.33.04.43.12.1.08.15.2.15.35s-.05.28-.15.37c-.1.09-.24.13-.43.13h-2.83v1.85h2.64c.18,0,.33.04.43.12.1.08.15.2.15.36s-.05.27-.15.35c-.1.08-.24.12-.43.12h-2.64v1.96h2.83c.18,0,.33.04.43.13.1.09.15.21.15.37s-.05.27-.15.35c-.1.08-.24.12-.43.12h-3.43c-.18,0-.33-.05-.43-.15Z"/>
            <path class="cls-8" d="m209.29,268.94c-.48-.28-.85-.68-1.11-1.2-.26-.52-.39-1.13-.39-1.83s.13-1.3.39-1.82c.26-.52.63-.91,1.11-1.19.48-.28,1.05-.42,1.7-.42s1.22.14,1.7.42c.48.28.85.68,1.1,1.19.26.52.39,1.12.39,1.82s-.13,1.31-.39,1.83c-.26.52-.63.92-1.11,1.2-.48.28-1.04.42-1.69.42s-1.22-.14-1.7-.42Zm3.14-1.2c.35-.42.52-1.03.52-1.83s-.17-1.4-.52-1.82c-.35-.42-.83-.63-1.44-.63s-1.11.21-1.45.63c-.35.42-.52,1.03-.52,1.82s.17,1.4.52,1.83c.35.43.83.64,1.45.64s1.1-.21,1.44-.64Z"/>
            <path class="cls-8" d="m221.79,262.69c.11.11.16.26.16.44v5.63c0,.18-.05.32-.15.42-.1.1-.23.15-.4.15s-.29-.05-.39-.15-.14-.24-.14-.42v-3.92l-1.62,3.06c-.08.14-.16.24-.25.31-.09.07-.19.1-.31.1s-.23-.03-.31-.1c-.09-.06-.17-.17-.25-.31l-1.63-3.02v3.87c0,.17-.05.31-.15.41-.1.1-.23.16-.39.16s-.29-.05-.39-.15-.14-.24-.14-.42v-5.63c0-.18.05-.33.16-.44.1-.11.25-.17.42-.17.25,0,.44.14.58.41l2.11,4.02,2.1-4.02c.14-.27.33-.41.56-.41.18,0,.32.06.43.17Z"/>
            <path class="cls-8" d="m223.57,269.12c-.1-.1-.16-.24-.16-.43v-5.55c0-.18.05-.33.16-.43.1-.1.25-.15.43-.15h3.43c.18,0,.33.04.43.12.1.08.15.2.15.35s-.05.28-.15.37c-.1.09-.24.13-.43.13h-2.83v1.85h2.64c.18,0,.33.04.43.12.1.08.15.2.15.36s-.05.27-.15.35c-.1.08-.24.12-.43.12h-2.64v1.96h2.83c.18,0,.33.04.43.13.1.09.15.21.15.37s-.05.27-.15.35c-.1.08-.24.12-.43.12h-3.43c-.18,0-.33-.05-.43-.15Zm2.24-7.08c-.08,0-.15-.03-.21-.08-.06-.05-.09-.12-.09-.19s.03-.14.1-.21l.87-.89c.12-.13.26-.19.41-.19.13,0,.24.05.33.14.09.09.14.2.14.32,0,.08-.03.16-.08.24-.05.08-.13.14-.24.2l-1.08.63c-.05.03-.1.04-.15.04Z"/>
            <path class="cls-8" d="m230.77,269.16c-.11-.11-.17-.26-.17-.44v-5.14h-1.73c-.38,0-.57-.17-.57-.5s.19-.5.57-.5h4.69c.38,0,.57.17.57.5s-.19.5-.57.5h-1.73v5.14c0,.18-.06.33-.17.44-.11.11-.26.17-.44.17s-.34-.06-.45-.17Z"/>
            <path class="cls-8" d="m240.34,268.84c0,.15-.06.27-.18.36-.12.1-.26.14-.41.14-.1,0-.2-.02-.29-.07-.09-.05-.17-.12-.23-.21l-1.27-1.92c-.13-.2-.26-.35-.4-.43-.14-.08-.33-.12-.56-.12h-.93v2.13c0,.19-.05.34-.16.45-.11.11-.25.17-.44.17s-.33-.06-.44-.17c-.11-.11-.17-.26-.17-.45v-5.57c0-.18.05-.33.16-.43.1-.1.25-.15.43-.15h2.38c.76,0,1.34.17,1.74.51.4.34.59.83.59,1.47,0,.52-.15.95-.44,1.28s-.71.55-1.25.64c.18.04.35.12.49.24.14.11.28.27.41.48l.87,1.32c.08.11.11.23.11.33Zm-1.67-3.46c.22-.17.32-.44.32-.8s-.11-.64-.32-.8c-.22-.17-.56-.25-1.02-.25h-1.6v2.12h1.6c.46,0,.8-.09,1.02-.26Z"/>
            <path class="cls-8" d="m241.64,269.16c-.11-.11-.17-.26-.17-.45v-5.59c0-.18.06-.33.17-.44.11-.11.26-.17.44-.17s.34.06.45.17c.11.11.17.26.17.44v5.59c0,.18-.06.33-.17.45-.11.11-.26.17-.45.17s-.33-.06-.44-.17Z"/>
            <path class="cls-8" d="m245.44,268.94c-.49-.28-.86-.68-1.12-1.2-.26-.52-.39-1.13-.39-1.83s.13-1.3.39-1.82c.26-.52.63-.91,1.12-1.19.49-.28,1.05-.42,1.7-.42.42,0,.81.06,1.18.19.37.12.69.3.98.54.08.06.14.13.17.2.03.07.05.16.05.26,0,.14-.04.26-.11.35-.08.1-.17.14-.28.14-.13,0-.26-.04-.39-.13-.27-.2-.53-.34-.76-.42-.23-.08-.49-.12-.78-.12-.66,0-1.16.21-1.5.62-.34.41-.51,1.02-.51,1.82s.17,1.41.51,1.83c.34.41.84.62,1.5.62.27,0,.52-.04.76-.12.23-.08.49-.22.78-.42.06-.04.13-.07.19-.1.06-.03.13-.04.2-.04.11,0,.2.05.28.14.08.1.11.21.11.35,0,.1-.02.18-.05.25-.03.07-.09.14-.17.2-.29.23-.61.41-.98.54-.37.12-.76.19-1.18.19-.65,0-1.21-.14-1.7-.42Z"/>
            <path class="cls-8" d="m256.61,268.79c0,.15-.06.27-.18.37-.12.1-.25.15-.4.15-.1,0-.2-.03-.29-.08-.09-.05-.16-.14-.21-.25l-.57-1.28h-3.35l-.57,1.28c-.05.11-.12.2-.21.25-.09.05-.19.08-.29.08-.15,0-.28-.05-.4-.15-.12-.1-.18-.23-.18-.37,0-.08.02-.16.06-.25l2.63-5.64c.06-.13.14-.22.26-.29.12-.07.24-.1.38-.1s.26.03.38.1c.12.07.2.16.26.29l2.64,5.64c.04.08.06.17.06.25Zm-2.06-2.04l-1.26-2.83-1.26,2.83h2.51Z"/>
            <path class="cls-8" d="m258.39,269.17c-.43-.13-.79-.31-1.06-.53-.15-.11-.22-.26-.22-.46,0-.13.04-.25.12-.35.08-.1.17-.15.28-.15.11,0,.24.04.39.13.27.2.56.34.86.43.3.09.63.13.99.13.46,0,.82-.08,1.07-.24.25-.16.37-.4.37-.71,0-.24-.12-.43-.35-.56-.23-.13-.62-.26-1.16-.38-.56-.12-1.01-.26-1.36-.42-.35-.16-.61-.36-.79-.61-.18-.25-.27-.56-.27-.94s.11-.75.33-1.06c.22-.31.53-.55.93-.73.4-.17.84-.26,1.34-.26.91,0,1.65.24,2.22.72.08.07.14.14.18.2.03.07.05.15.05.25,0,.13-.04.25-.12.35-.08.1-.17.15-.28.15-.06,0-.12,0-.18-.03-.05-.02-.13-.05-.21-.1-.26-.19-.51-.33-.76-.42-.24-.09-.54-.14-.9-.14-.43,0-.77.09-1.02.26-.25.17-.38.42-.38.73,0,.26.11.46.33.6.22.14.6.27,1.13.39.56.13,1.02.27,1.37.42.35.16.62.35.81.59.19.24.28.54.28.9,0,.39-.11.74-.33,1.04-.22.3-.53.54-.92.7-.4.17-.85.25-1.37.25s-.95-.07-1.38-.2Z"/>
          </g>
          <g>
            <polygon class="cls-8" points="90.33 263.48 91.1 265.04 92.82 265.28 91.57 266.49 91.87 268.2 90.33 267.4 88.8 268.2 89.09 266.49 87.85 265.28 89.57 265.04 90.33 263.48"/>
            <polygon class="cls-8" points="76.78 264.66 77.16 265.44 78.02 265.56 77.4 266.17 77.55 267.02 76.78 266.62 76.01 267.02 76.16 266.17 75.54 265.56 76.4 265.44 76.78 264.66"/>
            <polygon class="cls-8" points="82.94 264.19 83.47 265.28 84.67 265.45 83.8 266.3 84.01 267.49 82.94 266.93 81.86 267.49 82.07 266.3 81.2 265.45 82.4 265.28 82.94 264.19"/>
          </g>
          <g>
            <polygon class="cls-8" points="267.57 263.48 266.8 265.04 265.09 265.28 266.33 266.49 266.04 268.2 267.57 267.4 269.1 268.2 268.81 266.49 270.05 265.28 268.34 265.04 267.57 263.48"/>
            <polygon class="cls-8" points="281.12 264.66 280.74 265.44 279.88 265.56 280.5 266.17 280.36 267.02 281.12 266.62 281.89 267.02 281.74 266.17 282.37 265.56 281.51 265.44 281.12 264.66"/>
            <polygon class="cls-8" points="274.97 264.19 274.43 265.28 273.23 265.45 274.1 266.3 273.89 267.49 274.97 266.93 276.04 267.49 275.84 266.3 276.71 265.45 275.5 265.28 274.97 264.19"/>
          </g>
        </g>
      </g>
    </g>
  </g>
  <g id="NOME">
    <text class="cls-24" transform="translate(98.76 43.05)"><tspan x="0" y="0">Claudenilson Pereira Batista</tspan></text>
  </g>
</svg>