<?xml version="1.0" encoding="UTF-8"?>
<svg xmlns="http://www.w3.org/2000/svg" xmlns:xlink="http://www.w3.org/1999/xlink" viewBox="0 0 345 487.93">
  <defs>
    <style>
      .cls-1 {
        fill: #83554d;
      }

      .cls-1, .cls-2, .cls-3, .cls-4, .cls-5, .cls-6, .cls-7, .cls-8, .cls-9, .cls-10, .cls-11, .cls-12, .cls-13, .cls-14, .cls-15, .cls-16, .cls-17, .cls-18, .cls-19, .cls-20, .cls-21, .cls-22, .cls-23 {
        stroke-width: 0px;
      }

      .cls-2 {
        fill: #0c0b0d;
      }

      .cls-3 {
        fill: url(#Gradiente_sem_nome_2);
      }

      .cls-4 {
        opacity: .45;
      }

      .cls-4, .cls-6, .cls-12, .cls-15 {
        fill: #fff;
      }

      .cls-5 {
        fill: #718d33;
      }

      .cls-6 {
        opacity: .05;
      }

      .cls-7 {
        fill: #49843c;
      }

      .cls-8 {
        fill: #7fc1ee;
      }

      .cls-9 {
        fill: #637932;
      }

      .cls-10 {
        fill: #222221;
      }

      .cls-11, .cls-14 {
        fill: #fffad6;
      }

      .cls-13 {
        fill: #7a4f48;
      }

      .cls-14 {
        opacity: .14;
      }

      .cls-15 {
        opacity: .17;
      }

      .cls-16 {
        fill: #728b39;
      }

      .cls-17 {
        fill: #885f4d;
      }

      .cls-18 {
        fill: #49833c;
      }

      .cls-19 {
        fill: #ecc769;
      }

      .cls-20 {
        fill: url(#Gradiente_sem_nome_3);
      }

      .cls-21 {
        fill: #8ba93a;
      }

      .cls-22 {
        fill: #6a492d;
      }

      .cls-23 {
        fill: #799233;
      }
    </style>
    <linearGradient id="Gradiente_sem_nome_3" data-name="Gradiente sem nome 3" x1="172.28" y1="600.36" x2="172.62" y2="-121.52" gradientUnits="userSpaceOnUse">
      <stop offset="0" stop-color="#ffed43"/>
      <stop offset=".04" stop-color="#f9ee74"/>
      <stop offset=".08" stop-color="#f4f09d"/>
      <stop offset=".12" stop-color="#f0f1c0"/>
      <stop offset=".16" stop-color="#edf2da"/>
      <stop offset=".2" stop-color="#eaf3ed"/>
      <stop offset=".24" stop-color="#e9f3f9"/>
      <stop offset=".28" stop-color="#e9f4fd"/>
      <stop offset=".67" stop-color="#96cbf2"/>
      <stop offset=".89" stop-color="#7b9abd"/>
      <stop offset="1" stop-color="#c33431"/>
    </linearGradient>
    <linearGradient id="Gradiente_sem_nome_2" data-name="Gradiente sem nome 2" x1="172.65" y1="550.46" x2="172.25" y2="313.03" gradientUnits="userSpaceOnUse">
      <stop offset="0" stop-color="#ffed43"/>
      <stop offset="0" stop-color="#feec43"/>
      <stop offset=".04" stop-color="#cddb6e"/>
      <stop offset=".08" stop-color="#a3cd93"/>
      <stop offset=".12" stop-color="#80c1b1"/>
      <stop offset=".16" stop-color="#66b7c9"/>
      <stop offset=".2" stop-color="#53b1d9"/>
      <stop offset=".24" stop-color="#47ade3"/>
      <stop offset=".28" stop-color="#44ace7"/>
      <stop offset=".67" stop-color="#009cdf"/>
      <stop offset=".89" stop-color="#322b80"/>
      <stop offset="1" stop-color="#322b80"/>
    </linearGradient>
  </defs>
  <g id="fundo_frente" data-name="fundo frente">
    <rect class="cls-20" x="-.59" width="346.08" height="491.71"/>
    <path class="cls-6" d="m345.48,49.54c-19.23,14.48-74.19,46-108.02,57.39-14.42,4.85-30.78,12.19-76.36,17.54-4.14.49,34.25,3.07,60.38-3.57,11.44-2.91-109.51,29.77-163.58,13.11C13.51,120.34-.59,110.8-.59,110.8v316.99l346.08,32.12V49.54Z"/>
    <path class="cls-15" d="m-.59,177.92c19.34,14.48,84.17,23.82,113.46,22.51,26.87-1.21,76.11-19.92,85.56-25.28,9.45-5.35-39.61,28.34-68.84,34.46-11.54,2.41,79.99-16.07,132.75-47.14,56.23-33.11,83.16-60.47,83.16-60.47v293.66L-.59,382.12v-204.2Z"/>
    <path class="cls-4" d="m347.6,131.08c-.06-8.26-.27-16.53-.28-24.79,0-2.28.25-4.49.73-6.63-.14-.71-.26-1.42-.36-2.13-1.09.54-1.57.94-1.43.8.46-.46.92-1.14,1.28-1.93-.1-.94-.18-1.89-.22-2.83-.03-.88-.02-1.75.03-2.61-.4-.58-.96-1.12-1.73-1.58-4.78-2.89-12.92,2.25-12.92,2.25,0,0,2.32-4.45.36-7.95-3.8-6.8-13.86-1-13.83-1.56.16-2.74-1.74-8.11-6.64-9.46-5.18-1.43-7.46,1.06-7.52.67-.26-1.67-2.66-5.76-8.26-4.82-6.42,1.07-7.72,6.63-8.19,6.39s-4.18-2.36-7.29-.04c-4.45,3.31-1.95,9.12-2.3,8.81-1.9-1.67-6.06-3.69-10.12-1.01-3.75,2.47-3.72,7.73-3.72,7.73-1.01-1.02-4.58-4.95-10.48-2.45-4.99,2.12-5.19,7.45-5.25,7.01-.2-1.48-.53-4.63-4.18-6.05-5.75-2.24-8.46,2.08-8.47,1.36,0-.72-3.83-4.55-8.25-2.59-3.52,1.56-3.15,4.43-3.43,4.11-.65-.75-4.29-3.6-8.32-2.36-5.42,1.68-4.82,6.89-5.14,6.57-1.7-1.72-5.48-2.32-7.29-.44-2.88,2.98.33,5.93.33,5.93-1.38-.61-3.09-.47-4.31-.03-2.29.82-2.32,4.02.87,4.96,1.62.48-8.41-.98-6.87,5.52,1.04,4.36,6.9,3.68,7.82,3.15.63-.36.44,3.43,4.04,5.58,2.59,1.54,6.01,1.03,8.19.16.59-.24,2.08,3.56,5.69,3.06,2.59-.36,3.76-2.9,4-2.92.38-.03,2.64,2.79,6.1,2.52,3.27-.26,4.99-2.93,5.41-3.8.14-.3,2.12,3.65,6,5.02,3.95,1.4,8.22.11,10.62-.84.38-.15-.17,6.08,4.54,9.27,3.47,2.35,8.37.69,9.78.26.37-.12.28,3.97,4.18,5.46,2.21.85,4.42-.15,5.65-1.05.19-.14,2.1,6.09,6.69,7.47,8.08,2.43,12.68-4.46,13.28-6.1.11-.31,1.41,2.25,4.36,2.8,2.42.45,4.43-.52,5.73-2.03.26-.3,1.36,4.21,7.16,4.26,4.54.04,8.07-6.13,7.08-11.76-.1-.58,2.55,1.43,7.55,2.05,7.31.9,10.41-6.06,8.15-8.84-2.06-2.52,3.41,4.89,11.17,5.43Z"/>
    <path class="cls-4" d="m135.69,130.13c-5.1-1.88-9.69.45-9.41.08,1.51-1.96-1.46-5.6-5.11-5.87-7.22-.52-10.81,2.51-10.49,2.2,1.34-1.32,2.83-4.86-.4-6.71-3.68-2.12-10.08,1.83-10.08,1.83,0,0,1.85-3.37.37-5.97-2.88-5.07-10.77-.59-10.74-1.01.16-2.06-1.26-6.07-5.06-7.03-4.01-1.02-5.82.88-5.86.59-.19-1.25-2-4.29-6.37-3.53-5.01.88-6.08,5.07-6.45,4.89-.36-.18-3.23-1.72-5.67.05-3.5,2.54-1.62,6.87-1.89,6.64-1.46-1.24-4.67-2.71-7.86-.65-2.94,1.9-2.98,5.85-2.98,5.85-.77-.75-3.51-3.67-8.12-1.72-3.9,1.65-4.12,5.66-4.16,5.32-.14-1.11-.36-3.47-3.18-4.49-4.44-1.62-6.61,1.65-6.6,1.12,0-.54-2.93-3.38-6.39-1.85-2.75,1.21-2.5,3.37-2.71,3.13-.5-.56-3.3-2.66-6.45-1.68-4.23,1.32-3.83,5.23-4.07,4.99-1.3-1.27-4.23-1.68-5.67-.25-2.28,2.27.19,4.45.19,4.45-.78-.32-1.71-.34-2.52-.19.02.41.04.82.04,1.23.01,2.45.15,4.9.17,7.35,0,.65,0,1.31-.03,1.96.11-.03.19-.07.25-.1.49-.28.3,2.57,3.08,4.15,1.99,1.13,4.66.71,6.37.03.47-.19,1.58,2.65,4.39,2.23,2.02-.3,2.95-2.22,3.15-2.24.29-.03,2.02,2.06,4.71,1.82,2.55-.23,3.91-2.26,4.25-2.91.11-.22,1.61,2.72,4.61,3.7,3.06,1,6.39-.01,8.27-.75.29-.12-.2,4.57,3.42,6.91,2.68,1.73,6.5.42,7.6.08.29-.09.18,2.98,3.19,4.05,1.71.61,3.44-.17,4.41-.85.15-.11,1.56,4.55,5.12,5.53,6.26,1.74,9.92-3.49,10.4-4.73.09-.23,1.07,1.67,3.36,2.05,1.88.31,3.45-.44,4.48-1.59.21-.23,1.01,3.15,5.52,3.12,3.53-.02,6.34-4.69,5.64-8.91-.07-.44,1.97,1.05,5.85,1.45,5.68.59,8.17-4.67,6.44-6.73-1.73-2.06,3.5,4.82,10.5,3.88,4.28-.57,6.13-5.59,5.12-6.57-1.01-.98,8.75,3.92,11.57.46,2.4-2.95-2.84-6.66-3.73-6.95.99.13,8.47.76,10.98-2.63,1.56-2.11.7-4.44-1.46-5.24Z"/>
    <circle class="cls-14" cx="35.53" cy="67.24" r="15.11"/>
    <circle class="cls-14" cx="35.53" cy="67.24" r="17.7"/>
    <circle class="cls-11" cx="35.53" cy="67.24" r="12.8"/>
    <polygon class="cls-3" points="-.59 370.84 345.48 367.79 345.48 491.71 -.59 491.71 -.59 370.84"/>
    <path class="cls-13" d="m19.73,443.44h24.76s-3.16-8.46-4.05-8.67-1.65-.21-2.13-.7-2.26-6.43-3.43-7.76-1.65-3.63-3.91-4.12-6.38-1.96-7.48-1.26-2.2,5.24-2.47,5.8-1.78,4.12-2.74,5.03-1.44,4.61-2.47,5.1-3.29,6.57-3.29,6.57h7.2Z"/>
    <path class="cls-1" d="m12.53,443.44s1.46-3.75,2.05-4.79.69-1.39,1.06-1.64.55-.35.76-.79,1.02-2.84,1.27-3.37.37-.8.59-1.03.75-.9,1.21-1.8,1.17-2.4,1.25-2.57.31-.65.38-.84.53-1.7.7-2.22.75-2.03.88-2.28.51-.96.75-1.1.7.25.7.4-3.91,8.72-4.14,10.81c-.04.36,2.17,2.54,2.43,3.14s2.55,8.1,2.55,8.1h-12.43Z"/>
    <path class="cls-17" d="m23.45,420.98c.47-.32.99-.34,2.32-.11,1.46.25,4.19,1.07,4.76,1.2s.94-.04,1.99.9,1.1,1.39,1.31,1.75-7-.71-7.66-.96-2.98-2.6-2.72-2.77Z"/>
    <path class="cls-13" d="m39.05,446.89h15.76s-1.68-5.6-2.69-6.16-4.31-2.49-5.66-2.99-5.12,2.99-5.79,3.42-1.62,5.72-1.62,5.72Z"/>
    <path class="cls-13" d="m320.84,441.18h12.04s-1.29-4.49-2.06-4.94-3.29-2-4.32-2.4-3.91,2.4-4.43,2.75-1.23,4.59-1.23,4.59Z"/>
    <path class="cls-1" d="m320.84,441.18s.71-4.13,1.16-4.51,2.24-1.87,2.64-2.13,1.24-.78,1.56-.74-1.92,2.35-2.15,2.79.33,1.23.74,1.21.7-.88.78-1.18.25,2.46-.37,3.06-.99,1.49-.99,1.49h-3.37Z"/>
    <path class="cls-13" d="m329.73,415.39h5.11s-.55-1.69-.87-1.86-1.4-.75-1.84-.9-1.66.9-1.88,1.03-.52,1.73-.52,1.73Z"/>
    <path class="cls-1" d="m329.73,415.39s.3-1.56.49-1.7.95-.7,1.12-.8.53-.29.66-.28-.82.89-.91,1.05.14.46.32.45.3-.33.33-.44.11.93-.16,1.15-.42.56-.42.56h-1.43Z"/>
    <path class="cls-1" d="m39.05,446.89s.93-5.15,1.51-5.62,2.93-2.33,3.45-2.65,1.63-.97,2.04-.92-2.52,2.93-2.81,3.48.43,1.53.97,1.5.91-1.1,1.03-1.47.33,3.07-.48,3.81-1.29,1.86-1.29,1.86h-4.41Z"/>
    <g>
      <path class="cls-16" d="m289.02,310.53c-.27.1-1.72-6.51-.94-9.91s1.88-4.99,3.22-6.43,4.94-5.14,5.17-5.62,1.69-2.42,1.75-2.66,1.43,4.3,1.41,6.04.04,3.3-.06,3.41-2.11.11-2.25.14,1.98.56,2.09.58-1.34,5.12-2.6,7.26c-1.04,1.77-5.17,6.2-7.78,7.18Z"/>
      <path class="cls-21" d="m289.02,310.53c-.1.13-.97-3.68-1.07-5.4s-.19-4.3.79-6.78c.97-2.48,2.21-3.99,4.21-5.9,1.36-1.3,3.18-3.42,3.71-4.2s1.56-2.34,1.56-2.34c0,0-1.23,5.3-1.92,6.64s-3.79,6.23-4.36,8.74c-1.03,4.54-2.71,8.97-2.92,9.24Z"/>
      <path class="cls-16" d="m288.59,310.32c-.27-.11,2.89-6.04,5.66-8.05,2.77-2,4.61-2.43,6.53-2.58s6.99-.44,7.47-.64,2.81-.64,3.01-.78-1.7,4.2-2.83,5.48-2.09,2.49-2.23,2.5-1.64-1.37-1.77-1.44,1.12,1.78,1.19,1.87-4.29,2.9-6.61,3.63c-1.91.61-7.84,1.07-10.42,0Z"/>
      <path class="cls-21" d="m288.59,310.32c-.16.03,1.63-3.42,2.67-4.77s2.62-3.34,4.94-4.52c2.32-1.18,4.21-1.46,6.93-1.5,1.85-.03,4.57-.36,5.47-.58s2.66-.67,2.66-.67c0,0-4.32,3.11-5.7,3.63s-6.83,2.04-8.86,3.52c-3.68,2.68-7.78,4.83-8.12,4.89Z"/>
      <path class="cls-16" d="m288.83,309.22c-.11-.27,6.19-2.11,9.5-1.47s4.91,1.69,6.36,3.01c1.45,1.31,5.21,4.85,5.68,5.06s2.42,1.62,2.65,1.67-4.08,1.69-5.75,1.76-3.18.21-3.29.11-.21-2.17-.25-2.32-.44,2.08-.45,2.19-5-1.13-7.14-2.32c-1.76-.98-6.24-5.03-7.32-7.68Z"/>
      <path class="cls-21" d="m288.83,309.22c-.13-.1,3.49-1.19,5.15-1.38,1.66-.19,4.14-.41,6.58.47s3.96,2.08,5.9,4.06c1.32,1.34,3.46,3.12,4.24,3.62s2.33,1.49,2.33,1.49c0,0-5.17-1-6.5-1.65s-6.2-3.6-8.64-4.06c-4.43-.83-8.78-2.34-9.06-2.55Z"/>
      <path class="cls-16" d="m288.35,309.22c.11-.27,5.75,3.17,7.6,6.1s2.21,4.84,2.3,6.84.22,7.25.4,7.75.54,2.93.67,3.14-4-1.88-5.21-3.09-2.35-2.23-2.35-2.38,1.37-1.66,1.44-1.79-1.75,1.11-1.84,1.17-2.67-4.53-3.31-6.95c-.53-2-.8-8.15.3-10.79Z"/>
      <path class="cls-21" d="m288.35,309.22c-.02-.17,3.25,1.79,4.52,2.9s3.15,2.81,4.22,5.25,1.28,4.4,1.25,7.22c-.02,1.91.22,4.74.4,5.68s.57,2.78.57,2.78c0,0-2.88-4.56-3.34-6s-1.77-7.13-3.14-9.28c-2.48-3.89-4.44-8.19-4.48-8.55Z"/>
      <path class="cls-13" d="m173.69,364.23s3.81-18.98,7.49-21.96,9.3-5.8,11.57-7.54,9.51-16.34,12.99-17.25,27.94,12.51,29.92,15.57,5.46,7.63,6.28,7.91,8.24,2.35,8.82,3.29,11.91,19.94,12.21,21.78-89.27-1.81-89.27-1.81Z"/>
      <path class="cls-1" d="m190.37,336.67c-4.27,2.2-7.81,4.62-9.2,5.59s-3.35,6.37-3.47,6.7-2.81,15.5-2.81,15.5h12.14s12.21-5.64,11.91-7.14-.22-5.9-1.33-7.44-6.88-3.03-7.03-3.65,8.29-11.13,9.1-11.65-9.31,2.09-9.31,2.09Z"/>
      <path class="cls-13" d="m98.02,364.6h56.72s-7.23-16.81-9.27-17.22-3.77-.42-4.87-1.39-5.19-12.78-7.86-15.42-3.77-7.22-8.96-8.19c-5.19-.97-14.61-3.89-17.13-2.5s-5.03,10.42-5.66,11.53-4.09,8.19-6.29,10-3.3,9.17-5.66,10.14c-2.36.97-7.54,13.06-7.54,13.06h16.5Z"/>
      <path class="cls-1" d="m81.52,364.6s3.36-7.44,4.71-9.52c1.35-2.08,1.58-2.75,2.42-3.27s1.25-.7,1.73-1.57,2.33-5.64,2.9-6.7.85-1.59,1.36-2.05,1.71-1.79,2.78-3.58,2.69-4.78,2.86-5.11.72-1.3.87-1.67,1.21-3.38,1.61-4.41,1.72-4.03,2.01-4.52,1.16-1.92,1.71-2.19,1.6.5,1.6.79-8.96,17.33-9.49,21.48c-.09.72,4.97,5.06,5.57,6.23s5.85,16.1,5.85,16.1h-28.48Z"/>
      <path class="cls-17" d="m106.52,319.96c1.08-.64,2.27-.67,5.33-.23,3.34.49,9.59,2.12,10.91,2.39s2.16-.08,4.56,1.78c2.39,1.87,2.51,2.76,2.99,3.48s-16.02-1.42-17.55-1.91-6.82-5.17-6.24-5.51Z"/>
      <path class="cls-13" d="m128.31,367.19h58.34s-6.23-20.78-9.97-22.86c-3.74-2.08-15.96-9.24-20.94-11.08-4.99-1.85-18.95,11.08-21.44,12.7-2.49,1.62-5.98,21.24-5.98,21.24Z"/>
      <path class="cls-1" d="m128.31,367.19s3.44-19.11,5.6-20.86,10.84-8.64,12.78-9.84,6.03-3.61,7.54-3.43-9.32,10.87-10.41,12.93c-1.1,2.06,1.58,5.68,3.6,5.58,2.02-.09,3.39-4.07,3.8-5.45s1.23,11.4-1.78,14.15c-3.01,2.75-4.79,6.91-4.79,6.91h-16.33Z"/>
      <path class="cls-18" d="m209.25,334.51c-.48.12-1.34-.4-1.56-.04-1.43,2.3-9.08,1.56-11.81-.71-6.88-5.71-4.21-9.38-4.8-9.51-3.47-.74-6.63-6.49-5.1-10.82,2.1-5.94,10.99-6.79,10.94-7.23-.1-1.09,3.67-6.5,12.39-6.02,7.78.43,10.37,6.5,10.66,7.81.1.44,8.1.38,9.89,6.03,1.47,4.66-2.33,9.34-4.95,10.22-.44.15,1.45,2.25-.15,6.47-.94,2.48-6.35,6.25-12.64,5-1.48-.3-2.41-1.3-2.87-1.19Z"/>
      <path class="cls-22" d="m206.31,331.12c3.65,6.2,1.72,33.75,1.2,35.76-.52,2.01,6.28.88,6.28.88,0,0-3.72-27.64-2.29-33.51,1.42-5.83,4.77-8.15,6.39-9.15,1.61-1-.83-.51-.83-.51,0,0-2.88,1.35-6.47,6.6-2.34,3.42-4.62-6.02-9.48-8.18-.33-.15-.78.35-.69.42,1.83,1.37,5.69,7.36,5.89,7.7Z"/>
      <path class="cls-7" d="m73.99,346.14c-.33.09-.92-.28-1.07-.02-.97,1.66-6.24,1.17-8.14-.44-4.76-4.05-2.94-6.71-3.35-6.79-2.39-.51-4.59-4.62-3.55-7.74,1.42-4.27,7.54-4.94,7.51-5.25-.08-.78,2.5-4.69,8.51-4.39,5.36.27,7.17,4.6,7.37,5.54.07.32,5.58.22,6.84,4.27,1.03,3.33-1.57,6.72-3.37,7.36-.3.11,1.01,1.61-.08,4.64-.64,1.78-4.34,4.52-8.68,3.66-1.02-.2-1.67-.92-1.98-.84Z"/>
      <path class="cls-22" d="m71.95,343.72c2.54,4.43,1.32,24.21.98,25.66s4.33.6,4.33.6c0,0-2.68-19.82-1.72-24.04.96-4.19,3.25-5.88,4.36-6.61s-.57-.36-.57-.36c0,0-1.98.99-4.43,4.77-1.6,2.47-3.21-4.29-6.56-5.81-.23-.1-.54.25-.47.3,1.27.97,3.95,5.25,4.09,5.49Z"/>
      <path class="cls-5" d="m194.91,343.41c-.27.07-.75-.23-.87-.02-.8,1.35-5.07.92-6.6-.41-3.84-3.34-2.34-5.5-2.67-5.57-1.94-.43-3.7-3.8-2.84-6.35,1.18-3.48,6.14-3.99,6.12-4.25-.06-.64,2.06-3.82,6.93-3.54,4.35.25,5.79,3.8,5.95,4.57.05.26,4.53.21,5.52,3.53.82,2.73-1.31,5.48-2.78,6-.24.09.81,1.32-.09,3.79-.53,1.46-3.55,3.67-7.07,2.94-.83-.17-1.35-.76-1.6-.69Z"/>
      <path class="cls-22" d="m193.27,341.43c2.03,3.64.93,19.8.64,20.98s3.51.51,3.51.51c0,0-2.05-16.21-1.25-19.65.8-3.42,2.68-4.79,3.58-5.38s-.46-.3-.46-.3c0,0-1.61.8-3.62,3.88-1.31,2.01-2.58-3.53-5.29-4.79-.19-.09-.44.2-.39.24,1.02.8,3.17,4.31,3.28,4.51Z"/>
      <path class="cls-5" d="m45.84,351.41c-.27.07-.75-.23-.87-.02-.8,1.35-5.07.92-6.6-.41-3.84-3.34-2.34-5.5-2.67-5.57-1.94-.43-3.7-3.8-2.84-6.35,1.18-3.48,6.14-3.99,6.12-4.25-.06-.64,2.06-3.82,6.93-3.54,4.35.25,5.79,3.8,5.95,4.57.05.26,4.53.21,5.52,3.53.82,2.73-1.31,5.48-2.78,6-.24.09.81,1.32-.09,3.79-.53,1.46-3.55,3.67-7.07,2.94-.83-.17-1.35-.76-1.6-.69Z"/>
      <path class="cls-22" d="m44.2,349.43c2.03,3.64.93,19.8.64,20.98s3.51.51,3.51.51c0,0-2.05-16.21-1.25-19.65.8-3.42,2.68-4.79,3.58-5.38s-.46-.3-.46-.3c0,0-1.61.8-3.62,3.88-1.31,2.01-2.58-3.53-5.29-4.79-.19-.09-.44.2-.39.24,1.02.8,3.17,4.31,3.28,4.51Z"/>
      <path class="cls-9" d="m41.51,370.82c-1.62-.54-3.41-2.98-1.26-4.48,1.42-.99,2.34.8,2.44,1s-1.91-2.11-.48-4.43c.6-.97,1.91-1.3,3.09-.88.28.1-1.07-2.3.58-4.26.9-1.07,2.59-1.52,4.18-.59.34.2-.99-2.03.79-4.29,2.32-2.96,6.6.26,6.93,1.69.07.3,1.18-2.7,3.65-3.28,2.38-.56,4.86,1.11,4.99,3.51.05.87,1.75-2.49,4.95-1.11,1.77.77,2.85,3.21,2.26,5.4-.07.26,2.47-2.25,5.34-.32,1.81,1.21,1.95,4.17,1.63,4.75-.15.27,1.79-.94,3.53.15s-.61,3.28-.61,3.28c0,0-19.16,2.5-23.97,3.23s-17.73.74-18.03.64Z"/>
      <path class="cls-9" d="m232.05,364.32c-1.53-.77-2.95-3.44-.6-4.61,1.55-.77,2.2,1.13,2.27,1.34s-1.58-2.36.16-4.45c.73-.87,2.08-1.01,3.18-.42.26.14-.73-2.43,1.19-4.14,1.04-.93,2.78-1.13,4.22.01.31.25-.69-2.15,1.4-4.13,2.73-2.59,6.49,1.21,6.62,2.67.03.31,1.55-2.51,4.09-2.72s4.65,1.8,4.43,4.19c-.08.87,2.09-2.22,5.06-.39,1.64,1.01,2.36,3.59,1.46,5.67-.11.25,2.77-1.87,5.33.45,1.61,1.46,1.33,4.41.93,4.94-.18.24,1.91-.67,3.47.66,1.57,1.33-1.08,3.16-1.08,3.16,0,0-19.32-.29-24.18-.25s-17.65-1.82-17.93-1.96Z"/>
      <path class="cls-9" d="m203.88,363.81c-1.54-.74-3.02-3.38-.7-4.6,1.54-.81,2.22,1.08,2.3,1.29s-1.63-2.32.07-4.45c.71-.89,2.05-1.05,3.17-.49.26.13-.78-2.42,1.1-4.16,1.02-.95,2.75-1.19,4.22-.08.32.24-.73-2.14,1.31-4.16,2.67-2.65,6.52,1.07,6.67,2.53.03.31,1.5-2.54,4.03-2.81s4.69,1.7,4.52,4.1c-.06.87,2.04-2.26,5.05-.49,1.66.98,2.43,3.54,1.58,5.64-.1.25,2.73-1.93,5.34.34,1.64,1.43,1.42,4.38,1.03,4.92-.18.25,1.89-.71,3.49.58s-1.01,3.18-1.01,3.18c0,0-19.32.12-24.18.25s-17.68-1.45-17.97-1.59Z"/>
      <path class="cls-9" d="m70.72,367.83c-1.73-.6-3.54-3.02-1.12-4.32,1.61-.86,2.5.89,2.6,1.08s-1.96-2.1-.27-4.23c.7-.89,2.15-1.13,3.41-.67.3.11-1.03-2.24.87-4.02,1.04-.97,2.9-1.3,4.58-.34.36.21-.96-1.98,1.1-4.03,2.7-2.68,7.17.61,7.45,1.98.06.29,1.43-2.5,4.16-2.92s5.23,1.32,5.23,3.61c0,.83,2.05-2.27,5.45-.79,1.88.82,2.92,3.21,2.15,5.25-.09.24,2.82-2,5.83-.02,1.9,1.25,1.88,4.07,1.5,4.6-.17.25,2-.79,3.84.33s-.85,3.08-.85,3.08c0,0-20.99,1.33-26.26,1.76s-19.33-.26-19.66-.38Z"/>
      <path class="cls-9" d="m158.59,365.8c-1.7-.69-3.41-3.27-.96-4.56,1.62-.86,2.45,1,2.54,1.21s-1.87-2.26-.13-4.44c.73-.91,2.17-1.12,3.41-.6.29.12-.95-2.38,1-4.18,1.06-.98,2.92-1.28,4.55-.22.35.23-.89-2.11,1.23-4.19,2.77-2.73,7.09.85,7.32,2.3.05.31,1.51-2.58,4.23-2.94s5.14,1.54,5.06,3.94c-.03.87,2.11-2.32,5.43-.66,1.84.92,2.79,3.45,1.96,5.57-.1.25,2.86-2.01,5.78.16,1.84,1.37,1.73,4.32,1.33,4.87-.18.25,2.01-.77,3.79.47s-.95,3.2-.95,3.2c0,0-20.86.76-26.1,1.06-5.24.3-19.17-.85-19.48-.98Z"/>
      <path class="cls-9" d="m115.4,367.02c-1.58-.66-3.19-3.22-.93-4.56,1.49-.88,2.27.97,2.36,1.17s-1.75-2.24-.16-4.45c.66-.92,2-1.15,3.14-.65.27.12-.9-2.37.89-4.21.97-1,2.69-1.33,4.21-.29.33.22-.84-2.1,1.1-4.22,2.53-2.78,6.56.74,6.79,2.19.05.31,1.37-2.61,3.88-3.01s4.77,1.46,4.72,3.87c-.02.88,1.93-2.36,5.01-.75,1.71.89,2.61,3.41,1.86,5.55-.09.25,2.63-2.06,5.35.07,1.71,1.34,1.64,4.3,1.28,4.86-.17.26,1.85-.81,3.51.41s-.85,3.23-.85,3.23c0,0-19.29,1.09-24.14,1.48-4.85.38-17.74-.55-18.03-.68Z"/>
      <path class="cls-23" d="m73.01,368.19c-1.3-.44-2.68-2.29-.89-3.34,1.18-.69,1.87.65,1.95.8s-1.49-1.6-.26-3.28c.51-.7,1.59-.91,2.53-.57.22.08-.8-1.73.59-3.13.76-.77,2.14-1.05,3.41-.33.27.16-.74-1.53.76-3.15,1.97-2.12,5.57.35,5.57,1.43s1.52-1.98,3.06-2.33c1.92-.44,3.91.95,3.95,2.72.01.65,1.49-1.79,4.04-.69,1.41.61,2.22,2.45,1.68,4.04-.06.19,2.07-1.6,4.34-.1,1.43.94,1.46,3.13,1.18,3.55-.13.19,1.48-.65,2.86.2s-.59,2.4-.59,2.4c0,0-15.61,1.34-19.53,1.76-3.92.42-14.4.08-14.65,0Z"/>
      <path class="cls-23" d="m194.35,365.55c-1.27-.53-2.53-2.46-.67-3.39,1.23-.61,1.83.77,1.89.93s-1.38-1.7-.04-3.29c.56-.66,1.64-.8,2.56-.4.22.09-.68-1.78.8-3.09.81-.71,2.21-.91,3.42-.1.26.17-.64-1.57.97-3.09,2.11-1.99,5.35.72,5.47,1.8.03.29.65-1.88,3.21-2.12,1.96-.18,3.84,1.2,3.76,2.98-.03.65,1.61-1.69,4.08-.42,1.37.7,2.05,2.59,1.41,4.15-.08.19,2.17-1.46,4.34.19,1.37,1.04,1.25,3.22.95,3.62-.14.18,1.52-.55,2.84.39s-.75,2.36-.75,2.36c0,0-15.67.31-19.61.46-3.94.16-14.38-.87-14.61-.97Z"/>
      <path class="cls-23" d="m251.49,365.98c1.14-.48,2.3-2.37.68-3.36-1.07-.66-1.64.71-1.7.86s1.26-1.65.12-3.29c-.48-.68-1.43-.86-2.26-.49-.19.09.65-1.75-.63-3.11-.7-.74-1.93-.99-3.03-.23-.24.16.61-1.55-.78-3.12-1.82-2.06-4.92.51-4.89,1.59s-1.41-1.93-2.79-2.24c-1.72-.38-3.43,1.06-3.4,2.84.01.65-1.38-1.75-3.6-.57-1.23.65-1.88,2.51-1.35,4.09.06.19-1.88-1.53-3.85.03-1.24.98-1.19,3.17-.93,3.58.12.19-1.33-.6-2.53.29s.6,2.39.6,2.39c0,0,13.87.88,17.35,1.18,3.48.3,12.76-.34,12.97-.43Z"/>
      <path class="cls-23" d="m252.66,365.89c-1.25-.58-2.42-2.56-.53-3.42,1.25-.56,1.79.85,1.85,1s-1.31-1.75.09-3.29c.58-.64,1.67-.73,2.58-.29.21.1-.61-1.8.92-3.05.84-.68,2.24-.82,3.42.04.26.18-.58-1.6,1.09-3.05,2.19-1.9,5.27.94,5.39,2.02.04.34.65-1.83,3.29-1.99,1.97-.12,3.79,1.36,3.63,3.13-.06.64,1.68-1.63,4.1-.26,1.34.76,1.95,2.67,1.24,4.2-.08.18,2.23-1.37,4.33.36,1.32,1.09,1.12,3.27.8,3.66-.15.18,1.54-.48,2.82.51s-.85,2.33-.85,2.33c0,0-15.67-.33-19.61-.34s-14.33-1.45-14.56-1.56Z"/>
      <path class="cls-23" d="m48.65,370.84c-1.27-.53-2.53-2.46-.67-3.39,1.23-.61,1.83.77,1.89.93s-1.38-1.7-.04-3.29c.56-.66,1.64-.8,2.56-.4.22.09-.68-1.78.8-3.09.81-.71,2.21-.91,3.42-.1.26.17-.64-1.57.97-3.09,2.11-1.99,5.16.75,5.47,1.8.07.23.57-1.85,3.21-2.12,1.96-.2,3.84,1.2,3.76,2.98-.03.65,1.61-1.69,4.08-.42,1.37.7,2.05,2.59,1.41,4.15-.08.19,2.17-1.46,4.34.19,1.37,1.04,1.25,3.22.95,3.62-.14.18,1.52-.55,2.84.39s-.75,2.36-.75,2.36c0,0-15.67.31-19.61.46-3.94.16-14.38-.87-14.61-.97Z"/>
      <path class="cls-19" d="m11.69,375.84c13.11-5.03,67.05-8.09,81.18-9.1,14.13-1.01,113.36-2.85,152.24-1.43,40.55,1.48,72.37,3.42,83.02,9.82,6.99,4.2-29.48,6.53-25.17,6.86s27.39.68,30.94,4.83c2.12,2.48-46.91,13.83-110.14,13.94-73.57.12-122.49-2.91-132.55-5.95-10.06-3.03,2.78-5.77,5.18-5.77s-43.57,1.42-47.5-2.52c-3.7-3.7,20.04-6.28,24.83-6.46s-72.56-.18-62.02-4.22Z"/>
      <path class="cls-22" d="m270.12,373.05h8.68s-2.07-12.23-1.58-22.76,1.08-17.68,2.42-21.56c1.33-3.88,3.7-9.81,5.13-12.21s3.06-5.62,3.6-6.23-1.28-1.99-2.02-1.12-5.38,6.16-7.91,10.78-4.51,8.12-6.29,16.76-2.42,19.01-2.52,22.48c-.1,3.47.49,13.87.49,13.87Z"/>
      <path class="cls-16" d="m287.42,310.53c-.09.28-5.97-2.71-8.03-5.47s-2.56-4.65-2.8-6.64-.75-7.21-.97-7.7-.76-2.88-.9-3.08,4.13,1.56,5.42,2.67c1.29,1.11,2.5,2.04,2.52,2.19s-1.24,1.76-1.31,1.9,1.66-1.25,1.75-1.32,3,4.3,3.82,6.66c.68,1.95,1.4,8.06.5,10.78Z"/>
      <path class="cls-21" d="m287.42,310.53c.03.16-3.37-1.53-4.73-2.54s-3.35-2.56-4.6-4.9c-1.25-2.34-1.6-4.29-1.78-7.1-.12-1.91-.57-4.71-.82-5.63s-.77-2.72-.77-2.72c0,0,3.21,4.32,3.78,5.72s2.3,6.97,3.82,9c2.76,3.68,5.03,7.82,5.1,8.16Z"/>
      <path class="cls-16" d="m287.24,309.73c.15.26-5.86,2.94-9.23,2.76-3.37-.18-5.08-1.01-6.69-2.11-1.61-1.1-5.78-4.1-6.27-4.24s-2.6-1.28-2.84-1.3,3.83-2.24,5.48-2.53c1.65-.3,3.13-.64,3.24-.56s.48,2.13.54,2.27.17-2.12.17-2.23,5.1.44,7.37,1.33c1.87.74,6.82,4.14,8.23,6.62Z"/>
      <path class="cls-21" d="m287.24,309.73c.14.08-3.31,1.66-4.93,2.07s-4.05.97-6.58.43-4.19-1.52-6.36-3.22c-1.48-1.15-3.82-2.62-4.66-3.01s-2.5-1.16-2.5-1.16c0,0,5.25.29,6.65.75,1.45.48,6.61,2.73,9.09,2.85,4.49.22,9,1.12,9.31,1.29Z"/>
      <path class="cls-16" d="m287.23,309.76c.27.1-2.78,6.1-5.51,8.16s-4.56,2.52-6.48,2.71-6.98.57-7.45.78-2.8.7-3,.84,1.62-4.23,2.73-5.54,2.04-2.53,2.18-2.54,1.67,1.34,1.8,1.41-1.16-1.76-1.22-1.85,4.24-2.98,6.54-3.76c1.9-.64,7.82-1.22,10.42-.21Z"/>
      <path class="cls-21" d="m287.23,309.76c.16-.03-1.57,3.45-2.58,4.82s-2.56,3.39-4.86,4.62-4.18,1.54-6.9,1.64c-1.85.07-4.56.45-5.45.69s-2.65.72-2.65.72c0,0,4.26-3.2,5.63-3.75,1.42-.57,6.79-2.18,8.8-3.7,3.63-2.75,7.69-4.99,8.02-5.05Z"/>
      <path class="cls-22" d="m92.16,370.22h-8.68s2.07-12.23,1.58-22.76c-.49-10.53-1.09-17.68-2.42-21.56-1.33-3.88-3.7-9.81-5.13-12.21s-3.06-5.62-3.6-6.23,1.28-1.99,2.02-1.12,5.38,6.16,7.92,10.78,4.52,8.12,6.29,16.76c1.78,8.63,2.42,19.01,2.52,22.48s-.49,13.87-.49,13.87Z"/>
      <path class="cls-16" d="m74.85,307.7c.09.28,5.97-2.71,8.03-5.47s2.56-4.65,2.8-6.64.75-7.21.97-7.7.76-2.88.9-3.08-4.13,1.56-5.42,2.67-2.5,2.04-2.52,2.19,1.24,1.76,1.31,1.9-1.66-1.25-1.75-1.32-3,4.3-3.82,6.66c-.68,1.95-1.4,8.06-.5,10.78Z"/>
      <path class="cls-21" d="m74.85,307.7c-.03.16,3.37-1.53,4.73-2.54s3.35-2.56,4.6-4.9,1.6-4.29,1.78-7.1c.12-1.91.57-4.71.82-5.63s.78-2.72.78-2.72c0,0-3.21,4.32-3.78,5.72s-2.3,6.97-3.82,9c-2.76,3.68-5.03,7.82-5.1,8.16Z"/>
      <path class="cls-16" d="m75.07,307.71c.27.1,1.72-6.51.94-9.91-.78-3.4-1.88-4.99-3.22-6.43s-4.94-5.14-5.17-5.62-1.69-2.42-1.75-2.66-1.43,4.3-1.41,6.04-.04,3.3.06,3.41,2.11.11,2.25.14-1.98.56-2.09.58,1.34,5.12,2.6,7.26c1.04,1.77,5.17,6.2,7.78,7.18Z"/>
      <path class="cls-21" d="m75.07,307.71c.1.13.97-3.68,1.07-5.4s.19-4.3-.79-6.78-2.21-3.99-4.21-5.9c-1.36-1.3-3.18-3.42-3.71-4.2s-1.56-2.34-1.56-2.34c0,0,1.23,5.3,1.92,6.64s3.79,6.23,4.36,8.74c1.03,4.54,2.71,8.97,2.92,9.24Z"/>
      <path class="cls-16" d="m75.5,307.5c.27-.11-2.9-6.04-5.66-8.05-2.77-2-4.61-2.43-6.53-2.58s-6.99-.44-7.47-.64-2.81-.64-3.01-.78,1.7,4.2,2.83,5.48,2.09,2.49,2.23,2.5,1.64-1.37,1.77-1.44-1.12,1.78-1.19,1.87,4.29,2.9,6.61,3.63c1.91.61,7.84,1.07,10.42,0Z"/>
      <path class="cls-21" d="m75.5,307.5c.16.03-1.63-3.42-2.67-4.77s-2.63-3.34-4.94-4.52-4.21-1.46-6.93-1.5c-1.85-.03-4.57-.36-5.47-.58s-2.66-.67-2.66-.67c0,0,4.32,3.11,5.7,3.63s6.83,2.04,8.86,3.52c3.68,2.68,7.78,4.83,8.12,4.89Z"/>
      <path class="cls-16" d="m75.27,306.39c.11-.27-6.19-2.11-9.51-1.47-3.32.63-4.91,1.69-6.36,3.01-1.46,1.31-5.21,4.85-5.68,5.06s-2.42,1.62-2.66,1.67,4.08,1.69,5.76,1.76c1.68.07,3.18.21,3.29.11s.21-2.17.25-2.32.44,2.08.45,2.19,5-1.13,7.14-2.32c1.76-.98,6.24-5.03,7.32-7.68Z"/>
      <path class="cls-21" d="m75.27,306.39c.13-.1-3.5-1.19-5.15-1.38s-4.14-.41-6.58.47-3.96,2.08-5.9,4.06c-1.32,1.34-3.46,3.12-4.24,3.62s-2.33,1.49-2.33,1.49c0,0,5.17-1,6.5-1.65s6.2-3.6,8.65-4.06c4.43-.83,8.78-2.34,9.06-2.55Z"/>
      <path class="cls-16" d="m75.75,306.4c-.11-.27-5.75,3.17-7.6,6.1-1.85,2.92-2.21,4.84-2.3,6.84s-.22,7.25-.4,7.75-.54,2.93-.67,3.14,4-1.88,5.21-3.09,2.35-2.23,2.35-2.38-1.37-1.66-1.45-1.79,1.75,1.11,1.84,1.17,2.67-4.53,3.31-6.95c.53-2,.8-8.15-.3-10.79Z"/>
      <path class="cls-21" d="m75.75,306.4c.02-.17-3.25,1.79-4.53,2.9s-3.15,2.81-4.22,5.25c-1.07,2.44-1.28,4.4-1.25,7.22.02,1.91-.22,4.74-.4,5.68s-.57,2.78-.57,2.78c0,0,2.88-4.56,3.34-6s1.77-7.13,3.14-9.28c2.48-3.89,4.44-8.19,4.49-8.55Z"/>
      <path class="cls-16" d="m75.03,306.9c-.15.26,5.87,2.94,9.24,2.76s5.08-1.01,6.69-2.11,5.78-4.1,6.28-4.24,2.6-1.28,2.85-1.3-3.83-2.24-5.48-2.53c-1.65-.3-3.13-.64-3.24-.56s-.48,2.13-.54,2.27-.17-2.12-.17-2.23-5.1.44-7.37,1.33c-1.87.74-6.82,4.14-8.24,6.62Z"/>
      <path class="cls-21" d="m75.03,306.9c-.14.08,3.31,1.66,4.93,2.07,1.62.41,4.05.97,6.58.43,2.53-.54,4.19-1.52,6.37-3.22,1.48-1.15,3.82-2.62,4.66-3.01s2.5-1.16,2.5-1.16c0,0-5.26.29-6.65.75s-6.61,2.73-9.09,2.85c-4.49.22-9.01,1.12-9.31,1.29Z"/>
      <path class="cls-16" d="m75.04,306.93c-.27.1,2.78,6.1,5.51,8.16s4.56,2.52,6.49,2.71,6.98.57,7.46.78,2.8.7,3,.84-1.62-4.23-2.73-5.54-2.04-2.53-2.19-2.54-1.67,1.34-1.8,1.41,1.16-1.76,1.22-1.85-4.24-2.98-6.54-3.76c-1.9-.64-7.82-1.22-10.42-.21Z"/>
      <path class="cls-21" d="m75.04,306.93c-.16-.03,1.57,3.45,2.58,4.82s2.56,3.39,4.86,4.62c2.3,1.22,4.18,1.54,6.91,1.64,1.85.07,4.56.45,5.46.69s2.65.72,2.65.72c0,0-4.26-3.2-5.63-3.75s-6.8-2.18-8.8-3.7c-3.63-2.75-7.69-4.99-8.03-5.05Z"/>
      <path class="cls-22" d="m223.48,367.79h8.52s-2.03-13.24-1.55-24.64c.48-11.4,1.06-19.14,2.37-23.35s3.63-10.62,5.03-13.22c1.4-2.6,3-6.09,3.53-6.75s-1.26-2.16-1.98-1.22-5.27,6.67-7.77,11.68c-2.45,4.93-4.43,8.8-6.17,18.15-1.74,9.35-2.37,20.58-2.47,24.34-.1,3.76.48,15.02.48,15.02Z"/>
      <path class="cls-16" d="m240.45,300.09c-.09.3-5.85-2.93-7.88-5.93-2.02-3-2.51-5.04-2.75-7.19s-.74-7.81-.95-8.33-.74-3.12-.88-3.34,4.05,1.69,5.32,2.89,2.46,2.21,2.47,2.37-1.22,1.91-1.28,2.06,1.63-1.35,1.72-1.43,2.94,4.66,3.74,7.22c.66,2.11,1.38,8.73.49,11.68Z"/>
      <path class="cls-21" d="m240.45,300.09c.03.18-3.31-1.65-4.64-2.75s-3.29-2.77-4.51-5.31c-1.22-2.54-1.57-4.64-1.74-7.69-.12-2.07-.56-5.1-.81-6.1s-.76-2.95-.76-2.95c0,0,3.15,4.68,3.7,6.2s2.25,7.55,3.75,9.75c2.71,3.99,4.94,8.47,5.01,8.84Z"/>
      <path class="cls-16" d="m240.24,300.1c-.26.11-1.69-7.05-.92-10.73s1.85-5.4,3.16-6.96,4.85-5.57,5.07-6.08,1.65-2.62,1.71-2.88,1.4,4.66,1.38,6.54.04,3.57-.06,3.69-2.07.11-2.21.15,1.94.6,2.05.63-1.32,5.54-2.55,7.87c-1.02,1.92-5.07,6.71-7.63,7.78Z"/>
      <path class="cls-21" d="m240.24,300.1c-.1.14-.96-3.98-1.05-5.85s-.18-4.66.77-7.34c.96-2.68,2.17-4.32,4.13-6.39,1.33-1.4,3.12-3.7,3.64-4.55s1.53-2.53,1.53-2.53c0,0-1.21,5.74-1.88,7.19s-3.72,6.75-4.28,9.46c-1.01,4.91-2.65,9.71-2.87,10.01Z"/>
      <path class="cls-16" d="m239.82,299.87c-.26-.12,2.84-6.55,5.56-8.71,2.71-2.17,4.52-2.63,6.41-2.8s6.86-.47,7.33-.69,2.76-.7,2.96-.85-1.67,4.54-2.78,5.94-2.05,2.7-2.19,2.71-1.61-1.49-1.74-1.56,1.1,1.93,1.16,2.03-4.21,3.14-6.48,3.93c-1.88.66-7.69,1.16-10.23,0Z"/>
      <path class="cls-21" d="m239.82,299.87c-.16.03,1.6-3.7,2.62-5.17s2.58-3.62,4.85-4.9,4.13-1.58,6.8-1.63c1.81-.03,4.48-.39,5.36-.63s2.61-.73,2.61-.73c0,0-4.24,3.37-5.59,3.94s-6.7,2.21-8.7,3.81c-3.61,2.9-7.63,5.23-7.96,5.3Z"/>
      <path class="cls-16" d="m240.05,298.67c-.11-.3,6.07-2.28,9.33-1.6,3.26.69,4.81,1.83,6.24,3.25s5.11,5.25,5.57,5.48,2.37,1.76,2.61,1.81-4,1.83-5.65,1.91-3.12.23-3.22.12-.21-2.35-.25-2.51-.43,2.25-.45,2.37-4.91-1.22-7-2.52c-1.73-1.07-6.12-5.45-7.18-8.32Z"/>
      <path class="cls-21" d="m240.05,298.67c-.13-.11,3.43-1.29,5.06-1.49s4.06-.45,6.46.51,3.88,2.25,5.79,4.4c1.29,1.45,3.39,3.37,4.16,3.92s2.29,1.62,2.29,1.62c0,0-5.08-1.09-6.38-1.79s-6.09-3.9-8.48-4.4c-4.34-.9-8.62-2.54-8.89-2.76Z"/>
      <path class="cls-16" d="m239.57,298.68c.11-.29,5.64,3.44,7.46,6.6s2.17,5.24,2.26,7.41.21,7.85.39,8.39.53,3.17.66,3.4-3.92-2.04-5.11-3.34-2.3-2.42-2.3-2.58,1.35-1.8,1.42-1.94-1.72,1.2-1.81,1.27-2.62-4.9-3.25-7.52c-.52-2.16-.79-8.82.29-11.69Z"/>
      <path class="cls-21" d="m239.57,298.68c-.02-.18,3.19,1.94,4.44,3.14s3.09,3.05,4.14,5.68,1.26,4.77,1.22,7.82c-.02,2.07.21,5.14.4,6.15s.56,3.01.56,3.01c0,0-2.82-4.94-3.28-6.5s-1.74-7.73-3.08-10.05c-2.43-4.21-4.35-8.87-4.4-9.25Z"/>
      <path class="cls-16" d="m240.28,299.23c.14.28-5.75,3.18-9.06,2.99-3.31-.19-4.98-1.09-6.56-2.29-1.58-1.19-5.67-4.44-6.16-4.59s-2.55-1.38-2.79-1.4,3.75-2.42,5.38-2.74,3.07-.7,3.18-.6.47,2.3.53,2.45.16-2.3.17-2.42,5.01.47,7.23,1.44c1.83.8,6.7,4.48,8.08,7.17Z"/>
      <path class="cls-21" d="m240.28,299.23c.14.09-3.25,1.8-4.84,2.24s-3.98,1.05-6.46.47-4.11-1.65-6.25-3.48c-1.45-1.24-3.75-2.83-4.58-3.26s-2.45-1.26-2.45-1.26c0,0,5.16.31,6.53.81s6.48,2.95,8.92,3.08c4.41.24,8.84,1.22,9.13,1.4Z"/>
      <path class="cls-16" d="m240.27,299.26c.26.11-2.73,6.61-5.41,8.83s-4.48,2.73-6.36,2.94-6.85.62-7.31.85-2.75.76-2.94.91,1.59-4.58,2.68-6,2-2.74,2.14-2.76,1.63,1.45,1.76,1.53-1.13-1.9-1.2-2,4.16-3.23,6.42-4.07c1.87-.7,7.67-1.32,10.22-.23Z"/>
      <path class="cls-21" d="m240.27,299.26c.16-.03-1.54,3.73-2.53,5.22s-2.51,3.68-4.77,5c-2.25,1.33-4.1,1.67-6.77,1.77-1.81.07-4.48.49-5.35.75s-2.6.78-2.6.78c0,0,4.18-3.46,5.52-4.06,1.39-.62,6.67-2.36,8.63-4,3.56-2.98,7.54-5.4,7.87-5.47Z"/>
      <path class="cls-22" d="m250.04,371.58h-5.47s1.3-8.21.99-15.27-.68-11.87-1.52-14.47-2.33-6.58-3.23-8.2-1.93-3.77-2.27-4.18.81-1.34,1.27-.75,3.39,4.13,4.98,7.24c1.57,3.05,2.84,5.45,3.96,11.25,1.12,5.8,1.52,12.76,1.58,15.09.06,2.33-.31,9.31-.31,9.31Z"/>
      <path class="cls-16" d="m239.15,329.62c.06.19,3.76-1.82,5.06-3.67s1.61-3.12,1.76-4.45.47-4.84.61-5.17.48-1.93.57-2.07-2.6,1.05-3.41,1.79-1.58,1.37-1.59,1.47.78,1.18.82,1.28-1.05-.84-1.1-.88-1.89,2.89-2.4,4.47c-.43,1.31-.88,5.41-.32,7.24Z"/>
      <path class="cls-21" d="m239.15,329.62c-.02.11,2.12-1.02,2.98-1.7s2.11-1.72,2.89-3.29,1.01-2.88,1.12-4.77c.07-1.28.36-3.16.52-3.78s.49-1.83.49-1.83c0,0-2.02,2.9-2.38,3.84s-1.45,4.68-2.4,6.04c-1.74,2.47-3.17,5.25-3.21,5.48Z"/>
      <path class="cls-16" d="m239.29,329.62c.17.07,1.08-4.37.59-6.65s-1.18-3.35-2.03-4.31-3.11-3.45-3.25-3.77-1.06-1.62-1.1-1.79-.9,2.89-.89,4.06-.03,2.22.04,2.29,1.33.07,1.42.1-1.25.37-1.32.39.85,3.44,1.64,4.88c.65,1.19,3.25,4.16,4.9,4.82Z"/>
      <path class="cls-21" d="m239.29,329.62c.06.09.61-2.47.67-3.63s.12-2.89-.5-4.55-1.39-2.68-2.65-3.96c-.86-.87-2-2.29-2.34-2.82s-.98-1.57-.98-1.57c0,0,.77,3.56,1.21,4.46s2.39,4.18,2.74,5.86c.65,3.05,1.7,6.02,1.84,6.2Z"/>
      <path class="cls-16" d="m239.56,329.48c.17-.07-1.82-4.06-3.56-5.4s-2.9-1.63-4.11-1.73-4.4-.29-4.7-.43-1.77-.43-1.9-.53,1.07,2.82,1.78,3.68,1.31,1.67,1.41,1.68,1.03-.92,1.12-.97-.71,1.19-.75,1.26,2.7,1.94,4.16,2.44c1.2.41,4.94.72,6.56,0Z"/>
      <path class="cls-21" d="m239.56,329.48c.1.02-1.03-2.29-1.68-3.2s-1.65-2.24-3.11-3.04-2.65-.98-4.37-1.01c-1.16-.02-2.88-.24-3.44-.39s-1.68-.45-1.68-.45c0,0,2.72,2.09,3.59,2.44s4.3,1.37,5.58,2.36c2.32,1.8,4.9,3.24,5.11,3.28Z"/>
      <path class="cls-16" d="m239.41,328.74c.07-.18-3.9-1.42-5.99-.99s-3.09,1.14-4.01,2.02-3.28,3.26-3.58,3.4-1.52,1.09-1.67,1.12,2.57,1.14,3.62,1.18,2,.14,2.07.07.13-1.46.16-1.56.27,1.39.29,1.47,3.15-.76,4.49-1.56c1.11-.66,3.93-3.38,4.61-5.16Z"/>
      <path class="cls-21" d="m239.41,328.74c.08-.07-2.2-.8-3.24-.93s-2.61-.28-4.14.32-2.49,1.4-3.72,2.72c-.83.9-2.18,2.09-2.67,2.43s-1.47,1-1.47,1c0,0,3.26-.67,4.09-1.11s3.91-2.42,5.44-2.73c2.79-.56,5.53-1.57,5.71-1.71Z"/>
      <path class="cls-16" d="m239.71,328.74c-.07-.18-3.62,2.13-4.79,4.09s-1.39,3.25-1.45,4.59-.14,4.87-.25,5.2-.34,1.97-.42,2.11,2.52-1.26,3.28-2.07,1.48-1.5,1.48-1.6-.86-1.11-.91-1.2,1.1.75,1.16.79,1.68-3.04,2.09-4.66c.33-1.34.51-5.47-.19-7.24Z"/>
      <path class="cls-21" d="m239.71,328.74c.01-.11-2.05,1.2-2.85,1.95s-1.98,1.89-2.66,3.52-.81,2.95-.79,4.85c.01,1.28-.14,3.18-.25,3.81s-.36,1.86-.36,1.86c0,0,1.81-3.06,2.1-4.03s1.12-4.79,1.98-6.23c1.56-2.61,2.79-5.5,2.82-5.74Z"/>
      <path class="cls-16" d="m239.26,329.08c-.09.17,3.69,1.97,5.82,1.85s3.2-.68,4.21-1.42,3.64-2.75,3.95-2.85,1.64-.86,1.79-.87-2.41-1.5-3.45-1.7-1.97-.43-2.04-.37-.3,1.43-.34,1.52-.11-1.42-.11-1.5-3.21.29-4.64.89c-1.18.49-4.3,2.78-5.19,4.44Z"/>
      <path class="cls-21" d="m239.26,329.08c-.09.05,2.09,1.12,3.11,1.39s2.55.65,4.14.29,2.64-1.02,4.01-2.16c.93-.77,2.41-1.76,2.94-2.02s1.57-.78,1.57-.78c0,0-3.31.19-4.19.5s-4.16,1.83-5.72,1.91c-2.83.15-5.67.75-5.86.87Z"/>
      <path class="cls-16" d="m239.27,329.1c-.17.07,1.75,4.09,3.47,5.47s2.87,1.69,4.08,1.82,4.4.39,4.69.53,1.76.47,1.89.57-1.02-2.84-1.72-3.72-1.29-1.7-1.38-1.71-1.05.9-1.13.95.73-1.18.77-1.24-2.67-2-4.12-2.52c-1.2-.43-4.92-.82-6.56-.14Z"/>
      <path class="cls-21" d="m239.27,329.1c-.1-.02.99,2.31,1.63,3.24s1.61,2.28,3.06,3.1,2.63,1.03,4.35,1.1c1.16.05,2.87.3,3.44.46s1.67.49,1.67.49c0,0-2.68-2.14-3.54-2.51s-4.28-1.46-5.54-2.48c-2.29-1.85-4.84-3.35-5.05-3.39Z"/>
      <path class="cls-21" d="m58.36,371.17c3.75-1.87,11.25-2.99,15.45-3.58,2.85-.4,24.5-1.64,28.75-1.78,4.25-.14,52.49-1.17,59.49-1.25,7-.08,52.29-.34,54.26-.3s10.75.28,16.08,0c5.33-.28,28.51,1.18,29.98,1.24,1.48.07,22.4,1.01,29.61,1.83,2.24.26,12.83,1.5,14.21,3.02s-25.06,7.39-27.72,7.7c-2.66.3,10.16.81,6.12,2.03s-70.44,4.96-97.08,4.76c-26.64-.2-89.04-1.62-94.84-3.04-5.79-1.42,5.5-1.47,7.58-1.47s-56.12-2.05-41.88-9.17Z"/>
    </g>
  </g>
  <g id="autor">
    <path class="cls-10" d="m113.27,25.59s.07.06.09.11c.02.05.04.1.04.14,0,.08-.02.16-.06.22-.04.07-.09.12-.15.16-.06.04-.12.06-.18.06-.07,0-.13-.02-.18-.06-.05-.04-.1-.07-.15-.1-.24-.17-.46-.3-.66-.4s-.4-.17-.6-.21c-.2-.04-.44-.06-.71-.06-.46,0-.87.12-1.21.37s-.61.6-.8,1.06-.29,1.02-.29,1.66c0,.54.09,1.02.27,1.45s.43.75.76.99.7.36,1.13.36c.27,0,.55-.04.81-.13.27-.09.52-.21.77-.37.24-.16.45-.34.64-.56.05-.06.1-.1.15-.12.05-.02.11-.04.17-.04.07,0,.13.02.19.05.06.03.1.08.14.15.04.06.06.13.06.21,0,.08-.03.17-.07.25-.05.09-.13.18-.23.29-.32.34-.72.61-1.18.8-.46.19-.94.29-1.44.29-.64,0-1.18-.14-1.63-.43-.45-.29-.8-.7-1.04-1.24s-.36-1.2-.36-1.96c0-.59.08-1.13.23-1.6.16-.47.38-.88.66-1.22.29-.34.63-.6,1.02-.78.4-.18.83-.27,1.31-.27.3,0,.6.04.89.11.29.07.58.18.85.31.27.14.52.31.75.51Z"/>
    <path class="cls-10" d="m115.31,24.66c.01-.12.06-.22.14-.29.08-.07.18-.1.3-.1.11,0,.2.02.26.07.06.04.1.1.12.18s.03.17.02.27c-.01.17-.04.45-.08.83-.04.38-.08.9-.13,1.57-.05.67-.09,1.52-.12,2.56,0,.33-.02.65-.03.97-.01.31-.03.63-.04.94,0,.14-.04.24-.12.3-.08.06-.18.09-.31.09s-.22-.03-.3-.09-.12-.16-.12-.3c.02-.59.04-1.18.07-1.77.02-.59.05-1.18.08-1.77s.07-1.17.11-1.75c.04-.58.09-1.15.15-1.71Z"/>
    <path class="cls-10" d="m117.27,29.77c0-.37.06-.72.17-1.07.11-.35.27-.66.48-.93.21-.27.45-.49.72-.65.28-.16.58-.24.91-.24.19,0,.38.03.57.09.19.06.38.16.56.3.03-.14.08-.24.14-.29s.14-.09.24-.09c.12,0,.23.04.32.12.09.08.13.19.12.33,0,.19-.03.43-.07.72-.04.28-.07.57-.11.85-.01.09-.03.21-.06.37-.02.16-.05.32-.06.47-.02.16-.02.28-.02.37,0,.12,0,.27.03.44.02.18.05.34.11.47.05.14.12.21.21.21.07,0,.13-.02.19-.07.06-.05.11-.12.16-.22.03-.07.08-.12.14-.15.06-.03.12-.04.18-.04.07,0,.13.02.2.05.06.03.11.08.14.14.03.06.05.13.04.22,0,.12-.05.25-.14.38-.09.14-.22.25-.38.35-.16.1-.35.15-.55.15-.17,0-.33-.04-.47-.11-.14-.07-.25-.18-.34-.32s-.15-.31-.18-.51c-.19.27-.39.49-.62.64s-.49.23-.8.23c-.4,0-.73-.1-1-.29-.27-.19-.47-.45-.61-.78-.14-.33-.21-.71-.21-1.13Zm.87-.04c0,.31.04.57.11.78.07.21.18.38.32.5.14.12.32.17.54.17.17,0,.32-.04.45-.12.12-.08.23-.19.33-.32s.17-.3.24-.48c.06-.16.12-.33.16-.51.05-.19.09-.38.12-.58.03-.2.06-.4.07-.59.02-.19.03-.37.05-.53-.15-.12-.31-.22-.48-.29s-.33-.1-.46-.1c-.22,0-.43.06-.6.17-.18.12-.33.27-.46.47s-.22.42-.29.66c-.07.25-.1.5-.1.77Z"/>
    <path class="cls-10" d="m124.89,32.07c-.31,0-.56-.08-.78-.23-.21-.16-.38-.36-.51-.62-.13-.26-.23-.54-.29-.85-.06-.31-.09-.62-.09-.93,0-.39.03-.77.08-1.16.06-.39.12-.76.18-1.11.01-.09.06-.16.15-.22.08-.06.18-.08.29-.08.12,0,.22.04.3.13.07.09.11.19.11.32,0,.11-.03.26-.07.43-.04.17-.08.39-.12.66-.04.27-.06.59-.06.99,0,.29.04.57.09.86.05.29.14.53.26.72.12.19.28.29.48.29s.39-.07.56-.22c.17-.15.31-.33.44-.55s.24-.45.33-.7c.09-.24.16-.46.21-.65.02-.36.03-.69.04-1.01,0-.32.01-.62.02-.9,0-.12.05-.22.14-.29.08-.07.19-.1.3-.1.08,0,.15.02.22.05.06.03.11.08.15.14.04.06.06.13.06.22,0,.06,0,.16,0,.29s0,.29,0,.45c0,.17-.02.34-.03.53-.02.18-.04.36-.07.53-.02.46-.03.91-.04,1.35,0,.44-.04.87-.08,1.29,0,.1-.05.18-.13.25-.08.07-.18.1-.31.1-.16,0-.27-.04-.32-.12s-.08-.17-.08-.26c0-.06,0-.12.01-.18,0-.06.02-.13.03-.21s.01-.16.01-.25c-.09.14-.19.28-.3.4-.11.12-.22.23-.34.33-.12.09-.25.17-.39.22-.14.05-.29.08-.45.08Z"/>
    <path class="cls-10" d="m132.12,24.56c.01-.13.06-.23.14-.29.08-.06.17-.09.28-.09.12,0,.22.03.31.09.09.06.13.16.12.3-.08,1.18-.15,2.36-.2,3.55-.05,1.19-.11,2.37-.16,3.56,0,.13-.05.23-.14.29-.09.06-.19.09-.3.09s-.2-.03-.29-.1-.13-.16-.12-.28c0-.08.01-.16.01-.23,0-.07,0-.15.01-.24,0-.09.01-.19.02-.32-.14.24-.3.44-.48.61-.18.17-.37.3-.58.39s-.41.14-.63.14c-.26,0-.49-.07-.69-.21-.2-.14-.36-.32-.49-.54-.13-.22-.23-.47-.29-.73-.07-.26-.1-.52-.1-.77,0-.37.06-.73.18-1.08.12-.35.28-.66.5-.94.21-.28.46-.5.75-.66.29-.16.6-.24.94-.24.17,0,.34.02.52.07.18.04.35.12.53.22.02-.29.04-.58.05-.87.02-.29.03-.58.05-.87.02-.29.04-.57.06-.85Zm-2.7,5.24c0,.24.03.47.1.69.07.22.16.4.28.54.12.14.25.21.39.21.21,0,.4-.07.58-.21s.34-.32.49-.54.26-.44.35-.67c.09-.23.14-.43.15-.6,0-.04.02-.07.03-.1.01-.03.03-.05.07-.08l.06-1.02c-.15-.13-.31-.23-.5-.29-.18-.06-.34-.09-.49-.09-.23,0-.46.08-.7.25-.23.17-.43.41-.58.73-.16.32-.23.71-.23,1.17Z"/>
    <path class="cls-10" d="m136.21,31.96c-.34,0-.65-.07-.92-.21-.27-.14-.5-.32-.68-.56-.19-.23-.33-.5-.43-.79-.1-.29-.15-.58-.15-.88,0-.32.06-.63.19-.94.13-.31.31-.6.53-.86.23-.26.49-.47.79-.63.3-.16.62-.23.96-.23.27,0,.5.05.71.16.2.11.36.26.48.44.12.19.17.41.17.65,0,.26-.07.51-.2.74-.13.23-.31.42-.55.57-.32.22-.67.37-1.04.45-.38.08-.76.13-1.15.14.05.18.13.36.24.53.11.17.26.32.43.43.18.12.39.17.63.17s.45-.07.67-.2c.22-.13.4-.29.56-.46.04-.05.08-.08.13-.1.05-.02.09-.03.14-.03.07,0,.14.02.21.06.06.04.11.09.15.15.04.06.06.13.06.21,0,.05,0,.1-.02.14-.02.05-.05.09-.09.14-.23.25-.5.46-.81.63-.31.17-.65.26-1.01.26Zm-1.31-2.69c.25-.01.48-.03.69-.06.21-.03.43-.09.66-.18.21-.08.39-.2.54-.35.16-.15.23-.34.23-.56,0-.09-.02-.17-.06-.24-.04-.07-.1-.13-.18-.18-.08-.05-.18-.07-.3-.07-.2,0-.39.05-.57.15-.18.1-.34.23-.49.39-.14.16-.26.34-.35.53-.09.19-.15.38-.18.57Z"/>
    <path class="cls-10" d="m139.5,27.07c.02-.11.07-.18.15-.23.08-.05.17-.07.26-.07.11,0,.21.04.29.11.08.07.13.16.13.26,0,.03,0,.1-.02.2-.01.1-.02.21-.04.33-.01.12-.02.23-.03.33.12-.22.27-.42.43-.6.16-.17.34-.31.54-.41.2-.1.42-.15.65-.15.55,0,.97.2,1.24.59.27.4.41.92.41,1.57,0,.32-.02.63-.07.93-.04.3-.09.6-.13.89-.04.29-.07.58-.07.87,0,.12-.04.21-.13.28s-.19.1-.3.1-.22-.03-.3-.1-.13-.17-.13-.29c0-.31.02-.6.07-.88.05-.28.09-.56.14-.85.04-.29.07-.59.07-.9,0-.37-.04-.66-.12-.86-.08-.2-.18-.34-.32-.42-.13-.08-.29-.12-.45-.12-.21,0-.4.07-.57.22-.17.15-.32.33-.44.55-.13.22-.23.45-.32.7-.08.24-.15.46-.2.65,0,.34,0,.68,0,1.01,0,.33-.02.63-.04.92,0,.11-.05.2-.13.27-.08.07-.19.11-.32.11s-.22-.04-.29-.11c-.07-.07-.12-.17-.14-.29-.03-.12-.04-.25-.04-.38,0-.22,0-.45.03-.69.02-.24.05-.48.1-.71,0-.36,0-.67,0-.95s0-.53,0-.75c0-.22.01-.42.03-.6.02-.18.04-.35.07-.51Z"/>
    <path class="cls-10" d="m145.14,27.27c0-.09.02-.16.06-.22s.09-.1.16-.13c.07-.03.13-.04.2-.04.12,0,.23.03.31.09.08.06.13.16.13.29,0,.45,0,.85-.02,1.2s-.03.68-.05,1c-.02.32-.04.65-.05,1.01-.02.35-.03.76-.03,1.22,0,.12-.04.22-.12.29-.08.07-.18.11-.3.11-.12,0-.22-.03-.28-.08-.06-.06-.1-.13-.13-.22-.02-.09-.03-.18-.03-.27,0-.06,0-.19.01-.41,0-.22.02-.49.04-.81.02-.32.03-.66.05-1.03.02-.36.03-.72.04-1.07,0-.35.01-.66.01-.94Zm-.13-1.97c0-.11.02-.21.07-.32.05-.11.11-.2.19-.28.08-.07.17-.11.28-.11.2,0,.35.04.44.12.1.08.16.17.19.27.03.1.05.18.05.23,0,.17-.06.32-.19.46-.13.14-.28.21-.45.21-.16,0-.29-.06-.41-.17-.12-.11-.17-.25-.17-.41Z"/>
    <path class="cls-10" d="m147.98,24.66c.01-.12.06-.22.14-.29.08-.07.18-.1.3-.1.11,0,.2.02.26.07.06.04.1.1.12.18s.03.17.02.27c-.01.17-.04.45-.08.83-.04.38-.08.9-.13,1.57-.05.67-.09,1.52-.12,2.56,0,.33-.02.65-.03.97-.01.31-.03.63-.04.94,0,.14-.04.24-.12.3-.08.06-.18.09-.31.09s-.22-.03-.3-.09-.12-.16-.12-.3c.02-.59.04-1.18.07-1.77.02-.59.05-1.18.08-1.77s.07-1.17.11-1.75c.04-.58.09-1.15.15-1.71Z"/>
    <path class="cls-10" d="m153.29,27.55s.07.1.08.15.02.1.02.14c0,.07-.02.14-.06.2-.04.06-.09.11-.15.14-.06.03-.13.05-.2.05-.06,0-.12-.02-.17-.05s-.1-.07-.14-.11c-.06-.09-.17-.19-.31-.28-.15-.09-.33-.14-.55-.14-.21,0-.38.05-.53.15-.15.1-.22.23-.22.39,0,.19.06.34.19.44.13.1.33.22.62.36.22.11.43.23.63.38.2.15.37.32.51.53.13.21.2.46.2.75,0,.25-.06.48-.18.68s-.29.37-.51.5c-.22.12-.48.19-.79.19-.34,0-.68-.08-1.02-.23s-.62-.33-.86-.54c-.04-.04-.07-.08-.09-.13-.02-.05-.03-.09-.03-.14,0-.11.04-.21.12-.3.08-.09.17-.14.28-.14.03,0,.06,0,.1.02.03.01.07.03.12.07.2.16.42.3.65.42.23.12.46.19.67.19.24,0,.41-.05.52-.16s.16-.23.16-.37c0-.22-.09-.42-.26-.58s-.39-.31-.67-.43c-.29-.13-.52-.27-.71-.42s-.32-.31-.4-.49c-.08-.18-.13-.37-.13-.58,0-.26.08-.49.23-.69.15-.2.35-.36.6-.47.25-.11.52-.17.8-.17s.57.06.84.17c.27.12.48.28.64.49Z"/>
    <path class="cls-10" d="m156.45,26.85c.14,0,.29.01.43.04.14.03.28.07.4.12.12.05.23.12.32.2.29.23.5.53.63.9.13.37.2.75.2,1.16,0,.34-.04.68-.13,1-.09.32-.21.61-.38.87-.17.26-.37.46-.62.62-.24.15-.52.23-.83.23s-.61-.07-.88-.21c-.27-.14-.51-.32-.72-.56s-.36-.51-.48-.82c-.11-.31-.17-.63-.17-.98,0-.32.05-.64.14-.94s.24-.58.43-.83c.19-.25.42-.44.7-.58.28-.14.59-.22.95-.22Zm-1.37,2.51c0,.31.05.61.16.88.11.28.26.5.46.67.2.17.45.26.73.26.2,0,.37-.05.51-.16.14-.11.26-.26.36-.44s.16-.38.21-.6c.04-.22.07-.43.07-.65,0-.38-.06-.7-.18-.97-.12-.26-.29-.47-.49-.61-.08-.02-.16-.04-.24-.05-.08,0-.16-.01-.24-.01-.21,0-.4.05-.57.14s-.31.22-.43.37c-.12.16-.2.34-.26.54-.06.2-.09.41-.09.64Z"/>
    <path class="cls-10" d="m159.88,27.07c.02-.11.07-.18.15-.23.08-.05.17-.07.26-.07.11,0,.21.04.29.11.08.07.13.16.13.26,0,.03,0,.1-.02.2-.01.1-.02.21-.04.33-.01.12-.02.23-.03.33.12-.22.27-.42.43-.6.16-.17.34-.31.54-.41.2-.1.42-.15.65-.15.55,0,.97.2,1.24.59.27.4.41.92.41,1.57,0,.32-.02.63-.07.93-.04.3-.09.6-.13.89-.04.29-.07.58-.07.87,0,.12-.04.21-.13.28s-.19.1-.3.1-.22-.03-.3-.1-.13-.17-.13-.29c0-.31.02-.6.07-.88.05-.28.09-.56.14-.85.04-.29.07-.59.07-.9,0-.37-.04-.66-.12-.86-.08-.2-.18-.34-.32-.42-.13-.08-.29-.12-.45-.12-.21,0-.4.07-.57.22-.17.15-.32.33-.44.55-.13.22-.23.45-.32.7-.08.24-.15.46-.2.65,0,.34,0,.68,0,1.01,0,.33-.02.63-.04.92,0,.11-.05.2-.13.27-.08.07-.19.11-.32.11s-.22-.04-.29-.11c-.07-.07-.12-.17-.14-.29-.03-.12-.04-.25-.04-.38,0-.22,0-.45.03-.69.02-.24.05-.48.1-.71,0-.36,0-.67,0-.95s0-.53,0-.75c0-.22.01-.42.03-.6.02-.18.04-.35.07-.51Z"/>
    <path class="cls-10" d="m169.64,25.08c.01-.09.05-.16.11-.23.06-.07.18-.11.35-.14.09-.01.18-.02.29-.03.11,0,.21-.02.32-.02s.21,0,.3,0c.56,0,1.06.09,1.5.26.44.17.78.43,1.03.76.25.33.37.74.37,1.22,0,.36-.08.67-.25.94s-.4.5-.68.68c-.29.18-.61.32-.96.41s-.71.14-1.08.14c-.12,0-.23,0-.34-.01s-.22-.02-.32-.04c-.02.44-.04.89-.05,1.34s-.04.91-.06,1.37c0,.13-.05.23-.14.29-.09.06-.19.09-.3.09-.12,0-.22-.03-.3-.1s-.12-.16-.12-.29c.07-1.1.12-2.21.14-3.32.02-1.11.09-2.21.19-3.31Zm.67,3.12c.11.01.22.03.34.05.12.02.26.03.41.03.21,0,.42-.03.65-.08.23-.05.45-.14.65-.25s.37-.26.5-.45c.13-.18.19-.4.19-.66,0-.14-.03-.3-.1-.46-.07-.16-.18-.31-.33-.45s-.36-.26-.62-.35c-.26-.09-.58-.14-.98-.14-.12,0-.22,0-.31.01s-.17.02-.25.03c-.02.29-.04.59-.06.89-.02.3-.04.6-.05.9-.02.3-.03.61-.04.92Z"/>
    <path class="cls-10" d="m176.92,31.96c-.34,0-.65-.07-.92-.21-.27-.14-.5-.32-.68-.56-.19-.23-.33-.5-.43-.79-.1-.29-.15-.58-.15-.88,0-.32.06-.63.19-.94.13-.31.31-.6.53-.86.23-.26.49-.47.79-.63s.62-.23.96-.23c.27,0,.5.05.71.16.2.11.36.26.48.44.12.19.17.41.17.65,0,.26-.07.51-.2.74-.13.23-.32.42-.55.57-.32.22-.67.37-1.04.45-.38.08-.76.13-1.15.14.05.18.13.36.24.53.11.17.26.32.43.43.18.12.39.17.63.17.23,0,.45-.07.67-.2.22-.13.4-.29.56-.46.04-.05.08-.08.13-.1.05-.02.09-.03.14-.03.08,0,.14.02.21.06.06.04.11.09.15.15.04.06.06.13.06.21,0,.05,0,.1-.02.14-.02.05-.05.09-.09.14-.23.25-.5.46-.81.63-.31.17-.65.26-1.01.26Zm-1.31-2.69c.25-.01.48-.03.69-.06.21-.03.43-.09.66-.18.21-.08.39-.2.54-.35.16-.15.23-.34.23-.56,0-.09-.02-.17-.06-.24-.04-.07-.1-.13-.18-.18-.08-.05-.18-.07-.3-.07-.2,0-.39.05-.57.15-.18.1-.34.23-.49.39-.14.16-.26.34-.35.53-.09.19-.15.38-.18.57Z"/>
    <path class="cls-10" d="m180.17,27.26c0-.13.05-.23.14-.29s.19-.1.31-.1c.11,0,.21.03.29.09.08.06.12.15.12.28v.14c0,.06,0,.12,0,.2,0,.07-.01.15-.02.24.18-.31.39-.54.62-.7.23-.15.49-.23.78-.23.14,0,.3.02.46.06.16.04.33.11.51.22.08.04.13.1.16.16.03.06.04.14.04.22,0,.14-.05.24-.13.31-.08.07-.17.11-.29.11-.06,0-.12-.01-.17-.04-.05-.02-.1-.05-.15-.08-.06-.04-.13-.07-.2-.11s-.16-.05-.26-.05c-.37,0-.66.18-.88.55-.22.36-.4.83-.55,1.41,0,.21-.01.41-.01.59s0,.36-.01.53c0,.17-.01.33-.01.49,0,.16,0,.31,0,.46,0,.08-.02.15-.06.21-.04.06-.09.1-.16.13-.07.03-.14.04-.21.04-.14,0-.24-.04-.31-.12-.07-.08-.12-.19-.14-.32-.02-.13-.04-.28-.04-.43,0-.12,0-.28.01-.47,0-.19.02-.37.04-.56.02-.19.03-.34.05-.47l.08-2.45Z"/>
    <path class="cls-10" d="m186.24,31.96c-.34,0-.65-.07-.92-.21-.27-.14-.5-.32-.68-.56-.19-.23-.33-.5-.43-.79-.1-.29-.15-.58-.15-.88,0-.32.06-.63.19-.94.13-.31.31-.6.53-.86.23-.26.49-.47.79-.63s.62-.23.96-.23c.27,0,.5.05.71.16.2.11.36.26.48.44.12.19.17.41.17.65,0,.26-.07.51-.2.74-.13.23-.32.42-.55.57-.32.22-.67.37-1.04.45-.38.08-.76.13-1.15.14.05.18.13.36.24.53.11.17.26.32.43.43.18.12.39.17.63.17.23,0,.45-.07.67-.2.22-.13.4-.29.56-.46.04-.05.08-.08.13-.1.05-.02.09-.03.14-.03.08,0,.14.02.21.06.06.04.11.09.15.15.04.06.06.13.06.21,0,.05,0,.1-.02.14-.02.05-.05.09-.09.14-.23.25-.5.46-.81.63-.31.17-.65.26-1.01.26Zm-1.31-2.69c.25-.01.48-.03.69-.06.21-.03.43-.09.66-.18.21-.08.39-.2.54-.35.16-.15.23-.34.23-.56,0-.09-.02-.17-.06-.24-.04-.07-.1-.13-.18-.18-.08-.05-.18-.07-.3-.07-.2,0-.39.05-.57.15-.18.1-.34.23-.49.39-.14.16-.26.34-.35.53-.09.19-.15.38-.18.57Z"/>
    <path class="cls-10" d="m189.54,27.27c0-.09.02-.16.06-.22s.09-.1.16-.13c.07-.03.13-.04.2-.04.12,0,.23.03.31.09.08.06.13.16.13.29,0,.45,0,.85-.02,1.2-.02.35-.03.68-.05,1-.02.32-.04.65-.05,1.01-.02.35-.03.76-.03,1.22,0,.12-.04.22-.12.29s-.18.11-.3.11c-.12,0-.22-.03-.28-.08s-.1-.13-.13-.22c-.02-.09-.03-.18-.03-.27,0-.06,0-.19.01-.41,0-.22.02-.49.04-.81s.03-.66.05-1.03c.02-.36.03-.72.04-1.07,0-.35.01-.66.01-.94Zm-.13-1.97c0-.11.02-.21.07-.32.05-.11.11-.2.19-.28.08-.07.17-.11.28-.11.2,0,.35.04.44.12.1.08.16.17.19.27.03.1.05.18.05.23,0,.17-.06.32-.19.46-.13.14-.28.21-.45.21-.16,0-.29-.06-.41-.17-.12-.11-.17-.25-.17-.41Z"/>
    <path class="cls-10" d="m192.11,27.26c0-.13.05-.23.14-.29s.19-.1.31-.1c.11,0,.21.03.29.09.08.06.12.15.12.28v.14c0,.06,0,.12,0,.2,0,.07-.01.15-.02.24.18-.31.39-.54.62-.7.23-.15.49-.23.78-.23.14,0,.3.02.46.06.16.04.33.11.51.22.08.04.13.1.16.16.03.06.04.14.04.22,0,.14-.05.24-.13.31-.08.07-.17.11-.29.11-.06,0-.12-.01-.17-.04-.05-.02-.1-.05-.15-.08-.06-.04-.13-.07-.2-.11s-.16-.05-.26-.05c-.37,0-.66.18-.88.55-.22.36-.4.83-.55,1.41,0,.21-.01.41-.01.59s0,.36-.01.53c0,.17-.01.33-.01.49,0,.16,0,.31,0,.46,0,.08-.02.15-.06.21-.04.06-.09.1-.16.13-.07.03-.14.04-.21.04-.14,0-.24-.04-.31-.12-.07-.08-.12-.19-.14-.32-.02-.13-.04-.28-.04-.43,0-.12,0-.28.01-.47s.02-.37.04-.56c.02-.19.03-.34.05-.47l.08-2.45Z"/>
    <path class="cls-10" d="m196.01,29.77c0-.37.06-.72.17-1.07s.27-.66.48-.93c.21-.27.45-.49.73-.65.28-.16.58-.24.91-.24.19,0,.38.03.57.09.19.06.38.16.56.3.03-.14.08-.24.14-.29.06-.06.14-.09.24-.09.12,0,.23.04.32.12s.13.19.12.33c0,.19-.03.43-.07.72-.04.28-.07.57-.11.85-.01.09-.03.21-.06.37-.02.16-.05.32-.06.47-.02.16-.02.28-.02.37,0,.12,0,.27.03.44.02.18.05.34.11.47.05.14.12.21.21.21.07,0,.13-.02.19-.07s.11-.12.16-.22c.03-.07.08-.12.14-.15.06-.03.12-.04.18-.04.07,0,.13.02.2.05.06.03.11.08.15.14.03.06.05.13.04.22,0,.12-.05.25-.14.38-.09.14-.22.25-.38.35-.16.1-.35.15-.55.15-.17,0-.33-.04-.47-.11-.14-.07-.25-.18-.34-.32s-.15-.31-.18-.51c-.19.27-.39.49-.62.64-.22.15-.49.23-.8.23-.4,0-.73-.1-1-.29-.27-.19-.47-.45-.61-.78-.14-.33-.21-.71-.21-1.13Zm.87-.04c0,.31.04.57.11.78.07.21.18.38.32.5.14.12.32.17.54.17.17,0,.32-.04.45-.12.12-.08.23-.19.33-.32.09-.14.17-.3.24-.48.06-.16.12-.33.16-.51s.09-.38.12-.58c.03-.2.06-.4.08-.59.02-.19.03-.37.05-.53-.15-.12-.31-.22-.48-.29s-.33-.1-.46-.1c-.22,0-.43.06-.6.17-.18.12-.33.27-.46.47s-.22.42-.29.66c-.07.25-.1.5-.1.77Z"/>
    <path class="cls-10" d="m206.35,25.15c0-.12.03-.22.11-.29.08-.07.18-.11.29-.12.07,0,.15,0,.21.03.07.02.12.06.17.12.05.05.07.12.07.2-.04,1.09-.06,2.19-.06,3.28,0,1.1-.02,2.2-.09,3.29,0,.12-.05.21-.12.28-.07.07-.17.1-.27.12-.12,0-.23-.02-.32-.07-.1-.06-.14-.15-.14-.27.04-.69.07-1.4.08-2.14,0-.73.01-1.47.02-2.22,0-.74.02-1.48.06-2.2Zm.56.45v-.78c.12-.04.28-.07.48-.1.19-.03.45-.04.78-.04.26,0,.54.02.83.07.29.05.56.13.81.25.25.12.46.28.62.49.16.21.24.48.24.8s-.1.63-.3.94c-.2.32-.53.57-.99.77.36.09.65.23.89.4s.42.37.54.6c.12.22.18.46.18.7,0,.36-.1.68-.31.97-.21.28-.49.52-.83.71s-.73.34-1.14.43-.83.15-1.24.15c-.19,0-.38,0-.56-.02s-.32-.03-.43-.04l.1-.8c.14.03.29.04.43.05.14,0,.28.01.41.01.29,0,.6-.03.91-.09.31-.06.61-.16.88-.28.27-.12.49-.28.66-.46s.25-.4.25-.65c0-.21-.07-.39-.21-.55s-.31-.28-.52-.37-.43-.17-.66-.22c-.23-.05-.45-.07-.64-.07-.18.02-.34.05-.48.06-.14.02-.27.02-.39.02-.25,0-.44-.03-.58-.09s-.2-.18-.2-.36c0-.07,0-.13.02-.19.01-.06.04-.11.07-.15.04-.04.09-.06.15-.05.11,0,.21.01.3.02.1,0,.2.01.31.01.23,0,.49-.02.78-.07.29-.05.56-.13.82-.24.26-.11.48-.25.65-.43.17-.18.26-.39.26-.65,0-.22-.09-.4-.26-.53-.17-.13-.38-.22-.63-.27-.25-.05-.49-.08-.72-.08-.13,0-.28,0-.45.02-.17.02-.33.03-.49.06-.16.02-.27.04-.36.05Z"/>
    <path class="cls-10" d="m211.98,29.77c0-.37.06-.72.17-1.07s.27-.66.48-.93c.21-.27.45-.49.73-.65.28-.16.58-.24.91-.24.19,0,.38.03.57.09.19.06.38.16.56.3.03-.14.08-.24.14-.29.06-.06.14-.09.24-.09.12,0,.23.04.32.12s.13.19.12.33c0,.19-.03.43-.07.72-.04.28-.07.57-.11.85-.01.09-.03.21-.06.37-.02.16-.05.32-.06.47-.02.16-.02.28-.02.37,0,.12,0,.27.03.44.02.18.05.34.11.47.05.14.12.21.21.21.07,0,.13-.02.19-.07s.11-.12.16-.22c.03-.07.08-.12.14-.15.06-.03.12-.04.18-.04.07,0,.13.02.2.05.06.03.11.08.15.14.03.06.05.13.04.22,0,.12-.05.25-.14.38-.09.14-.22.25-.38.35-.16.1-.35.15-.55.15-.17,0-.33-.04-.47-.11-.14-.07-.25-.18-.34-.32s-.15-.31-.18-.51c-.19.27-.39.49-.62.64-.22.15-.49.23-.8.23-.4,0-.73-.1-1-.29-.27-.19-.47-.45-.61-.78-.14-.33-.21-.71-.21-1.13Zm.87-.04c0,.31.04.57.11.78.07.21.18.38.32.5.14.12.32.17.54.17.17,0,.32-.04.45-.12.12-.08.23-.19.33-.32.09-.14.17-.3.24-.48.06-.16.12-.33.16-.51s.09-.38.12-.58c.03-.2.06-.4.08-.59.02-.19.03-.37.05-.53-.15-.12-.31-.22-.48-.29s-.33-.1-.46-.1c-.22,0-.43.06-.6.17-.18.12-.33.27-.46.47s-.22.42-.29.66c-.07.25-.1.5-.1.77Z"/>
    <path class="cls-10" d="m218.07,27.8c-.12,0-.21-.03-.28-.11s-.1-.17-.1-.29c0-.11.03-.2.1-.27s.16-.12.28-.12c.16-.01.33-.02.51-.03s.36-.02.56-.02c.19,0,.4,0,.63,0,.22,0,.46,0,.72,0,.11,0,.2.04.27.11.08.07.12.17.12.29,0,.11-.04.2-.12.28-.08.07-.17.11-.27.11-.26,0-.49,0-.67,0-.19,0-.36,0-.53,0s-.35,0-.53.02c-.19,0-.41.02-.67.03Zm.49-1.88c.01-.12.06-.22.14-.28.08-.06.17-.09.29-.09.08,0,.15.01.22.04.07.03.13.07.17.13s.06.13.05.22c-.05.4-.09.78-.13,1.15-.03.37-.06.73-.08,1.09-.02.36-.03.74-.03,1.12,0,.47.03.85.06,1.14.03.28.08.49.13.61.05.12.09.19.13.19.06,0,.13-.04.22-.11.09-.07.17-.15.26-.24.08-.09.15-.16.18-.2.04-.04.08-.07.13-.09.05-.02.09-.02.14-.02.07,0,.14.02.21.06.06.04.11.09.15.15.04.06.06.13.06.21,0,.04-.01.09-.03.14-.02.05-.06.11-.11.17-.12.16-.26.3-.41.41-.15.11-.29.2-.43.25-.14.06-.28.08-.42.08-.24,0-.45-.09-.62-.27-.17-.18-.29-.46-.36-.84-.04-.27-.08-.55-.1-.83-.02-.28-.03-.56-.03-.84,0-.38,0-.74.03-1.09.02-.35.05-.71.08-1.07.04-.36.08-.76.13-1.18Z"/>
    <path class="cls-10" d="m222.11,27.27c0-.09.02-.16.06-.22s.09-.1.16-.13c.07-.03.13-.04.2-.04.12,0,.23.03.31.09.08.06.13.16.13.29,0,.45,0,.85-.02,1.2-.02.35-.03.68-.05,1-.02.32-.04.65-.05,1.01-.02.35-.03.76-.03,1.22,0,.12-.04.22-.12.29-.08.07-.18.11-.3.11-.12,0-.22-.03-.28-.08-.06-.06-.1-.13-.13-.22-.02-.09-.03-.18-.03-.27,0-.06,0-.19.01-.41,0-.22.02-.49.04-.81.02-.32.03-.66.05-1.03.02-.36.03-.72.04-1.07,0-.35.01-.66.01-.94Zm-.13-1.97c0-.11.02-.21.07-.32s.11-.2.19-.28c.08-.07.17-.11.28-.11.2,0,.35.04.44.12.1.08.16.17.19.27.03.1.05.18.05.23,0,.17-.06.32-.19.46-.13.14-.28.21-.45.21-.16,0-.29-.06-.41-.17-.12-.11-.17-.25-.17-.41Z"/>
    <path class="cls-10" d="m227.58,27.55s.07.1.08.15c.01.05.02.1.02.14,0,.07-.02.14-.06.2-.04.06-.09.11-.15.14-.06.03-.13.05-.2.05-.06,0-.12-.02-.17-.05-.05-.03-.1-.07-.14-.11-.06-.09-.17-.19-.31-.28-.15-.09-.33-.14-.55-.14-.21,0-.38.05-.53.15-.15.1-.22.23-.22.39,0,.19.06.34.19.44.13.1.33.22.62.36.22.11.43.23.63.38.2.15.37.32.5.53.13.21.2.46.2.75,0,.25-.06.48-.18.68-.12.21-.29.37-.51.5-.22.12-.48.19-.79.19-.34,0-.68-.08-1.02-.23-.34-.15-.62-.33-.86-.54-.04-.04-.07-.08-.09-.13-.02-.05-.03-.09-.03-.14,0-.11.04-.21.12-.3s.17-.14.28-.14c.03,0,.06,0,.1.02.03.01.07.03.12.07.2.16.42.3.65.42.23.12.46.19.67.19.24,0,.41-.05.52-.16s.16-.23.16-.37c0-.22-.09-.42-.26-.58s-.39-.31-.67-.43c-.29-.13-.52-.27-.71-.42-.18-.15-.32-.31-.4-.49-.08-.18-.13-.37-.13-.58,0-.26.08-.49.23-.69.15-.2.35-.36.6-.47.25-.11.52-.17.8-.17s.57.06.84.17.48.28.64.49Z"/>
    <path class="cls-10" d="m228.77,27.8c-.12,0-.21-.03-.28-.11s-.1-.17-.1-.29c0-.11.03-.2.1-.27s.16-.12.28-.12c.16-.01.33-.02.51-.03s.36-.02.56-.02c.19,0,.4,0,.63,0,.22,0,.46,0,.72,0,.11,0,.2.04.27.11.08.07.12.17.12.29,0,.11-.04.2-.12.28-.08.07-.17.11-.27.11-.26,0-.49,0-.67,0-.19,0-.36,0-.53,0s-.35,0-.53.02c-.19,0-.41.02-.67.03Zm.49-1.88c.01-.12.06-.22.14-.28.08-.06.17-.09.29-.09.08,0,.15.01.22.04.07.03.13.07.17.13s.06.13.05.22c-.05.4-.09.78-.13,1.15-.03.37-.06.73-.08,1.09-.02.36-.03.74-.03,1.12,0,.47.03.85.06,1.14.03.28.08.49.13.61.05.12.09.19.13.19.06,0,.13-.04.22-.11.09-.07.17-.15.26-.24.08-.09.15-.16.18-.2.04-.04.08-.07.13-.09.05-.02.09-.02.14-.02.07,0,.14.02.21.06.06.04.11.09.15.15.04.06.06.13.06.21,0,.04-.01.09-.03.14-.02.05-.06.11-.11.17-.12.16-.26.3-.41.41-.15.11-.29.2-.43.25-.14.06-.28.08-.42.08-.24,0-.45-.09-.62-.27-.17-.18-.29-.46-.36-.84-.04-.27-.08-.55-.1-.83-.02-.28-.03-.56-.03-.84,0-.38,0-.74.03-1.09.02-.35.05-.71.08-1.07.04-.36.08-.76.13-1.18Z"/>
    <path class="cls-10" d="m232.31,29.77c0-.37.06-.72.17-1.07.11-.35.27-.66.48-.93.21-.27.45-.49.72-.65s.58-.24.91-.24c.19,0,.38.03.57.09.19.06.38.16.56.3.03-.14.08-.24.14-.29.06-.06.14-.09.24-.09.12,0,.23.04.32.12s.13.19.12.33c0,.19-.03.43-.07.72-.04.28-.08.57-.11.85-.01.09-.03.21-.06.37-.02.16-.05.32-.06.47-.02.16-.02.28-.02.37,0,.12,0,.27.03.44.02.18.05.34.11.47.05.14.12.21.21.21.07,0,.13-.02.19-.07.06-.05.11-.12.16-.22.03-.07.08-.12.14-.15.06-.03.12-.04.18-.04.07,0,.13.02.2.05.06.03.11.08.14.14.03.06.05.13.04.22,0,.12-.05.25-.14.38-.09.14-.22.25-.38.35-.16.1-.35.15-.55.15-.18,0-.33-.04-.47-.11s-.25-.18-.34-.32-.15-.31-.18-.51c-.19.27-.39.49-.62.64-.22.15-.49.23-.8.23-.4,0-.73-.1-1-.29-.27-.19-.47-.45-.61-.78-.14-.33-.21-.71-.21-1.13Zm.87-.04c0,.31.04.57.11.78.07.21.18.38.32.5.14.12.32.17.54.17.17,0,.32-.04.45-.12.12-.08.23-.19.33-.32.09-.14.17-.3.24-.48.06-.16.12-.33.16-.51.05-.19.09-.38.12-.58.03-.2.06-.4.07-.59.02-.19.03-.37.05-.53-.15-.12-.31-.22-.48-.29s-.33-.1-.46-.1c-.22,0-.43.06-.6.17-.18.12-.33.27-.46.47s-.22.42-.29.66c-.07.25-.1.5-.1.77Z"/>
  </g>
  <g id="acessibilidade">
    <path class="cls-12" d="m343.22,426.79h2.16v60.16h-62.32c0-33.2,26.96-60.16,60.16-60.16Z"/>
    <path class="cls-2" d="m306.97,457.71s-.04-.03-.03-.06c6.39-11.25,22.99-11.31,29.39.03.02.03,0,.04-.02.05-.33.08-.63.21-.92.39-.03.02-.05.01-.06-.02-5.96-10.41-21.24-10.49-27.33-.09-.02.03-.04.03-.06.02-.31-.15-.63-.26-.96-.33h0Z"/>
    <path class="cls-2" d="m326.18,457.82c0,2.48-2.08,4.49-4.65,4.49s-4.65-2.01-4.65-4.49,2.08-4.49,4.65-4.49,4.65,2.01,4.65,4.49m-1.1,0c0-1.89-1.59-3.42-3.54-3.42s-3.54,1.53-3.54,3.42,1.59,3.42,3.54,3.42,3.54-1.53,3.54-3.42h0Z"/>
    <path class="cls-8" d="m325.07,457.82c0,1.89-1.59,3.42-3.54,3.42s-3.54-1.53-3.54-3.42,1.59-3.42,3.54-3.42,3.54,1.53,3.54,3.42h0Z"/>
    <path class="cls-2" d="m322.4,466.2l6.88,9.96s.05.04.09.03c.83-.26,1.6-.13,2.3.39.94.71,1.13,2.1.48,3.05-1.05,1.53-3.37,1.35-4.17-.31-.41-.85-.28-1.69.39-2.51.02-.02.02-.04,0-.07l-6.88-9.95s-.04-.02-.06,0l-6.77,9.95s-.01.04,0,.06c.56.62.75,1.31.57,2.08-.31,1.35-1.86,2.15-3.19,1.64-1.58-.62-2.04-2.48-.91-3.71.63-.68,1.48-.89,2.55-.64.03,0,.05,0,.06-.02l6.74-9.92s0-.03-.02-.04c-4.48-.26-8.82-1.49-12.9-3.36-.02,0-.05,0-.07,0-.26.15-.53.27-.81.34-1.5.37-3-.79-2.95-2.28.04-1.37,1.19-2.35,2.6-2.25,1.7.12,2.63,1.81,1.96,3.28-.01.02,0,.04.02.05,3.56,1.6,7.43,2.77,11.36,3.08,5.15.41,10.67-1.16,15.29-3.24.02-.01.03-.03.02-.05-.73-1.89,1.1-3.76,3.1-3.01,1.6.6,1.99,2.58.85,3.76-.83.86-2.23.92-3.21.19-.02-.01-.05-.02-.07,0-4.18,1.92-8.67,3.21-13.24,3.47-.02,0-.03.01-.02.03m16.11-5.3c0-.69-.58-1.25-1.29-1.25s-1.29.56-1.29,1.25.58,1.25,1.29,1.25,1.29-.56,1.29-1.25m-31.08.04c0-.69-.58-1.25-1.29-1.25s-1.29.56-1.29,1.25.58,1.25,1.29,1.25,1.29-.56,1.29-1.25m6.76,17.44c0-.69-.58-1.24-1.29-1.24s-1.29.56-1.29,1.24.58,1.24,1.29,1.24,1.29-.56,1.29-1.24m17.25,0c0-.69-.58-1.24-1.29-1.24s-1.29.56-1.29,1.24.58,1.24,1.29,1.24,1.29-.56,1.29-1.24h0Z"/>
    <path class="cls-8" d="m338.51,460.9c0,.69-.58,1.25-1.29,1.25s-1.29-.56-1.29-1.25.58-1.25,1.29-1.25,1.29.56,1.29,1.25h0Z"/>
    <path class="cls-8" d="m307.44,460.93c0,.69-.58,1.25-1.29,1.25s-1.29-.56-1.29-1.25.58-1.25,1.29-1.25,1.29.56,1.29,1.25h0Z"/>
    <path class="cls-2" d="m309.88,476.72c-3.41-3.4-5.31-7.95-4.87-12.69,0-.02.01-.02.03-.02l1.04.23s.03.01.03.03c-.35,4.39,1.39,8.5,4.51,11.62.02.02.02.04,0,.06-.25.22-.46.48-.64.76-.03.04-.06.04-.09,0h0Z"/>
    <path class="cls-2" d="m332.58,476.04s-.02-.05,0-.07c3.06-2.95,4.82-7.05,4.63-11.25-.01-.23-.02-.4-.02-.51,0-.03.02-.05.05-.05.33,0,.65-.03.96-.12.03,0,.06.01.06.04.36,4.79-1.46,9.33-5,12.72-.03.03-.08.02-.1-.02-.15-.29-.35-.54-.59-.76h0Z"/>
    <path class="cls-8" d="m314.2,478.37c0,.69-.58,1.24-1.29,1.24s-1.29-.56-1.29-1.24.58-1.24,1.29-1.24,1.29.56,1.29,1.24h0Z"/>
    <path class="cls-8" d="m331.44,478.37c0,.69-.58,1.24-1.29,1.24s-1.29-.56-1.29-1.24.58-1.24,1.29-1.24,1.29.56,1.29,1.24h0Z"/>
    <path class="cls-2" d="m327.42,480.39c-3.76,1.33-7.95,1.33-11.7-.05-.02,0-.03-.02-.02-.04l.47-.88s.03-.03.06-.02c3.55,1.22,7.12,1.24,10.69.05.03,0,.05,0,.06.03.12.3.27.59.46.86.02.03.01.05-.02.06h0Z"/>
    <path class="cls-10" d="m309.95,450.79c.07.07.1.15.09.26,0,.1-.05.19-.12.26-.05.05-.11.08-.18.1-.07.02-.14,0-.22-.02l-.9-.33-1.63,1.57.34.87c.03.08.04.15.02.22-.02.07-.05.13-.1.18-.07.07-.16.11-.27.12-.11,0-.2-.02-.27-.09-.04-.04-.07-.09-.09-.14l-1.47-3.89c-.03-.09-.04-.17-.01-.26.02-.09.07-.16.13-.22s.14-.11.23-.13c.09-.02.18-.02.27.01l4.03,1.42c.06.02.11.05.15.09Zm-2,.01l-1.99-.74.76,1.92,1.23-1.18Z"/>
    <path class="cls-10" d="m311.06,450.27c-.39.01-.75-.08-1.09-.28-.34-.2-.64-.5-.89-.9-.25-.39-.4-.78-.43-1.17-.04-.38.04-.74.22-1.07.18-.33.46-.61.84-.83.25-.15.5-.25.76-.31.26-.06.52-.07.77-.04.07,0,.13.02.17.05.04.03.08.07.12.13.05.08.07.16.06.24,0,.08-.05.14-.11.18-.07.04-.17.07-.28.06-.23-.02-.43,0-.6.03-.17.04-.33.11-.5.21-.39.23-.6.52-.65.88-.05.35.07.75.36,1.21.29.46.61.74.96.85.35.11.72.05,1.1-.18.16-.1.29-.21.4-.34.11-.13.21-.3.31-.51.02-.04.05-.08.08-.12.03-.04.06-.07.1-.09.06-.04.13-.04.21-.02.08.03.14.08.19.16.03.05.06.11.06.16,0,.05,0,.11-.03.18-.08.23-.21.45-.38.65-.17.2-.38.37-.62.52-.38.23-.76.35-1.15.36Z"/>
    <path class="cls-10" d="m314.13,448.73c-.09-.04-.16-.12-.2-.23l-1.29-3.47c-.04-.12-.04-.22,0-.3.04-.09.13-.15.25-.19l2.23-.77c.12-.04.22-.05.31-.02.09.03.15.09.18.19.04.1.03.19-.01.26-.05.08-.13.14-.25.18l-1.83.63.43,1.16,1.71-.59c.12-.04.22-.05.31-.02.08.03.15.09.18.19.04.1.03.18-.02.25s-.13.13-.25.17l-1.71.59.46,1.23,1.83-.63c.12-.04.22-.05.31-.02.09.03.15.1.18.2.04.1.03.18-.02.25-.05.07-.13.13-.25.17l-2.23.77c-.12.04-.22.04-.32,0Z"/>
    <path class="cls-10" d="m318.08,447.58c-.31-.04-.57-.13-.78-.25-.11-.06-.17-.15-.19-.28-.01-.09,0-.17.05-.24.04-.07.1-.11.18-.12.08-.01.17,0,.28.05.21.1.41.17.63.2.21.03.44.03.69,0,.32-.04.55-.13.7-.26.15-.13.21-.3.18-.5-.02-.16-.12-.27-.29-.33-.17-.06-.45-.11-.83-.14-.39-.03-.72-.08-.97-.15-.25-.07-.45-.18-.6-.33-.15-.15-.24-.34-.27-.6-.04-.26,0-.5.12-.73.12-.23.31-.41.56-.57.25-.15.55-.25.89-.3.62-.09,1.15,0,1.58.27.06.04.11.08.14.12.03.04.05.09.06.16.01.09,0,.17-.05.24-.04.07-.1.11-.18.12-.04,0-.08,0-.12,0-.04,0-.09-.02-.16-.05-.2-.1-.38-.17-.56-.21-.18-.04-.38-.04-.63,0-.29.04-.52.13-.67.27-.15.14-.22.31-.19.51.03.17.12.29.29.36.17.07.44.12.81.15.4.03.72.08.98.15.26.07.46.17.61.32.15.14.24.33.28.57.04.26,0,.5-.12.72-.12.22-.31.4-.56.55-.25.15-.56.25-.91.29-.33.05-.65.05-.96,0Z"/>
    <path class="cls-10" d="m322.02,447.25c-.29-.11-.53-.24-.7-.4-.1-.08-.14-.18-.13-.31,0-.09.04-.16.1-.23.06-.06.13-.09.2-.09.08,0,.17.04.26.11.18.14.37.25.57.32.2.07.43.12.67.13.32.02.57-.02.74-.11.18-.1.27-.25.29-.45.01-.16-.06-.29-.21-.39-.15-.1-.41-.2-.78-.3-.38-.11-.68-.22-.92-.34-.23-.12-.4-.27-.51-.44-.11-.17-.16-.38-.14-.64.02-.26.11-.49.28-.69.17-.2.39-.34.67-.44.28-.1.59-.14.93-.11.62.04,1.12.23,1.49.58.05.05.09.1.11.14.02.05.03.1.02.17,0,.09-.04.16-.1.23s-.13.09-.2.09c-.04,0-.08-.01-.12-.03-.04-.02-.08-.04-.14-.08-.17-.14-.34-.24-.5-.32-.16-.07-.37-.12-.61-.13-.3-.02-.54.02-.72.13-.18.1-.28.26-.29.47-.01.17.05.31.2.41.15.1.4.21.76.31.38.11.69.22.93.34.23.12.41.26.53.43s.17.37.15.61c-.02.26-.11.49-.27.68-.16.19-.39.33-.67.43-.28.09-.6.13-.95.11-.34-.02-.65-.09-.94-.19Z"/>
    <path class="cls-10" d="m325.49,447.64c-.06-.09-.07-.2-.04-.31l.84-3.63c.03-.12.09-.21.18-.26.09-.06.2-.07.32-.04.13.03.22.09.28.17.06.09.07.19.05.31l-.84,3.63c-.03.12-.09.21-.18.27-.09.06-.2.07-.33.05-.12-.03-.21-.09-.27-.18Zm1.37-4.56c-.06-.01-.1-.04-.13-.08-.03-.04-.04-.09-.03-.13.01-.05.04-.09.1-.12l.72-.45c.1-.06.2-.09.3-.06.09.02.15.06.2.14.05.07.06.15.04.23-.01.05-.04.1-.09.14-.05.04-.11.07-.19.09l-.82.25s-.07,0-.11,0Z"/>
    <path class="cls-10" d="m332.2,445.19c.1.04.18.11.23.2.05.09.06.19.02.28-.02.04-.05.09-.1.13l-3.16,2.83c-.07.06-.15.1-.24.11-.09.01-.18,0-.27-.03-.09-.03-.16-.09-.21-.16-.06-.07-.09-.15-.09-.24l-.2-4.15c0-.06,0-.12.02-.16.04-.1.12-.16.23-.19.11-.03.22-.02.32.02.07.03.13.07.17.13.04.06.07.12.07.2l.13,3.55,2.66-2.44c.12-.11.26-.13.41-.07Z"/>
    <path class="cls-10" d="m331.21,449.71c-.02-.1,0-.19.08-.29l2.18-3.04c.07-.1.16-.16.26-.17.1-.02.2.01.31.08l1.95,1.3c.1.07.17.15.19.23.03.08,0,.17-.05.25-.06.09-.14.13-.23.14-.09,0-.19-.02-.29-.09l-1.6-1.07-.72,1.01,1.49,1c.1.07.17.15.19.23.03.08,0,.17-.06.26-.06.08-.13.13-.22.14-.09,0-.19-.02-.29-.09l-1.49-1-.77,1.07,1.6,1.07c.1.07.17.15.19.23.02.09,0,.17-.06.26-.06.08-.13.13-.22.13-.09,0-.19-.02-.29-.09l-1.95-1.3c-.1-.07-.17-.15-.19-.25Z"/>
    <path class="cls-10" d="m334.17,451.81c0-.1.05-.18.13-.27l2.74-2.6c.09-.09.19-.13.3-.13.11,0,.21.05.3.13.09.09.14.19.14.29,0,.1-.05.2-.14.29l-2.53,2.39,1.29,1.27c.18.18.19.35.03.51s-.34.14-.52-.04l-1.6-1.58c-.09-.09-.13-.18-.13-.27Z"/>
  </g>
  <g id="titulo">
    <g>
      <path class="cls-10" d="m33.62,190.9c-.75-1.61-1.74-2.32-2.96-2.14-.28.04-.55.12-.84.25-1.61.71-2.31,2.38-2.09,5.01.01.15.04.37.08.65.34,2.24,1.43,3.59,3.26,4.04.54.13,1.03.17,1.46.1,1.15-.17,1.91-1.05,2.28-2.64-1.31.04-1.97.07-3.28.12.16-1.15.24-1.72.39-2.87,2.79-.16,4.19-.23,6.98-.37.34,5.01-.65,7.91-3,8.73-.71.25-1.44.43-2.19.54-1.66.25-3.35.14-5.09-.33-2.53-.67-4.17-2.65-4.92-5.95-.07-.32-.14-.69-.21-1.11-.41-2.58-.11-4.75.89-6.49,1.12-1.94,3.01-3.12,5.66-3.52.51-.08,1.02-.12,1.53-.13,3.13-.08,5.05,1.36,5.79,4.3-1.5.72-2.25,1.08-3.75,1.81Z"/>
      <path class="cls-10" d="m44.02,194.22c.68,1.46,1.79,2.12,3.33,1.99,1.43-.12,2.31-.97,2.61-2.55,1.74-.47,2.6-.71,4.34-1.17-.57,4.57-2.51,7.07-5.83,7.51-1.02.14-2.2.06-3.52-.22-2.52-.97-4.04-3.28-4.55-6.95-.04-.31-.08-.66-.11-1.05-.36-4.28,1.69-7.41,5.5-8.29,3.57-.82,6.49,1.7,7.74,6.87-3.82,1.52-5.72,2.29-9.51,3.85Zm.48-5.56c-.5.74-.71,1.58-.63,2.53,2.29-.97,3.43-1.45,5.73-2.41-.84-1.09-1.78-1.57-2.8-1.43-1.03.14-1.79.58-2.29,1.31Z"/>
      <path class="cls-10" d="m54.54,192.78c-.21-2.31.14-4.37,1.05-6.16,1.09-2.14,2.76-3.35,5.01-3.62,2.37-.28,4.15.08,5.32,1.08.96.81,1.82,2.37,2.56,4.66.29.9.48,1.76.57,2.58.19,1.76-.1,3.28-.87,4.55-1.13,1.87-3.04,2.91-5.74,3.14-2.47.22-4.36-.17-5.65-1.16-1.29-1-2.04-2.69-2.26-5.07Zm8.87-4.76c-.74-.59-1.56-.83-2.21-.76-.8.09-1.49.69-2.04,1.78-.49.97-.69,1.88-.59,2.73.1.8.47,1.58,1.12,2.36.72.86,1.48,1.25,2.28,1.16.91-.11,1.69-.67,2.35-1.67.62-.95.89-1.88.79-2.78-.11-.97-.68-2.02-1.69-2.82Z"/>
      <path class="cls-10" d="m83,192.88c.59,1,.92,1.79.97,2.39.06.64-.33,1.41-1.18,2.3-1.22,1.3-3.39,2.05-6.5,2.27-3.11.22-4.97-.32-5.58-1.65-.19-.42-.31-.81-.35-1.17-.09-.84.2-1.59.87-2.24-.41-.71-.66-1.51-.75-2.38-.09-.86.38-1.69,1.43-2.5-1.47-.88-2.28-2-2.43-3.38-.04-.39-.03-.83.05-1.3.32-1.98,1.56-3.37,3.7-4.15.89-.33,1.73-.53,2.52-.61,1.14-.12,2.18.02,3.12.39.28-.73.75-1.35,1.39-1.84,1.28.87,1.92,1.31,3.19,2.18-1.13.33-1.78.88-1.95,1.66.73.6,1.13,1.66,1.18,3.17.06,1.52-.51,2.73-1.69,3.63-.85.65-2.11,1.06-3.76,1.23-.64.06-1.35.1-2.12.09-.91.36-1.34.77-1.29,1.22.02.15.09.31.21.47,1.81-.65,3.42-1.04,4.81-1.17,2.11-.2,3.49.27,4.15,1.38Zm-2.44,2.09c-.22-.57-.71-.82-1.47-.74-.36.04-1.04.18-2.04.43-2.07.53-3.05,1.08-2.96,1.66.07.46.85.62,2.34.46.27-.03.66-.08,1.17-.17,2.06-.33,3.06-.82,3-1.46,0-.06-.02-.12-.03-.18Zm-1.81-9.52c-.13-.72-.42-1.17-.89-1.34-.31-.11-.96-.13-1.94-.05-1.7.14-2.52.69-2.45,1.63.07.95,1.01,1.42,2.82,1.4.22,0,.44-.01.65-.04,1.37-.14,1.96-.67,1.8-1.61Z"/>
      <path class="cls-10" d="m84.51,196.29c-.55-6.17-1.17-11.08-1.88-14.73,1.77-.31,2.66-.46,4.44-.76,0,.56-.01.84-.02,1.4,2.07-1.49,4.26-2.3,6.55-2.42.29,1.46.44,2.19.73,3.65-2.61.21-4.41.89-5.37,2.02-.67.78-.87,2.64-.61,5.58.12,1.34.33,2.9.64,4.7-1.79.22-2.69.33-4.48.56Z"/>
      <path class="cls-10" d="m98.97,178.71c.7-.21,1.4-.34,2.08-.39,3.31-.25,5.56,1.24,6.72,4.45.6,1.66.95,3.6,1.05,5.8.09,2.09.14,3.14.23,5.23-1.63.21-2.44.31-4.06.53-.03-.29-.05-.43-.08-.71-5.14.2-7.91-.8-8.31-3.04-.06-.32-.09-.56-.1-.71-.15-1.85.53-3.07,2.04-3.65.75-.29,1.51-.47,2.28-.53,1.02-.08,2.07.04,3.16.36-.14-1.75-.22-2.67-.26-2.77-.26-.69-1-1.03-2.21-1.03-1.03,0-1.94.88-2.74,2.66-1.65-.12-2.47-.17-4.12-.28.84-3.34,2.29-5.31,4.35-5.92Zm3.38,9.59c-1.11.08-1.67.41-1.68.97-.02.81,1.27,1.38,3.88,1.7-.12-1.05-.18-1.58-.3-2.63-.75-.07-1.38-.08-1.9-.04Z"/>
      <path class="cls-10" d="m107.66,184.78c1.44-.4,2.15-.6,3.59-.99-.37-2.97-.41-4.87-.09-5.7.69-1.82,1.85-2.78,3.49-2.88,1.63-.1,3.39.57,5.27,2-1.08.92-1.62,1.38-2.7,2.31-.75-.55-1.36-.81-1.84-.78-1.03.06-1.44,1.48-1.22,4.26,1.38-.37,2.08-.56,3.46-.93.37,1.15.56,1.72.93,2.87-1.43.44-2.14.66-3.57,1.11.99,3.24,1.48,4.87,2.45,8.11-1.63.68-2.44,1.02-4.06,1.7-.65-3.51-.98-5.27-1.64-8.78-1.24.39-1.85.59-3.09.98-.39-1.32-.59-1.98-.99-3.3Z"/>
      <path class="cls-10" d="m123.23,175.71c.24-.01.45,0,.65.06.91.24,1.53.74,1.84,1.5.1.23.15.46.16.69.03.52-.17,1.04-.58,1.57-.59.76-1.3,1.13-2.12,1.1-.82-.03-1.51-.41-2.06-1.16-.25-.34-.39-.7-.41-1.06-.03-.47.12-.97.43-1.51.69-.76,1.39-1.16,2.09-1.2Zm2.76,6.37c.01,3.78-.01,7.53-.08,11.25-1.61.23-2.41.34-4.01.57.06-1.59.05-3.21-.04-4.84-.11-2.03-.34-4.09-.68-6.17,1.92-.33,2.89-.49,4.82-.81Z"/>
      <path class="cls-10" d="m130.93,176.78c.71-.18,1.41-.29,2.09-.32,3.31-.14,5.51,1.43,6.57,4.67.55,1.68.83,3.63.85,5.84.02,2.1.03,3.14.05,5.24-1.63.15-2.45.23-4.08.39-.02-.29-.04-.43-.06-.72-5.14.03-7.87-1.06-8.2-3.32-.05-.32-.07-.56-.08-.71-.09-1.85.63-3.05,2.16-3.58.76-.27,1.53-.42,2.29-.45,1.02-.04,2.07.11,3.14.47-.08-1.75-.14-2.67-.17-2.77-.24-.69-.97-1.06-2.17-1.1-1.02-.04-1.97.82-2.83,2.57-1.64-.17-2.46-.26-4.11-.42.95-3.31,2.46-5.23,4.54-5.77Zm3.06,9.7c-1.11.05-1.68.35-1.71.91-.05.81,1.22,1.42,3.82,1.83-.09-1.05-.13-1.58-.21-2.63-.75-.09-1.38-.13-1.9-.11Z"/>
      <path class="cls-10" d="m154.52,174.41c3.58-.07,5.91,1.22,6.97,3.85.26.65.4,1.27.41,1.86.03,2.47-2.29,4.26-6.93,5.4.26,2.77.38,4.16.63,6.94-1.66.13-2.49.19-4.16.33-.22-5.97-.44-11.93-.66-17.9,1.36-.3,2.61-.45,3.73-.48Zm3.09,5.18c-.05-.59-1.1-1.1-3.16-1.53.13,1.41.19,2.12.32,3.54,1.94-.75,2.89-1.41,2.84-2Z"/>
      <path class="cls-10" d="m167.4,175.89c.72-.16,1.42-.24,2.1-.24,3.32-.01,5.45,1.63,6.39,4.91.48,1.7.69,3.66.63,5.86-.06,2.09-.09,3.14-.15,5.24-1.63.09-2.45.14-4.09.24-.01-.29-.02-.43-.03-.72-5.14-.17-7.83-1.36-8.07-3.62-.03-.33-.05-.56-.05-.72-.02-1.85.75-3.02,2.29-3.5.77-.24,1.54-.36,2.31-.36,1.02,0,2.06.19,3.12.59-.01-1.75-.03-2.68-.07-2.78-.21-.7-.92-1.1-2.13-1.19-1.02-.08-2,.74-2.92,2.46-1.63-.23-2.45-.35-4.09-.58,1.07-3.27,2.66-5.14,4.75-5.6Zm2.69,9.8c-1.11,0-1.69.29-1.74.85-.08.81,1.17,1.47,3.75,1.97-.05-1.06-.07-1.58-.11-2.64-.74-.12-1.37-.18-1.89-.18Z"/>
      <path class="cls-10" d="m177.6,192.17c.06-6.19-.08-11.14-.42-14.84,1.79-.13,2.69-.2,4.49-.32-.06.56-.09.83-.16,1.39,2.21-1.28,4.46-1.87,6.75-1.76.15,1.48.22,2.22.37,3.7-2.62-.04-4.47.45-5.54,1.48-.74.71-1.12,2.55-1.15,5.49-.01,1.34.05,2.92.18,4.74-1.8.04-2.71.07-4.51.12Z"/>
      <path class="cls-10" d="m193.71,176.09c.72-.14,1.42-.2,2.11-.18,3.31.08,5.4,1.78,6.25,5.09.44,1.71.59,3.67.47,5.88-.12,2.09-.17,3.14-.29,5.23-1.64.05-2.46.07-4.09.13,0-.29,0-.43-.01-.72-5.13-.31-7.79-1.57-7.97-3.84-.03-.33-.04-.57-.03-.72.03-1.85.83-3,2.39-3.44.78-.22,1.55-.32,2.32-.3,1.02.02,2.05.25,3.1.67.04-1.75.04-2.68,0-2.78-.19-.71-.89-1.12-2.09-1.24-1.02-.1-2.02.69-2.99,2.38-1.63-.28-2.44-.42-4.07-.69,1.16-3.24,2.8-5.06,4.9-5.46Zm2.42,9.87c-1.11-.03-1.7.24-1.77.8-.1.81,1.13,1.5,3.69,2.08-.02-1.06-.02-1.59-.04-2.64-.74-.14-1.37-.22-1.88-.23Z"/>
      <path class="cls-10" d="m227.19,186.15c-.95,4.4-2.85,6.71-5.71,6.94-.47.04-.94.04-1.44.02-2.32-.12-4.09-.97-5.32-2.57-1.14-1.49-1.66-3.38-1.57-5.68.02-.45.07-.95.16-1.52.47-3.01,1.08-4.93,1.85-5.77.94-1.04,2-1.68,3.16-1.93.65-.14,1.96-.2,3.92-.16,2.45.05,4.25,2.12,5.34,6.22-1.79.02-2.69.03-4.48.06-.6-1.34-1.35-2.03-2.23-2.07-.43-.02-.88.1-1.36.38-1.36.77-2.08,2.03-2.16,3.78,0,.15,0,.36,0,.63.07,2.09.95,3.24,2.63,3.44,1.68.21,2.7-.59,3.05-2.4,1.66.25,2.49.38,4.15.64Z"/>
      <path class="cls-10" d="m228,193.76c.39-6.18.52-11.13.37-14.84,1.8-.04,2.7-.05,4.5-.08-.09.55-.14.83-.23,1.38,2.28-1.16,4.56-1.63,6.84-1.4.07,1.49.11,2.23.17,3.72-2.61-.18-4.49.22-5.62,1.18-.78.67-1.26,2.48-1.44,5.42-.08,1.34-.11,2.92-.08,4.75-1.81-.05-2.71-.08-4.51-.12Z"/>
      <path class="cls-10" d="m243.31,177.01c.24.02.45.06.63.14.88.35,1.42.92,1.64,1.72.07.24.09.48.07.71-.04.52-.3,1.01-.77,1.49-.68.68-1.43.96-2.24.83-.81-.13-1.45-.6-1.9-1.41-.21-.37-.3-.74-.28-1.11.03-.47.24-.95.62-1.44.78-.67,1.52-.98,2.23-.93Zm1.95,6.67c-.46,3.75-.95,7.47-1.48,11.16-1.62.03-2.43.04-4.05.07.26-1.57.45-3.18.56-4.81.14-2.03.17-4.1.09-6.21,1.95-.09,2.93-.13,4.88-.21Z"/>
      <path class="cls-10" d="m250.82,179.03c.73-.09,1.43-.11,2.12-.06,3.31.28,5.29,2.1,5.94,5.45.34,1.74.37,3.7.12,5.9-.24,2.08-.36,3.12-.6,5.2-1.64-.05-2.46-.07-4.1-.12.01-.29.02-.43.03-.72-5.11-.61-7.69-2.03-7.73-4.31,0-.33,0-.57,0-.72.14-1.85,1-2.94,2.59-3.29.79-.17,1.57-.23,2.33-.16,1.02.08,2.04.37,3.06.86.14-1.74.2-2.67.17-2.77-.15-.72-.83-1.17-2.02-1.37-1.01-.16-2.06.57-3.13,2.19-1.61-.37-2.41-.56-4.02-.93,1.35-3.16,3.1-4.89,5.22-5.16Zm1.84,10c-1.11-.09-1.71.14-1.81.69-.15.8,1.04,1.56,3.56,2.29.05-1.06.07-1.58.12-2.64-.73-.19-1.35-.3-1.87-.34Z"/>
      <path class="cls-10" d="m264.4,180.41c.04.69.06,1.04.09,1.73,2.21-1.19,3.98-1.71,5.31-1.58,1.24.12,2.09.81,2.56,2.06.72,1.9.85,4.9.42,9.02-.16,1.48-.39,3.1-.69,4.87-1.7-.12-2.56-.18-4.26-.3.56-2.15.91-3.98,1.06-5.49.19-1.84.07-3.2-.36-4.07-.28-.56-.63-.86-1.05-.9-.82-.08-1.9.74-3.25,2.46-.31,3.22-.46,4.82-.77,8.04-1.53-.19-2.3-.28-3.83-.47.3-6.05.44-9.07.73-15.13,1.61-.1,2.41-.15,4.02-.24Z"/>
      <path class="cls-10" d="m288.02,191.57c-1.23,4.33-3.28,6.51-6.15,6.56-.47,0-.95-.02-1.44-.07-2.31-.26-4.03-1.23-5.15-2.91-1.04-1.56-1.45-3.48-1.2-5.76.05-.45.13-.95.26-1.51.66-2.97,1.4-4.85,2.22-5.64,1.01-.98,2.11-1.55,3.28-1.73.66-.1,1.97-.07,3.92.09,2.45.2,4.11,2.39,4.94,6.55-1.79-.1-2.69-.14-4.48-.23-.52-1.37-1.22-2.11-2.1-2.21-.42-.05-.89.05-1.39.29-1.41.68-2.21,1.89-2.4,3.63-.02.15-.03.36-.04.63-.06,2.09.74,3.29,2.41,3.6,1.67.31,2.74-.42,3.2-2.2,1.65.36,2.47.54,4.11.91Zm-9.24,5.5c.97.11,1.45.16,2.42.28-.38.68-.57,1.01-.96,1.69,1.41.64,2.06,1.43,1.95,2.36-.14,1.19-.76,1.88-1.85,2.08-.74.13-1.81.12-3.2-.04-.31-.03-.64-.08-.98-.12.13-.67.2-1,.33-1.67.58.1.94.17,1.07.18.34.04.51.06.84.09.44.05.75.02.93-.08.2-.11.3-.17.49-.28.14-.08.21-.19.23-.33.02-.13.02-.2.04-.33.01-.09-.03-.21-.12-.35-.21-.35-.85-.6-1.92-.74.29-1.09.44-1.64.74-2.73Z"/>
      <path class="cls-10" d="m294.36,183.56c.73-.06,1.44-.05,2.12.04,3.3.43,5.2,2.34,5.7,5.71.26,1.75.21,3.72-.14,5.9-.33,2.07-.5,3.1-.83,5.17-1.64-.13-2.45-.19-4.09-.3.02-.29.04-.43.06-.72-5.08-.85-7.59-2.38-7.54-4.66,0-.33.02-.57.04-.72.23-1.84,1.14-2.9,2.74-3.17.8-.14,1.58-.15,2.34-.06,1.01.13,2.02.46,3.02.99.22-1.74.32-2.66.3-2.76-.12-.72-.77-1.21-1.96-1.46-1-.21-2.08.47-3.23,2.05-1.59-.45-2.39-.67-3.98-1.11,1.49-3.1,3.32-4.74,5.46-4.92Zm1.38,10.07c-1.1-.14-1.72.06-1.84.61-.18.79.97,1.61,3.46,2.45.09-1.05.14-1.58.23-2.63-.72-.22-1.34-.36-1.85-.43Z"/>
      <path class="cls-10" d="m301.54,199.57c.96-1.52,1.44-2.28,2.41-3.8,2.17,1.81,3.89,2.81,5.19,3,.46.07.92,0,1.39-.2.52-.22.82-.54.88-.97.09-.63-.71-1.3-2.41-1.99-2.46-.99-4-2.52-4.62-4.58-.21-.69-.27-1.3-.2-1.85.16-1.16.93-2.09,2.3-2.78,1.17-.59,2.83-.74,4.95-.43,1.5.22,3.23.66,5.2,1.34-.77,1.46-1.16,2.2-1.93,3.66-1.43-.88-2.63-1.39-3.58-1.53-.47-.07-.92-.03-1.36.1-.54.16-.84.44-.9.83-.05.36.23.8.85,1.31.42.35,1.27.88,2.55,1.58,1.07.59,1.83,1.14,2.27,1.64.64.73.91,1.61.79,2.65-.19,1.71-1.25,3.13-3.17,4.27-.82.49-1.93.63-3.34.42-1.89-.27-4.31-1.17-7.27-2.68Z"/>
      <path class="cls-10" d="m317.27,193.16c-.22-.51-.3-.97-.24-1.38.05-.35.21-.67.47-.96.56-.62,1.21-.9,1.97-.84.76.06,1.36.45,1.82,1.18.32.5.44,1,.37,1.48-.03.22-.1.43-.21.62-.36.65-.97,1.05-1.81,1.18-.2.03-.39.03-.58,0-.63-.1-1.22-.52-1.78-1.28Zm-1.04,8.74c-.23-.54-.31-1.03-.24-1.47.06-.38.22-.73.5-1.04.58-.66,1.27-.97,2.05-.92.77.05,1.4.48,1.88,1.27.33.55.46,1.08.38,1.59-.03.21-.11.43-.23.66-.38.7-1.01,1.13-1.88,1.28-.22.04-.42.04-.61.01-.65-.1-1.26-.56-1.84-1.38Z"/>
      <path class="cls-10" d="m30.22,211.86c3.4-.52,5.82.37,7.26,2.66.38.61.62,1.21.7,1.78.34,2.36-1.73,4.52-6.18,6.54.34,2.86.51,4.29.85,7.14-1.56.19-2.34.29-3.91.49-.81-5.87-1.61-11.75-2.41-17.62,1.33-.49,2.56-.82,3.68-.99Zm3.89,4.6c-.13-.58-1.09-.93-2.87-1.05.16,1.36.24,2.04.4,3.4,1.78-.99,2.61-1.78,2.48-2.35Z"/>
      <path class="cls-10" d="m41.12,228.24c-.86-6.13-1.72-11-2.6-14.62,1.71-.39,2.57-.58,4.28-.97.02.56.03.84.05,1.4,1.94-1.59,4.03-2.5,6.24-2.72.36,1.44.54,2.16.91,3.61-2.53.34-4.24,1.1-5.12,2.27-.61.81-.71,2.68-.3,5.6.19,1.33.48,2.88.87,4.67-1.73.3-2.6.46-4.33.77Z"/>
      <path class="cls-10" d="m52.39,208.81c.23-.03.44-.03.63.01.91.17,1.54.62,1.91,1.36.11.22.18.45.21.68.07.52-.08,1.05-.44,1.61-.52.8-1.17,1.22-1.97,1.25-.8.03-1.5-.3-2.1-1-.27-.32-.43-.67-.48-1.03-.06-.46.04-.98.3-1.53.61-.81,1.26-1.26,1.94-1.35Zm3.18,6.15c.31,3.77.58,7.51.81,11.22-1.54.34-2.31.52-3.85.87-.07-1.59-.2-3.2-.42-4.83-.27-2.02-.65-4.05-1.15-6.1,1.84-.47,2.77-.7,4.61-1.17Z"/>
      <path class="cls-10" d="m59.3,209.57c.18.67.27,1,.45,1.67,1.84-1.63,3.42-2.52,4.71-2.67,1.2-.14,2.16.35,2.87,1.47,1.08,1.7,1.85,4.61,2.31,8.73.17,1.48.29,3.11.38,4.9-1.64.24-2.46.36-4.11.61.07-2.22.02-4.09-.16-5.59-.21-1.84-.61-3.14-1.2-3.9-.38-.49-.78-.71-1.19-.66-.79.09-1.65,1.12-2.57,3.09.39,3.21.58,4.81.97,8.02-1.49.14-2.24.21-3.73.35-1-5.97-1.51-8.96-2.52-14.93,1.51-.44,2.26-.65,3.77-1.08Z"/>
      <path class="cls-10" d="m83.69,215.51c-.25,4.49-1.73,7.06-4.44,7.71-.44.11-.9.18-1.38.23-2.25.23-4.08-.35-5.5-1.75-1.32-1.3-2.11-3.09-2.36-5.38-.05-.44-.08-.95-.08-1.53,0-3.04.3-5.04.9-5.98.75-1.17,1.67-1.96,2.74-2.38.6-.24,1.85-.49,3.74-.74,2.37-.32,4.4,1.46,6.08,5.35-1.72.29-2.58.43-4.3.73-.78-1.23-1.6-1.8-2.46-1.71-.41.04-.83.23-1.26.58-1.19.96-1.69,2.32-1.51,4.06.02.15.05.36.1.62.39,2.06,1.4,3.06,3.05,3.01,1.65-.05,2.51-.99,2.57-2.83,1.64,0,2.45,0,4.09,0Z"/>
      <path class="cls-10" d="m86.18,205.06c.23-.02.44,0,.63.03.9.2,1.52.68,1.86,1.42.1.23.17.45.19.69.05.52-.12,1.05-.5,1.59-.54.78-1.22,1.18-2.02,1.18-.8,0-1.49-.36-2.06-1.08-.26-.33-.41-.68-.44-1.05-.04-.47.07-.97.36-1.52.64-.79,1.3-1.21,1.98-1.28Zm2.95,6.26c.17,3.78.31,7.52.4,11.25-1.55.29-2.33.43-3.88.73,0-1.59-.09-3.21-.24-4.84-.19-2.03-.5-4.07-.93-6.14,1.86-.4,2.79-.6,4.65-1Z"/>
      <path class="cls-10" d="m92.78,204.27c3.47-.3,5.82.84,7.03,3.39.3.63.47,1.24.52,1.83.19,2.47-1.94,4.39-6.36,5.84.43,2.75.65,4.13,1.08,6.88-1.61.23-2.41.35-4.01.59-.61-5.94-1.23-11.88-1.84-17.81,1.3-.38,2.5-.62,3.59-.71Zm3.35,4.97c-.09-.58-1.15-1.03-3.17-1.33.22,1.4.33,2.1.55,3.51,1.84-.87,2.71-1.6,2.62-2.18Z"/>
      <path class="cls-10" d="m105.39,204.91c.68-.2,1.36-.33,2.02-.37,3.22-.23,5.4,1.28,6.53,4.49.58,1.67.92,3.6,1,5.81.08,2.09.12,3.14.21,5.23-1.58.2-2.37.3-3.95.5-.03-.29-.05-.43-.08-.71-5,.16-7.68-.85-8.07-3.1-.06-.32-.09-.56-.1-.71-.14-1.85.52-3.06,1.99-3.64.73-.29,1.47-.46,2.21-.51.99-.07,2.01.06,3.07.38-.13-1.75-.21-2.67-.25-2.77-.25-.69-.97-1.03-2.14-1.05-1,0-1.89.87-2.68,2.64-1.6-.13-2.4-.19-4.01-.31.82-3.33,2.24-5.3,4.24-5.89Zm3.26,9.61c-1.08.07-1.62.4-1.63.96-.02.81,1.23,1.39,3.77,1.73-.11-1.05-.17-1.58-.29-2.63-.73-.07-1.34-.09-1.85-.06Z"/>
      <path class="cls-10" d="m117.53,202.68c.23-.01.44,0,.63.05.89.23,1.49.73,1.81,1.49.1.23.15.46.16.69.03.52-.15,1.04-.55,1.58-.57.77-1.25,1.14-2.05,1.11-.8-.02-1.47-.41-2.02-1.15-.25-.34-.39-.69-.41-1.06-.03-.47.11-.97.41-1.51.66-.76,1.34-1.17,2.02-1.21Zm2.74,6.36c.05,3.78.05,7.53.02,11.25-1.56.24-2.34.36-3.9.6.05-1.59.02-3.21-.08-4.84-.12-2.03-.36-4.09-.72-6.17,1.87-.34,2.8-.51,4.68-.84Z"/>
      <path class="cls-10" d="m120.95,218.87c.63-1.67.95-2.51,1.59-4.19,2.4,1.37,4.23,2.03,5.5,1.96.45-.02.88-.18,1.29-.46.46-.32.68-.69.66-1.12-.03-.64-.92-1.14-2.67-1.49-2.53-.51-4.28-1.71-5.25-3.63-.32-.63-.5-1.23-.53-1.77-.06-1.17.49-2.22,1.67-3.16,1.01-.81,2.55-1.27,4.63-1.37,1.46-.07,3.2.04,5.2.33-.46,1.58-.69,2.38-1.15,3.96-1.53-.59-2.76-.87-3.69-.82-.46.02-.88.14-1.27.35-.48.26-.72.59-.7.98.02.37.37.74,1.05,1.13.47.26,1.38.62,2.72,1.06,1.13.38,1.96.77,2.47,1.17.75.59,1.16,1.41,1.25,2.46.14,1.72-.6,3.31-2.22,4.79-.69.63-1.72.98-3.1,1.05-1.85.09-4.32-.33-7.42-1.25Z"/>
      <path class="cls-10" d="m142.28,210.38c-.1-1.52-.15-2.28-.25-3.8,1.04-.13,1.56-.19,2.6-.31-.03-2.5-.04-3.75-.06-6.24,1.54-.14,2.3-.21,3.84-.35-.09,2.48-.13,3.71-.21,6.19,1.43-.17,2.15-.25,3.58-.41.13,1.52.2,2.28.33,3.79-1.59.18-2.39.27-3.99.45,0,.43,0,.83.02,1.22.09,3.55.61,5.38,1.55,5.47,1.03.11,1.75-.69,2.18-2.39,1.09.12,1.63.18,2.72.31-.14,2.45-.82,4-2.04,4.65-.87.47-1.9.72-3.11.75-.5.01-1.01,0-1.53-.07-1.88-.2-2.94-3.39-3.2-9.56-.97.11-1.45.17-2.42.29Z"/>
      <path class="cls-10" d="m157.68,201.16c.23,0,.44.02.63.08.88.27,1.46.79,1.74,1.56.09.23.13.47.13.7,0,.52-.2,1.04-.62,1.55-.6.74-1.3,1.08-2.1,1.02-.8-.06-1.45-.47-1.97-1.23-.24-.35-.36-.71-.36-1.08,0-.47.15-.96.47-1.49.69-.74,1.39-1.11,2.07-1.12Zm2.46,6.47c-.11,3.78-.27,7.53-.46,11.24-1.57.17-2.35.26-3.92.43.11-1.59.16-3.2.13-4.84-.04-2.04-.19-4.1-.45-6.19,1.88-.26,2.82-.39,4.71-.64Z"/>
      <path class="cls-10" d="m164.32,200.88c3.48-.03,5.73,1.28,6.74,3.92.25.65.38,1.27.38,1.86,0,2.47-2.27,4.23-6.78,5.33.22,2.78.33,4.16.55,6.94-1.62.11-2.43.17-4.04.29-.16-5.97-.32-11.94-.48-17.9,1.33-.28,2.54-.43,3.64-.44Zm2.95,5.21c-.04-.59-1.06-1.11-3.06-1.56.11,1.42.17,2.12.28,3.54,1.9-.73,2.82-1.39,2.78-1.98Z"/>
      <path class="cls-10" d="m172.54,212.02c.08-2.32.66-4.32,1.75-5.98,1.31-1.99,3.06-2.98,5.26-2.97,2.32.02,3.99.6,5,1.73.83.93,1.46,2.57,1.9,4.94.17.93.25,1.81.24,2.63-.03,1.77-.49,3.24-1.39,4.41-1.31,1.71-3.28,2.51-5.9,2.41-2.41-.09-4.17-.7-5.3-1.85-1.12-1.15-1.64-2.93-1.57-5.31Zm9.11-3.62c-.64-.68-1.4-1.02-2.04-1.02-.79,0-1.51.5-2.18,1.51-.59.9-.89,1.78-.89,2.64,0,.8.26,1.63.79,2.48.59.95,1.27,1.43,2.05,1.43.89,0,1.71-.46,2.46-1.37.71-.87,1.08-1.75,1.09-2.66.01-.98-.41-2.08-1.28-3.01Z"/>
      <path class="cls-10" d="m186.28,217.5c.75-1.63,1.12-2.44,1.88-4.06,2.3,1.53,4.07,2.32,5.35,2.35.45.01.89-.11,1.32-.37.48-.28.72-.64.73-1.07.02-.64-.83-1.2-2.55-1.68-2.48-.69-4.15-2.01-4.98-3.99-.28-.66-.41-1.26-.41-1.81.02-1.17.65-2.18,1.89-3.04,1.06-.73,2.63-1.08,4.71-1.03,1.47.03,3.19.26,5.16.7-.57,1.55-.86,2.32-1.43,3.87-1.48-.7-2.69-1.06-3.62-1.08-.46-.01-.89.08-1.3.26-.5.22-.76.53-.77.93,0,.37.32.77.97,1.2.45.3,1.33.71,2.64,1.25,1.1.46,1.9.9,2.38,1.35.7.64,1.06,1.49,1.07,2.54.02,1.72-.83,3.26-2.56,4.62-.73.58-1.78.86-3.16.83-1.85-.04-4.28-.64-7.32-1.77Z"/>
      <path class="cls-10" d="m208.86,219.12c.03-6.35.05-12.71.07-19.06,6.4,1.96,9.76,4.38,10.15,7.17.14,1.01.18,1.97.14,2.88-.07,1.47-.4,2.7-.99,3.68-.94,1.58-4.08,3.34-9.37,5.33Zm3.94-12.8c-.04,2.35-.07,3.52-.11,5.86,1.67-.42,2.59-1.27,2.76-2.57.17-1.3-.71-2.4-2.65-3.3Z"/>
      <path class="cls-10" d="m223.9,213.48c.38,1.56,1.31,2.41,2.8,2.58,1.39.15,2.38-.52,2.96-2.01,1.74-.14,2.61-.2,4.36-.33-1.39,4.39-3.7,6.47-6.95,6.28-1-.06-2.1-.35-3.32-.88-2.22-1.43-3.24-3.98-3.05-7.68.02-.32.04-.67.09-1.05.45-4.27,2.99-6.96,6.78-7.1,3.54-.13,5.87,2.89,6.1,8.2-3.92.78-5.87,1.18-9.77,2Zm1.49-5.37c-.61.63-.97,1.42-1.07,2.36,2.36-.52,3.54-.78,5.9-1.29-.6-1.23-1.4-1.88-2.41-1.93-1-.06-1.81.23-2.42.86Z"/>
      <path class="cls-10" d="m244.91,202.58c4.03.31,6.9,1.66,8.61,4.03.66.92.95,1.86.86,2.82-.16,1.79-1.6,3.66-4.29,5.61,2.38,3.31,3.56,4.97,5.89,8.3-2.2-.22-3.29-.33-5.49-.54-1.47-2.09-2.21-3.13-3.7-5.21-.15,1.92-.23,2.88-.38,4.79-1.8-.26-2.7-.39-4.5-.64.57-6.41,1.14-12.81,1.71-19.22.44.01.87.04,1.3.07Zm5.42,6.73c.09-1.14-.8-1.93-2.7-2.36-.16,1.95-.23,2.92-.39,4.87,1.98-.75,3.01-1.58,3.09-2.5Z"/>
      <path class="cls-10" d="m259.59,216.14c.32,1.57,1.22,2.46,2.71,2.68,1.38.2,2.4-.42,3.04-1.89,1.75-.07,2.62-.1,4.37-.17-1.56,4.33-3.95,6.32-7.19,6.01-1-.1-2.09-.43-3.28-1.01-2.16-1.51-3.08-4.11-2.75-7.8.03-.31.07-.66.13-1.05.61-4.25,3.25-6.84,7.05-6.84,3.55,0,5.75,3.11,5.78,8.43-3.95.63-5.92.95-9.85,1.62Zm1.69-5.31c-.64.61-1.02,1.38-1.16,2.32,2.38-.43,3.57-.64,5.95-1.06-.55-1.25-1.33-1.93-2.33-2.03-1-.1-1.82.16-2.46.77Z"/>
      <path class="cls-10" d="m274.3,204.73c-.21,6.2-.43,12.39-.66,18.59-1.68.01-2.52.02-4.21.04.42-6.34.84-12.67,1.25-19.01,1.45.15,2.17.23,3.62.39Z"/>
      <path class="cls-10" d="m278.97,218.17c.28,1.58,1.17,2.49,2.65,2.74,1.38.23,2.41-.37,3.08-1.83,1.75-.03,2.62-.05,4.37-.07-1.65,4.29-4.09,6.24-7.32,5.85-1-.12-2.08-.48-3.26-1.07-2.13-1.56-3-4.17-2.59-7.85.03-.31.08-.66.15-1.04.7-4.23,3.4-6.77,7.2-6.69,3.55.08,5.69,3.23,5.61,8.55-3.96.54-5.94.83-9.89,1.41Zm1.8-5.27c-.65.6-1.05,1.36-1.21,2.3,2.39-.38,3.58-.57,5.98-.94-.52-1.26-1.29-1.96-2.29-2.07-1-.12-1.83.12-2.47.72Z"/>
      <path class="cls-10" d="m289.84,212.33c1.73-.57,2.6-.85,4.33-1.41.79,5.18,1.17,7.77,1.92,12.94,1.7-5.24,2.56-7.86,4.29-13.1,1.62.72,2.43,1.07,4.04,1.8-2.16,5.16-4.3,10.33-6.42,15.5-1.89-.31-2.84-.46-4.73-.76-1.11-5-2.26-9.99-3.43-14.97Z"/>
      <path class="cls-10" d="m303.91,221.32c.4-2.28,1.26-4.18,2.59-5.67,1.58-1.78,3.46-2.52,5.64-2.19,2.3.35,3.87,1.16,4.72,2.42.69,1.03,1.09,2.76,1.19,5.16.04.94,0,1.82-.13,2.64-.28,1.75-.95,3.14-2,4.17-1.55,1.51-3.61,2.02-6.2,1.55-2.38-.43-4.04-1.29-5-2.59-.95-1.3-1.22-3.13-.8-5.48Zm9.56-2.29c-.54-.76-1.24-1.21-1.88-1.3-.78-.12-1.57.28-2.38,1.19-.72.81-1.14,1.64-1.26,2.48-.12.8.03,1.65.43,2.56.45,1.02,1.06,1.59,1.84,1.71.88.13,1.76-.21,2.64-1.01.83-.76,1.32-1.58,1.46-2.48.15-.97-.11-2.12-.85-3.16Z"/>
    </g>
  </g>
</svg>